<svg width="764" height="1017" viewBox="0 0 764 1017" fill="none" xmlns="http://www.w3.org/2000/svg">
<rect width="764" height="1017" fill="#1E1E1E"/>
<g id="Frame 1">
<rect width="764" height="1017" fill="white"/>
<g id="Cluster_H">
<path id="Divider_horizontal" d="M425 878H730.5" stroke="#AFAFAF" stroke-width="0.5"/>
<path id="Divider_left" d="M532 817L532 933" stroke="#AFAFAF" stroke-width="0.5"/>
<path id="Divider_right" d="M625 817L625 933" stroke="#AFAFAF" stroke-width="0.5"/>
<g id="Desk48">
<g id="Chair">
<rect id="Seat" x="661.5" y="940.5" width="19" height="15" fill="#6EB9E3" stroke="black"/>
<g id="Support">
<mask id="path-5-inside-1_0_1" fill="white">
<path fill-rule="evenodd" clip-rule="evenodd" d="M680 937C680 934.791 681.791 933 684 933C686.209 933 688 934.791 688 937V958C688 960.209 686.209 962 684 962H658C655.791 962 654 960.209 654 958V937C654 934.791 655.791 933 658 933C660.209 933 662 934.791 662 937V954H680V937Z"/>
</mask>
<path fill-rule="evenodd" clip-rule="evenodd" d="M680 937C680 934.791 681.791 933 684 933C686.209 933 688 934.791 688 937V958C688 960.209 686.209 962 684 962H658C655.791 962 654 960.209 654 958V937C654 934.791 655.791 933 658 933C660.209 933 662 934.791 662 937V954H680V937Z" fill="#6EB9E3"/>
<path d="M662 954H661V955H662V954ZM680 954V955H681V954H680ZM684 932C681.239 932 679 934.239 679 937H681C681 935.343 682.343 934 684 934V932ZM689 937C689 934.239 686.761 932 684 932V934C685.657 934 687 935.343 687 937H689ZM689 958V937H687V958H689ZM684 963C686.761 963 689 960.761 689 958H687C687 959.657 685.657 961 684 961V963ZM658 963H684V961H658V963ZM653 958C653 960.761 655.239 963 658 963V961C656.343 961 655 959.657 655 958H653ZM655 958V937H653V958H655ZM655 937C655 935.343 656.343 934 658 934V932C655.239 932 653 934.239 653 937H655ZM658 934C659.657 934 661 935.343 661 937H663C663 934.239 660.761 932 658 932V934ZM661 937V954H663V937H661ZM680 953H662V955H680V953ZM679 937V954H681V937H679Z" fill="black" mask="url(#path-5-inside-1_0_1)"/>
</g>
</g>
<rect id="Table" x="640.5" y="901.5" width="62" height="28" fill="#6EB9E3" stroke="black"/>
</g>
<g id="Desk47">
<g id="Chair_2">
<rect id="Seat_2" x="568.5" y="940.5" width="19" height="15" fill="#6EB9E3" stroke="black"/>
<g id="Support_2">
<mask id="path-9-inside-2_0_1" fill="white">
<path fill-rule="evenodd" clip-rule="evenodd" d="M587 937C587 934.791 588.791 933 591 933C593.209 933 595 934.791 595 937V958C595 960.209 593.209 962 591 962H565C562.791 962 561 960.209 561 958V937C561 934.791 562.791 933 565 933C567.209 933 569 934.791 569 937V954H587V937Z"/>
</mask>
<path fill-rule="evenodd" clip-rule="evenodd" d="M587 937C587 934.791 588.791 933 591 933C593.209 933 595 934.791 595 937V958C595 960.209 593.209 962 591 962H565C562.791 962 561 960.209 561 958V937C561 934.791 562.791 933 565 933C567.209 933 569 934.791 569 937V954H587V937Z" fill="#6EB9E3"/>
<path d="M569 954H568V955H569V954ZM587 954V955H588V954H587ZM591 932C588.239 932 586 934.239 586 937H588C588 935.343 589.343 934 591 934V932ZM596 937C596 934.239 593.761 932 591 932V934C592.657 934 594 935.343 594 937H596ZM596 958V937H594V958H596ZM591 963C593.761 963 596 960.761 596 958H594C594 959.657 592.657 961 591 961V963ZM565 963H591V961H565V963ZM560 958C560 960.761 562.239 963 565 963V961C563.343 961 562 959.657 562 958H560ZM562 958V937H560V958H562ZM562 937C562 935.343 563.343 934 565 934V932C562.239 932 560 934.239 560 937H562ZM565 934C566.657 934 568 935.343 568 937H570C570 934.239 567.761 932 565 932V934ZM568 937V954H570V937H568ZM587 953H569V955H587V953ZM586 937V954H588V937H586Z" fill="black" mask="url(#path-9-inside-2_0_1)"/>
</g>
</g>
<rect id="Table_2" x="547.5" y="901.5" width="62" height="28" fill="#6EB9E3" stroke="black"/>
</g>
<g id="Desk46">
<g id="Chair_3">
<rect id="Seat_3" x="475.5" y="940.5" width="19" height="15" fill="#6EB9E3" stroke="black"/>
<g id="Support_3">
<mask id="path-13-inside-3_0_1" fill="white">
<path fill-rule="evenodd" clip-rule="evenodd" d="M494 937C494 934.791 495.791 933 498 933C500.209 933 502 934.791 502 937V958C502 960.209 500.209 962 498 962H472C469.791 962 468 960.209 468 958V937C468 934.791 469.791 933 472 933C474.209 933 476 934.791 476 937V954H494V937Z"/>
</mask>
<path fill-rule="evenodd" clip-rule="evenodd" d="M494 937C494 934.791 495.791 933 498 933C500.209 933 502 934.791 502 937V958C502 960.209 500.209 962 498 962H472C469.791 962 468 960.209 468 958V937C468 934.791 469.791 933 472 933C474.209 933 476 934.791 476 937V954H494V937Z" fill="#6EB9E3"/>
<path d="M476 954H475V955H476V954ZM494 954V955H495V954H494ZM498 932C495.239 932 493 934.239 493 937H495C495 935.343 496.343 934 498 934V932ZM503 937C503 934.239 500.761 932 498 932V934C499.657 934 501 935.343 501 937H503ZM503 958V937H501V958H503ZM498 963C500.761 963 503 960.761 503 958H501C501 959.657 499.657 961 498 961V963ZM472 963H498V961H472V963ZM467 958C467 960.761 469.239 963 472 963V961C470.343 961 469 959.657 469 958H467ZM469 958V937H467V958H469ZM469 937C469 935.343 470.343 934 472 934V932C469.239 932 467 934.239 467 937H469ZM472 934C473.657 934 475 935.343 475 937H477C477 934.239 474.761 932 472 932V934ZM475 937V954H477V937H475ZM494 953H476V955H494V953ZM493 937V954H495V937H493Z" fill="black" mask="url(#path-13-inside-3_0_1)"/>
</g>
</g>
<rect id="Table_3" x="454.5" y="901.5" width="62" height="28" fill="#6EB9E3" stroke="black"/>
</g>
<g id="Desk45">
<g id="Chair_4">
<rect id="Seat_4" x="0.5" y="-0.5" width="19" height="15" transform="matrix(1 0 0 -1 661 816)" fill="#6EB9E3" stroke="black"/>
<g id="Support_4">
<mask id="path-17-inside-4_0_1" fill="white">
<path fill-rule="evenodd" clip-rule="evenodd" d="M680 820C680 822.209 681.791 824 684 824C686.209 824 688 822.209 688 820V799C688 796.791 686.209 795 684 795H658C655.791 795 654 796.791 654 799V820C654 822.209 655.791 824 658 824C660.209 824 662 822.209 662 820V803H680V820Z"/>
</mask>
<path fill-rule="evenodd" clip-rule="evenodd" d="M680 820C680 822.209 681.791 824 684 824C686.209 824 688 822.209 688 820V799C688 796.791 686.209 795 684 795H658C655.791 795 654 796.791 654 799V820C654 822.209 655.791 824 658 824C660.209 824 662 822.209 662 820V803H680V820Z" fill="#6EB9E3"/>
<path d="M662 803H661V802H662V803ZM680 803V802H681V803H680ZM684 825C681.239 825 679 822.761 679 820H681C681 821.657 682.343 823 684 823V825ZM689 820C689 822.761 686.761 825 684 825V823C685.657 823 687 821.657 687 820H689ZM689 799V820H687V799H689ZM684 794C686.761 794 689 796.239 689 799H687C687 797.343 685.657 796 684 796V794ZM658 794H684V796H658V794ZM653 799C653 796.239 655.239 794 658 794V796C656.343 796 655 797.343 655 799H653ZM655 799V820H653V799H655ZM655 820C655 821.657 656.343 823 658 823V825C655.239 825 653 822.761 653 820H655ZM658 823C659.657 823 661 821.657 661 820H663C663 822.761 660.761 825 658 825V823ZM661 820V803H663V820H661ZM680 804H662V802H680V804ZM679 820V803H681V820H679Z" fill="black" mask="url(#path-17-inside-4_0_1)"/>
</g>
</g>
<rect id="Table_4" x="0.5" y="-0.5" width="62" height="28" transform="matrix(1 0 0 -1 640 855)" fill="#6EB9E3" stroke="black"/>
</g>
<g id="Desk44">
<g id="Chair_5">
<rect id="Seat_5" x="0.5" y="-0.5" width="19" height="15" transform="matrix(1 0 0 -1 568 816)" fill="#6EB9E3" stroke="black"/>
<g id="Support_5">
<mask id="path-21-inside-5_0_1" fill="white">
<path fill-rule="evenodd" clip-rule="evenodd" d="M587 820C587 822.209 588.791 824 591 824C593.209 824 595 822.209 595 820V799C595 796.791 593.209 795 591 795H565C562.791 795 561 796.791 561 799V820C561 822.209 562.791 824 565 824C567.209 824 569 822.209 569 820V803H587V820Z"/>
</mask>
<path fill-rule="evenodd" clip-rule="evenodd" d="M587 820C587 822.209 588.791 824 591 824C593.209 824 595 822.209 595 820V799C595 796.791 593.209 795 591 795H565C562.791 795 561 796.791 561 799V820C561 822.209 562.791 824 565 824C567.209 824 569 822.209 569 820V803H587V820Z" fill="#6EB9E3"/>
<path d="M569 803H568V802H569V803ZM587 803V802H588V803H587ZM591 825C588.239 825 586 822.761 586 820H588C588 821.657 589.343 823 591 823V825ZM596 820C596 822.761 593.761 825 591 825V823C592.657 823 594 821.657 594 820H596ZM596 799V820H594V799H596ZM591 794C593.761 794 596 796.239 596 799H594C594 797.343 592.657 796 591 796V794ZM565 794H591V796H565V794ZM560 799C560 796.239 562.239 794 565 794V796C563.343 796 562 797.343 562 799H560ZM562 799V820H560V799H562ZM562 820C562 821.657 563.343 823 565 823V825C562.239 825 560 822.761 560 820H562ZM565 823C566.657 823 568 821.657 568 820H570C570 822.761 567.761 825 565 825V823ZM568 820V803H570V820H568ZM587 804H569V802H587V804ZM586 820V803H588V820H586Z" fill="black" mask="url(#path-21-inside-5_0_1)"/>
</g>
</g>
<rect id="Table_5" x="0.5" y="-0.5" width="62" height="28" transform="matrix(1 0 0 -1 547 855)" fill="#6EB9E3" stroke="black"/>
</g>
<g id="Desk43">
<g id="Chair_6">
<rect id="Seat_6" x="0.5" y="-0.5" width="19" height="15" transform="matrix(1 0 0 -1 475 816)" fill="#6EB9E3" stroke="black"/>
<g id="Support_6">
<mask id="path-25-inside-6_0_1" fill="white">
<path fill-rule="evenodd" clip-rule="evenodd" d="M494 820C494 822.209 495.791 824 498 824C500.209 824 502 822.209 502 820V799C502 796.791 500.209 795 498 795H472C469.791 795 468 796.791 468 799V820C468 822.209 469.791 824 472 824C474.209 824 476 822.209 476 820V803H494V820Z"/>
</mask>
<path fill-rule="evenodd" clip-rule="evenodd" d="M494 820C494 822.209 495.791 824 498 824C500.209 824 502 822.209 502 820V799C502 796.791 500.209 795 498 795H472C469.791 795 468 796.791 468 799V820C468 822.209 469.791 824 472 824C474.209 824 476 822.209 476 820V803H494V820Z" fill="#6EB9E3"/>
<path d="M476 803H475V802H476V803ZM494 803V802H495V803H494ZM498 825C495.239 825 493 822.761 493 820H495C495 821.657 496.343 823 498 823V825ZM503 820C503 822.761 500.761 825 498 825V823C499.657 823 501 821.657 501 820H503ZM503 799V820H501V799H503ZM498 794C500.761 794 503 796.239 503 799H501C501 797.343 499.657 796 498 796V794ZM472 794H498V796H472V794ZM467 799C467 796.239 469.239 794 472 794V796C470.343 796 469 797.343 469 799H467ZM469 799V820H467V799H469ZM469 820C469 821.657 470.343 823 472 823V825C469.239 825 467 822.761 467 820H469ZM472 823C473.657 823 475 821.657 475 820H477C477 822.761 474.761 825 472 825V823ZM475 820V803H477V820H475ZM494 804H476V802H494V804ZM493 820V803H495V820H493Z" fill="black" mask="url(#path-25-inside-6_0_1)"/>
</g>
</g>
<rect id="Table_6" x="0.5" y="-0.5" width="62" height="28" transform="matrix(1 0 0 -1 454 855)" fill="#6EB9E3" stroke="black"/>
</g>
</g>
<g id="Cluster_G">
<path id="Divider_horizontal_2" d="M33 878H338.5" stroke="#AFAFAF" stroke-width="0.5"/>
<path id="Divider_left_2" d="M140 817L140 933" stroke="#AFAFAF" stroke-width="0.5"/>
<path id="Divider_right_2" d="M233 817L233 933" stroke="#AFAFAF" stroke-width="0.5"/>
<g id="Desk42">
<g id="Chair_7">
<rect id="Seat_7" x="269.5" y="940.5" width="19" height="15" fill="#6EB9E3" stroke="black"/>
<g id="Support_7">
<mask id="path-32-inside-7_0_1" fill="white">
<path fill-rule="evenodd" clip-rule="evenodd" d="M288 937C288 934.791 289.791 933 292 933C294.209 933 296 934.791 296 937V958C296 960.209 294.209 962 292 962H266C263.791 962 262 960.209 262 958V937C262 934.791 263.791 933 266 933C268.209 933 270 934.791 270 937V954H288V937Z"/>
</mask>
<path fill-rule="evenodd" clip-rule="evenodd" d="M288 937C288 934.791 289.791 933 292 933C294.209 933 296 934.791 296 937V958C296 960.209 294.209 962 292 962H266C263.791 962 262 960.209 262 958V937C262 934.791 263.791 933 266 933C268.209 933 270 934.791 270 937V954H288V937Z" fill="#6EB9E3"/>
<path d="M270 954H269V955H270V954ZM288 954V955H289V954H288ZM292 932C289.239 932 287 934.239 287 937H289C289 935.343 290.343 934 292 934V932ZM297 937C297 934.239 294.761 932 292 932V934C293.657 934 295 935.343 295 937H297ZM297 958V937H295V958H297ZM292 963C294.761 963 297 960.761 297 958H295C295 959.657 293.657 961 292 961V963ZM266 963H292V961H266V963ZM261 958C261 960.761 263.239 963 266 963V961C264.343 961 263 959.657 263 958H261ZM263 958V937H261V958H263ZM263 937C263 935.343 264.343 934 266 934V932C263.239 932 261 934.239 261 937H263ZM266 934C267.657 934 269 935.343 269 937H271C271 934.239 268.761 932 266 932V934ZM269 937V954H271V937H269ZM288 953H270V955H288V953ZM287 937V954H289V937H287Z" fill="black" mask="url(#path-32-inside-7_0_1)"/>
</g>
</g>
<rect id="Table_7" x="248.5" y="901.5" width="62" height="28" fill="#6EB9E3" stroke="black"/>
</g>
<g id="Desk41">
<g id="Chair_8">
<rect id="Seat_8" x="176.5" y="940.5" width="19" height="15" fill="#6EB9E3" stroke="black"/>
<g id="Support_8">
<mask id="path-36-inside-8_0_1" fill="white">
<path fill-rule="evenodd" clip-rule="evenodd" d="M195 937C195 934.791 196.791 933 199 933C201.209 933 203 934.791 203 937V958C203 960.209 201.209 962 199 962H173C170.791 962 169 960.209 169 958V937C169 934.791 170.791 933 173 933C175.209 933 177 934.791 177 937V954H195V937Z"/>
</mask>
<path fill-rule="evenodd" clip-rule="evenodd" d="M195 937C195 934.791 196.791 933 199 933C201.209 933 203 934.791 203 937V958C203 960.209 201.209 962 199 962H173C170.791 962 169 960.209 169 958V937C169 934.791 170.791 933 173 933C175.209 933 177 934.791 177 937V954H195V937Z" fill="#6EB9E3"/>
<path d="M177 954H176V955H177V954ZM195 954V955H196V954H195ZM199 932C196.239 932 194 934.239 194 937H196C196 935.343 197.343 934 199 934V932ZM204 937C204 934.239 201.761 932 199 932V934C200.657 934 202 935.343 202 937H204ZM204 958V937H202V958H204ZM199 963C201.761 963 204 960.761 204 958H202C202 959.657 200.657 961 199 961V963ZM173 963H199V961H173V963ZM168 958C168 960.761 170.239 963 173 963V961C171.343 961 170 959.657 170 958H168ZM170 958V937H168V958H170ZM170 937C170 935.343 171.343 934 173 934V932C170.239 932 168 934.239 168 937H170ZM173 934C174.657 934 176 935.343 176 937H178C178 934.239 175.761 932 173 932V934ZM176 937V954H178V937H176ZM195 953H177V955H195V953ZM194 937V954H196V937H194Z" fill="black" mask="url(#path-36-inside-8_0_1)"/>
</g>
</g>
<rect id="Table_8" x="155.5" y="901.5" width="62" height="28" fill="#6EB9E3" stroke="black"/>
</g>
<g id="Desk40">
<g id="Chair_9">
<rect id="Seat_9" x="83.5" y="940.5" width="19" height="15" fill="#6EB9E3" stroke="black"/>
<g id="Support_9">
<mask id="path-40-inside-9_0_1" fill="white">
<path fill-rule="evenodd" clip-rule="evenodd" d="M102 937C102 934.791 103.791 933 106 933C108.209 933 110 934.791 110 937V958C110 960.209 108.209 962 106 962H80C77.7909 962 76 960.209 76 958V937C76 934.791 77.7909 933 80 933C82.2091 933 84 934.791 84 937V954H102V937Z"/>
</mask>
<path fill-rule="evenodd" clip-rule="evenodd" d="M102 937C102 934.791 103.791 933 106 933C108.209 933 110 934.791 110 937V958C110 960.209 108.209 962 106 962H80C77.7909 962 76 960.209 76 958V937C76 934.791 77.7909 933 80 933C82.2091 933 84 934.791 84 937V954H102V937Z" fill="#6EB9E3"/>
<path d="M84 954H83V955H84V954ZM102 954V955H103V954H102ZM106 932C103.239 932 101 934.239 101 937H103C103 935.343 104.343 934 106 934V932ZM111 937C111 934.239 108.761 932 106 932V934C107.657 934 109 935.343 109 937H111ZM111 958V937H109V958H111ZM106 963C108.761 963 111 960.761 111 958H109C109 959.657 107.657 961 106 961V963ZM80 963H106V961H80V963ZM75 958C75 960.761 77.2386 963 80 963V961C78.3431 961 77 959.657 77 958H75ZM77 958V937H75V958H77ZM77 937C77 935.343 78.3431 934 80 934V932C77.2386 932 75 934.239 75 937H77ZM80 934C81.6569 934 83 935.343 83 937H85C85 934.239 82.7614 932 80 932V934ZM83 937V954H85V937H83ZM102 953H84V955H102V953ZM101 937V954H103V937H101Z" fill="black" mask="url(#path-40-inside-9_0_1)"/>
</g>
</g>
<rect id="Table_9" x="62.5" y="901.5" width="62" height="28" fill="#6EB9E3" stroke="black"/>
</g>
<g id="Desk39">
<g id="Chair_10">
<rect id="Seat_10" x="0.5" y="-0.5" width="19" height="15" transform="matrix(1 0 0 -1 269 816)" fill="#6EB9E3" stroke="black"/>
<g id="Support_10">
<mask id="path-44-inside-10_0_1" fill="white">
<path fill-rule="evenodd" clip-rule="evenodd" d="M288 820C288 822.209 289.791 824 292 824C294.209 824 296 822.209 296 820V799C296 796.791 294.209 795 292 795H266C263.791 795 262 796.791 262 799V820C262 822.209 263.791 824 266 824C268.209 824 270 822.209 270 820V803H288V820Z"/>
</mask>
<path fill-rule="evenodd" clip-rule="evenodd" d="M288 820C288 822.209 289.791 824 292 824C294.209 824 296 822.209 296 820V799C296 796.791 294.209 795 292 795H266C263.791 795 262 796.791 262 799V820C262 822.209 263.791 824 266 824C268.209 824 270 822.209 270 820V803H288V820Z" fill="#6EB9E3"/>
<path d="M270 803H269V802H270V803ZM288 803V802H289V803H288ZM292 825C289.239 825 287 822.761 287 820H289C289 821.657 290.343 823 292 823V825ZM297 820C297 822.761 294.761 825 292 825V823C293.657 823 295 821.657 295 820H297ZM297 799V820H295V799H297ZM292 794C294.761 794 297 796.239 297 799H295C295 797.343 293.657 796 292 796V794ZM266 794H292V796H266V794ZM261 799C261 796.239 263.239 794 266 794V796C264.343 796 263 797.343 263 799H261ZM263 799V820H261V799H263ZM263 820C263 821.657 264.343 823 266 823V825C263.239 825 261 822.761 261 820H263ZM266 823C267.657 823 269 821.657 269 820H271C271 822.761 268.761 825 266 825V823ZM269 820V803H271V820H269ZM288 804H270V802H288V804ZM287 820V803H289V820H287Z" fill="black" mask="url(#path-44-inside-10_0_1)"/>
</g>
</g>
<rect id="Table_10" x="0.5" y="-0.5" width="62" height="28" transform="matrix(1 0 0 -1 248 855)" fill="#6EB9E3" stroke="black"/>
</g>
<g id="Desk38">
<g id="Chair_11">
<rect id="Seat_11" x="0.5" y="-0.5" width="19" height="15" transform="matrix(1 0 0 -1 176 816)" fill="#6EB9E3" stroke="black"/>
<g id="Support_11">
<mask id="path-48-inside-11_0_1" fill="white">
<path fill-rule="evenodd" clip-rule="evenodd" d="M195 820C195 822.209 196.791 824 199 824C201.209 824 203 822.209 203 820V799C203 796.791 201.209 795 199 795H173C170.791 795 169 796.791 169 799V820C169 822.209 170.791 824 173 824C175.209 824 177 822.209 177 820V803H195V820Z"/>
</mask>
<path fill-rule="evenodd" clip-rule="evenodd" d="M195 820C195 822.209 196.791 824 199 824C201.209 824 203 822.209 203 820V799C203 796.791 201.209 795 199 795H173C170.791 795 169 796.791 169 799V820C169 822.209 170.791 824 173 824C175.209 824 177 822.209 177 820V803H195V820Z" fill="#6EB9E3"/>
<path d="M177 803H176V802H177V803ZM195 803V802H196V803H195ZM199 825C196.239 825 194 822.761 194 820H196C196 821.657 197.343 823 199 823V825ZM204 820C204 822.761 201.761 825 199 825V823C200.657 823 202 821.657 202 820H204ZM204 799V820H202V799H204ZM199 794C201.761 794 204 796.239 204 799H202C202 797.343 200.657 796 199 796V794ZM173 794H199V796H173V794ZM168 799C168 796.239 170.239 794 173 794V796C171.343 796 170 797.343 170 799H168ZM170 799V820H168V799H170ZM170 820C170 821.657 171.343 823 173 823V825C170.239 825 168 822.761 168 820H170ZM173 823C174.657 823 176 821.657 176 820H178C178 822.761 175.761 825 173 825V823ZM176 820V803H178V820H176ZM195 804H177V802H195V804ZM194 820V803H196V820H194Z" fill="black" mask="url(#path-48-inside-11_0_1)"/>
</g>
</g>
<rect id="Table_11" x="0.5" y="-0.5" width="62" height="28" transform="matrix(1 0 0 -1 155 855)" fill="#6EB9E3" stroke="black"/>
</g>
<g id="Desk37">
<g id="Chair_12">
<rect id="Seat_12" x="0.5" y="-0.5" width="19" height="15" transform="matrix(1 0 0 -1 83 816)" fill="#6EB9E3" stroke="black"/>
<g id="Support_12">
<mask id="path-52-inside-12_0_1" fill="white">
<path fill-rule="evenodd" clip-rule="evenodd" d="M102 820C102 822.209 103.791 824 106 824C108.209 824 110 822.209 110 820V799C110 796.791 108.209 795 106 795H80C77.7909 795 76 796.791 76 799V820C76 822.209 77.7909 824 80 824C82.2091 824 84 822.209 84 820V803H102V820Z"/>
</mask>
<path fill-rule="evenodd" clip-rule="evenodd" d="M102 820C102 822.209 103.791 824 106 824C108.209 824 110 822.209 110 820V799C110 796.791 108.209 795 106 795H80C77.7909 795 76 796.791 76 799V820C76 822.209 77.7909 824 80 824C82.2091 824 84 822.209 84 820V803H102V820Z" fill="#6EB9E3"/>
<path d="M84 803H83V802H84V803ZM102 803V802H103V803H102ZM106 825C103.239 825 101 822.761 101 820H103C103 821.657 104.343 823 106 823V825ZM111 820C111 822.761 108.761 825 106 825V823C107.657 823 109 821.657 109 820H111ZM111 799V820H109V799H111ZM106 794C108.761 794 111 796.239 111 799H109C109 797.343 107.657 796 106 796V794ZM80 794H106V796H80V794ZM75 799C75 796.239 77.2386 794 80 794V796C78.3431 796 77 797.343 77 799H75ZM77 799V820H75V799H77ZM77 820C77 821.657 78.3431 823 80 823V825C77.2386 825 75 822.761 75 820H77ZM80 823C81.6569 823 83 821.657 83 820H85C85 822.761 82.7614 825 80 825V823ZM83 820V803H85V820H83ZM102 804H84V802H102V804ZM101 820V803H103V820H101Z" fill="black" mask="url(#path-52-inside-12_0_1)"/>
</g>
</g>
<rect id="Table_12" x="0.5" y="-0.5" width="62" height="28" transform="matrix(1 0 0 -1 62 855)" fill="#6EB9E3" stroke="black"/>
</g>
</g>
<g id="Cluster_F">
<path id="Divider_horizontal_3" d="M425 631H730.5" stroke="#AFAFAF" stroke-width="0.5"/>
<path id="Divider_left_3" d="M532 570L532 686" stroke="#AFAFAF" stroke-width="0.5"/>
<path id="Divider_right_3" d="M625 570L625 686" stroke="#AFAFAF" stroke-width="0.5"/>
<g id="Desk36">
<g id="Chair_13">
<rect id="Seat_13" x="661.5" y="693.5" width="19" height="15" fill="#6EB9E3" stroke="black"/>
<g id="Support_13">
<mask id="path-59-inside-13_0_1" fill="white">
<path fill-rule="evenodd" clip-rule="evenodd" d="M680 690C680 687.791 681.791 686 684 686C686.209 686 688 687.791 688 690V711C688 713.209 686.209 715 684 715H658C655.791 715 654 713.209 654 711V690C654 687.791 655.791 686 658 686C660.209 686 662 687.791 662 690V707H680V690Z"/>
</mask>
<path fill-rule="evenodd" clip-rule="evenodd" d="M680 690C680 687.791 681.791 686 684 686C686.209 686 688 687.791 688 690V711C688 713.209 686.209 715 684 715H658C655.791 715 654 713.209 654 711V690C654 687.791 655.791 686 658 686C660.209 686 662 687.791 662 690V707H680V690Z" fill="#6EB9E3"/>
<path d="M662 707H661V708H662V707ZM680 707V708H681V707H680ZM684 685C681.239 685 679 687.239 679 690H681C681 688.343 682.343 687 684 687V685ZM689 690C689 687.239 686.761 685 684 685V687C685.657 687 687 688.343 687 690H689ZM689 711V690H687V711H689ZM684 716C686.761 716 689 713.761 689 711H687C687 712.657 685.657 714 684 714V716ZM658 716H684V714H658V716ZM653 711C653 713.761 655.239 716 658 716V714C656.343 714 655 712.657 655 711H653ZM655 711V690H653V711H655ZM655 690C655 688.343 656.343 687 658 687V685C655.239 685 653 687.239 653 690H655ZM658 687C659.657 687 661 688.343 661 690H663C663 687.239 660.761 685 658 685V687ZM661 690V707H663V690H661ZM680 706H662V708H680V706ZM679 690V707H681V690H679Z" fill="black" mask="url(#path-59-inside-13_0_1)"/>
</g>
</g>
<rect id="Table_13" x="640.5" y="654.5" width="62" height="28" fill="#6EB9E3" stroke="black"/>
</g>
<g id="Desk35">
<g id="Chair_14">
<rect id="Seat_14" x="568.5" y="693.5" width="19" height="15" fill="#6EB9E3" stroke="black"/>
<g id="Support_14">
<mask id="path-63-inside-14_0_1" fill="white">
<path fill-rule="evenodd" clip-rule="evenodd" d="M587 690C587 687.791 588.791 686 591 686C593.209 686 595 687.791 595 690V711C595 713.209 593.209 715 591 715H565C562.791 715 561 713.209 561 711V690C561 687.791 562.791 686 565 686C567.209 686 569 687.791 569 690V707H587V690Z"/>
</mask>
<path fill-rule="evenodd" clip-rule="evenodd" d="M587 690C587 687.791 588.791 686 591 686C593.209 686 595 687.791 595 690V711C595 713.209 593.209 715 591 715H565C562.791 715 561 713.209 561 711V690C561 687.791 562.791 686 565 686C567.209 686 569 687.791 569 690V707H587V690Z" fill="#6EB9E3"/>
<path d="M569 707H568V708H569V707ZM587 707V708H588V707H587ZM591 685C588.239 685 586 687.239 586 690H588C588 688.343 589.343 687 591 687V685ZM596 690C596 687.239 593.761 685 591 685V687C592.657 687 594 688.343 594 690H596ZM596 711V690H594V711H596ZM591 716C593.761 716 596 713.761 596 711H594C594 712.657 592.657 714 591 714V716ZM565 716H591V714H565V716ZM560 711C560 713.761 562.239 716 565 716V714C563.343 714 562 712.657 562 711H560ZM562 711V690H560V711H562ZM562 690C562 688.343 563.343 687 565 687V685C562.239 685 560 687.239 560 690H562ZM565 687C566.657 687 568 688.343 568 690H570C570 687.239 567.761 685 565 685V687ZM568 690V707H570V690H568ZM587 706H569V708H587V706ZM586 690V707H588V690H586Z" fill="black" mask="url(#path-63-inside-14_0_1)"/>
</g>
</g>
<rect id="Table_14" x="547.5" y="654.5" width="62" height="28" fill="#6EB9E3" stroke="black"/>
</g>
<g id="Desk34">
<g id="Chair_15">
<rect id="Seat_15" x="475.5" y="693.5" width="19" height="15" fill="#6EB9E3" stroke="black"/>
<g id="Support_15">
<mask id="path-67-inside-15_0_1" fill="white">
<path fill-rule="evenodd" clip-rule="evenodd" d="M494 690C494 687.791 495.791 686 498 686C500.209 686 502 687.791 502 690V711C502 713.209 500.209 715 498 715H472C469.791 715 468 713.209 468 711V690C468 687.791 469.791 686 472 686C474.209 686 476 687.791 476 690V707H494V690Z"/>
</mask>
<path fill-rule="evenodd" clip-rule="evenodd" d="M494 690C494 687.791 495.791 686 498 686C500.209 686 502 687.791 502 690V711C502 713.209 500.209 715 498 715H472C469.791 715 468 713.209 468 711V690C468 687.791 469.791 686 472 686C474.209 686 476 687.791 476 690V707H494V690Z" fill="#6EB9E3"/>
<path d="M476 707H475V708H476V707ZM494 707V708H495V707H494ZM498 685C495.239 685 493 687.239 493 690H495C495 688.343 496.343 687 498 687V685ZM503 690C503 687.239 500.761 685 498 685V687C499.657 687 501 688.343 501 690H503ZM503 711V690H501V711H503ZM498 716C500.761 716 503 713.761 503 711H501C501 712.657 499.657 714 498 714V716ZM472 716H498V714H472V716ZM467 711C467 713.761 469.239 716 472 716V714C470.343 714 469 712.657 469 711H467ZM469 711V690H467V711H469ZM469 690C469 688.343 470.343 687 472 687V685C469.239 685 467 687.239 467 690H469ZM472 687C473.657 687 475 688.343 475 690H477C477 687.239 474.761 685 472 685V687ZM475 690V707H477V690H475ZM494 706H476V708H494V706ZM493 690V707H495V690H493Z" fill="black" mask="url(#path-67-inside-15_0_1)"/>
</g>
</g>
<rect id="Table_15" x="454.5" y="654.5" width="62" height="28" fill="#6EB9E3" stroke="black"/>
</g>
<g id="Desk33">
<g id="Chair_16">
<rect id="Seat_16" x="0.5" y="-0.5" width="19" height="15" transform="matrix(1 0 0 -1 661 569)" fill="#6EB9E3" stroke="black"/>
<g id="Support_16">
<mask id="path-71-inside-16_0_1" fill="white">
<path fill-rule="evenodd" clip-rule="evenodd" d="M680 573C680 575.209 681.791 577 684 577C686.209 577 688 575.209 688 573V552C688 549.791 686.209 548 684 548H658C655.791 548 654 549.791 654 552V573C654 575.209 655.791 577 658 577C660.209 577 662 575.209 662 573V556H680V573Z"/>
</mask>
<path fill-rule="evenodd" clip-rule="evenodd" d="M680 573C680 575.209 681.791 577 684 577C686.209 577 688 575.209 688 573V552C688 549.791 686.209 548 684 548H658C655.791 548 654 549.791 654 552V573C654 575.209 655.791 577 658 577C660.209 577 662 575.209 662 573V556H680V573Z" fill="#6EB9E3"/>
<path d="M662 556H661V555H662V556ZM680 556V555H681V556H680ZM684 578C681.239 578 679 575.761 679 573H681C681 574.657 682.343 576 684 576V578ZM689 573C689 575.761 686.761 578 684 578V576C685.657 576 687 574.657 687 573H689ZM689 552V573H687V552H689ZM684 547C686.761 547 689 549.239 689 552H687C687 550.343 685.657 549 684 549V547ZM658 547H684V549H658V547ZM653 552C653 549.239 655.239 547 658 547V549C656.343 549 655 550.343 655 552H653ZM655 552V573H653V552H655ZM655 573C655 574.657 656.343 576 658 576V578C655.239 578 653 575.761 653 573H655ZM658 576C659.657 576 661 574.657 661 573H663C663 575.761 660.761 578 658 578V576ZM661 573V556H663V573H661ZM680 557H662V555H680V557ZM679 573V556H681V573H679Z" fill="black" mask="url(#path-71-inside-16_0_1)"/>
</g>
</g>
<rect id="Table_16" x="0.5" y="-0.5" width="62" height="28" transform="matrix(1 0 0 -1 640 608)" fill="#6EB9E3" stroke="black"/>
</g>
<g id="Desk32">
<g id="Chair_17">
<rect id="Seat_17" x="0.5" y="-0.5" width="19" height="15" transform="matrix(1 0 0 -1 568 569)" fill="#6EB9E3" stroke="black"/>
<g id="Support_17">
<mask id="path-75-inside-17_0_1" fill="white">
<path fill-rule="evenodd" clip-rule="evenodd" d="M587 573C587 575.209 588.791 577 591 577C593.209 577 595 575.209 595 573V552C595 549.791 593.209 548 591 548H565C562.791 548 561 549.791 561 552V573C561 575.209 562.791 577 565 577C567.209 577 569 575.209 569 573V556H587V573Z"/>
</mask>
<path fill-rule="evenodd" clip-rule="evenodd" d="M587 573C587 575.209 588.791 577 591 577C593.209 577 595 575.209 595 573V552C595 549.791 593.209 548 591 548H565C562.791 548 561 549.791 561 552V573C561 575.209 562.791 577 565 577C567.209 577 569 575.209 569 573V556H587V573Z" fill="#6EB9E3"/>
<path d="M569 556H568V555H569V556ZM587 556V555H588V556H587ZM591 578C588.239 578 586 575.761 586 573H588C588 574.657 589.343 576 591 576V578ZM596 573C596 575.761 593.761 578 591 578V576C592.657 576 594 574.657 594 573H596ZM596 552V573H594V552H596ZM591 547C593.761 547 596 549.239 596 552H594C594 550.343 592.657 549 591 549V547ZM565 547H591V549H565V547ZM560 552C560 549.239 562.239 547 565 547V549C563.343 549 562 550.343 562 552H560ZM562 552V573H560V552H562ZM562 573C562 574.657 563.343 576 565 576V578C562.239 578 560 575.761 560 573H562ZM565 576C566.657 576 568 574.657 568 573H570C570 575.761 567.761 578 565 578V576ZM568 573V556H570V573H568ZM587 557H569V555H587V557ZM586 573V556H588V573H586Z" fill="black" mask="url(#path-75-inside-17_0_1)"/>
</g>
</g>
<rect id="Table_17" x="0.5" y="-0.5" width="62" height="28" transform="matrix(1 0 0 -1 547 608)" fill="#6EB9E3" stroke="black"/>
</g>
<g id="Desk31">
<g id="Chair_18">
<rect id="Seat_18" x="0.5" y="-0.5" width="19" height="15" transform="matrix(1 0 0 -1 475 569)" fill="#6EB9E3" stroke="black"/>
<g id="Support_18">
<mask id="path-79-inside-18_0_1" fill="white">
<path fill-rule="evenodd" clip-rule="evenodd" d="M494 573C494 575.209 495.791 577 498 577C500.209 577 502 575.209 502 573V552C502 549.791 500.209 548 498 548H472C469.791 548 468 549.791 468 552V573C468 575.209 469.791 577 472 577C474.209 577 476 575.209 476 573V556H494V573Z"/>
</mask>
<path fill-rule="evenodd" clip-rule="evenodd" d="M494 573C494 575.209 495.791 577 498 577C500.209 577 502 575.209 502 573V552C502 549.791 500.209 548 498 548H472C469.791 548 468 549.791 468 552V573C468 575.209 469.791 577 472 577C474.209 577 476 575.209 476 573V556H494V573Z" fill="#6EB9E3"/>
<path d="M476 556H475V555H476V556ZM494 556V555H495V556H494ZM498 578C495.239 578 493 575.761 493 573H495C495 574.657 496.343 576 498 576V578ZM503 573C503 575.761 500.761 578 498 578V576C499.657 576 501 574.657 501 573H503ZM503 552V573H501V552H503ZM498 547C500.761 547 503 549.239 503 552H501C501 550.343 499.657 549 498 549V547ZM472 547H498V549H472V547ZM467 552C467 549.239 469.239 547 472 547V549C470.343 549 469 550.343 469 552H467ZM469 552V573H467V552H469ZM469 573C469 574.657 470.343 576 472 576V578C469.239 578 467 575.761 467 573H469ZM472 576C473.657 576 475 574.657 475 573H477C477 575.761 474.761 578 472 578V576ZM475 573V556H477V573H475ZM494 557H476V555H494V557ZM493 573V556H495V573H493Z" fill="black" mask="url(#path-79-inside-18_0_1)"/>
</g>
</g>
<rect id="Table_18" x="0.5" y="-0.5" width="62" height="28" transform="matrix(1 0 0 -1 454 608)" fill="#6EB9E3" stroke="black"/>
</g>
</g>
<g id="Cluster_E">
<path id="Divider_horizontal_4" d="M33 631H338.5" stroke="#AFAFAF" stroke-width="0.5"/>
<path id="Divider_left_4" d="M140 570L140 686" stroke="#AFAFAF" stroke-width="0.5"/>
<path id="Divider_right_4" d="M233 570L233 686" stroke="#AFAFAF" stroke-width="0.5"/>
<g id="Desk30">
<g id="Chair_19">
<rect id="Seat_19" x="269.5" y="693.5" width="19" height="15" fill="#6EB9E3" stroke="black"/>
<g id="Support_19">
<mask id="path-86-inside-19_0_1" fill="white">
<path fill-rule="evenodd" clip-rule="evenodd" d="M288 690C288 687.791 289.791 686 292 686C294.209 686 296 687.791 296 690V711C296 713.209 294.209 715 292 715H266C263.791 715 262 713.209 262 711V690C262 687.791 263.791 686 266 686C268.209 686 270 687.791 270 690V707H288V690Z"/>
</mask>
<path fill-rule="evenodd" clip-rule="evenodd" d="M288 690C288 687.791 289.791 686 292 686C294.209 686 296 687.791 296 690V711C296 713.209 294.209 715 292 715H266C263.791 715 262 713.209 262 711V690C262 687.791 263.791 686 266 686C268.209 686 270 687.791 270 690V707H288V690Z" fill="#6EB9E3"/>
<path d="M270 707H269V708H270V707ZM288 707V708H289V707H288ZM292 685C289.239 685 287 687.239 287 690H289C289 688.343 290.343 687 292 687V685ZM297 690C297 687.239 294.761 685 292 685V687C293.657 687 295 688.343 295 690H297ZM297 711V690H295V711H297ZM292 716C294.761 716 297 713.761 297 711H295C295 712.657 293.657 714 292 714V716ZM266 716H292V714H266V716ZM261 711C261 713.761 263.239 716 266 716V714C264.343 714 263 712.657 263 711H261ZM263 711V690H261V711H263ZM263 690C263 688.343 264.343 687 266 687V685C263.239 685 261 687.239 261 690H263ZM266 687C267.657 687 269 688.343 269 690H271C271 687.239 268.761 685 266 685V687ZM269 690V707H271V690H269ZM288 706H270V708H288V706ZM287 690V707H289V690H287Z" fill="black" mask="url(#path-86-inside-19_0_1)"/>
</g>
</g>
<rect id="Table_19" x="248.5" y="654.5" width="62" height="28" fill="#6EB9E3" stroke="black"/>
</g>
<g id="Desk29">
<g id="Chair_20">
<rect id="Seat_20" x="176.5" y="693.5" width="19" height="15" fill="#6EB9E3" stroke="black"/>
<g id="Support_20">
<mask id="path-90-inside-20_0_1" fill="white">
<path fill-rule="evenodd" clip-rule="evenodd" d="M195 690C195 687.791 196.791 686 199 686C201.209 686 203 687.791 203 690V711C203 713.209 201.209 715 199 715H173C170.791 715 169 713.209 169 711V690C169 687.791 170.791 686 173 686C175.209 686 177 687.791 177 690V707H195V690Z"/>
</mask>
<path fill-rule="evenodd" clip-rule="evenodd" d="M195 690C195 687.791 196.791 686 199 686C201.209 686 203 687.791 203 690V711C203 713.209 201.209 715 199 715H173C170.791 715 169 713.209 169 711V690C169 687.791 170.791 686 173 686C175.209 686 177 687.791 177 690V707H195V690Z" fill="#6EB9E3"/>
<path d="M177 707H176V708H177V707ZM195 707V708H196V707H195ZM199 685C196.239 685 194 687.239 194 690H196C196 688.343 197.343 687 199 687V685ZM204 690C204 687.239 201.761 685 199 685V687C200.657 687 202 688.343 202 690H204ZM204 711V690H202V711H204ZM199 716C201.761 716 204 713.761 204 711H202C202 712.657 200.657 714 199 714V716ZM173 716H199V714H173V716ZM168 711C168 713.761 170.239 716 173 716V714C171.343 714 170 712.657 170 711H168ZM170 711V690H168V711H170ZM170 690C170 688.343 171.343 687 173 687V685C170.239 685 168 687.239 168 690H170ZM173 687C174.657 687 176 688.343 176 690H178C178 687.239 175.761 685 173 685V687ZM176 690V707H178V690H176ZM195 706H177V708H195V706ZM194 690V707H196V690H194Z" fill="black" mask="url(#path-90-inside-20_0_1)"/>
</g>
</g>
<rect id="Table_20" x="155.5" y="654.5" width="62" height="28" fill="#6EB9E3" stroke="black"/>
</g>
<g id="Desk28">
<g id="Chair_21">
<rect id="Seat_21" x="83.5" y="693.5" width="19" height="15" fill="#6EB9E3" stroke="black"/>
<g id="Support_21">
<mask id="path-94-inside-21_0_1" fill="white">
<path fill-rule="evenodd" clip-rule="evenodd" d="M102 690C102 687.791 103.791 686 106 686C108.209 686 110 687.791 110 690V711C110 713.209 108.209 715 106 715H80C77.7909 715 76 713.209 76 711V690C76 687.791 77.7909 686 80 686C82.2091 686 84 687.791 84 690V707H102V690Z"/>
</mask>
<path fill-rule="evenodd" clip-rule="evenodd" d="M102 690C102 687.791 103.791 686 106 686C108.209 686 110 687.791 110 690V711C110 713.209 108.209 715 106 715H80C77.7909 715 76 713.209 76 711V690C76 687.791 77.7909 686 80 686C82.2091 686 84 687.791 84 690V707H102V690Z" fill="#6EB9E3"/>
<path d="M84 707H83V708H84V707ZM102 707V708H103V707H102ZM106 685C103.239 685 101 687.239 101 690H103C103 688.343 104.343 687 106 687V685ZM111 690C111 687.239 108.761 685 106 685V687C107.657 687 109 688.343 109 690H111ZM111 711V690H109V711H111ZM106 716C108.761 716 111 713.761 111 711H109C109 712.657 107.657 714 106 714V716ZM80 716H106V714H80V716ZM75 711C75 713.761 77.2386 716 80 716V714C78.3431 714 77 712.657 77 711H75ZM77 711V690H75V711H77ZM77 690C77 688.343 78.3431 687 80 687V685C77.2386 685 75 687.239 75 690H77ZM80 687C81.6569 687 83 688.343 83 690H85C85 687.239 82.7614 685 80 685V687ZM83 690V707H85V690H83ZM102 706H84V708H102V706ZM101 690V707H103V690H101Z" fill="black" mask="url(#path-94-inside-21_0_1)"/>
</g>
</g>
<rect id="Table_21" x="62.5" y="654.5" width="62" height="28" fill="#6EB9E3" stroke="black"/>
</g>
<g id="Desk27">
<g id="Chair_22">
<rect id="Seat_22" x="0.5" y="-0.5" width="19" height="15" transform="matrix(1 0 0 -1 269 569)" fill="#6EB9E3" stroke="black"/>
<g id="Support_22">
<mask id="path-98-inside-22_0_1" fill="white">
<path fill-rule="evenodd" clip-rule="evenodd" d="M288 573C288 575.209 289.791 577 292 577C294.209 577 296 575.209 296 573V552C296 549.791 294.209 548 292 548H266C263.791 548 262 549.791 262 552V573C262 575.209 263.791 577 266 577C268.209 577 270 575.209 270 573V556H288V573Z"/>
</mask>
<path fill-rule="evenodd" clip-rule="evenodd" d="M288 573C288 575.209 289.791 577 292 577C294.209 577 296 575.209 296 573V552C296 549.791 294.209 548 292 548H266C263.791 548 262 549.791 262 552V573C262 575.209 263.791 577 266 577C268.209 577 270 575.209 270 573V556H288V573Z" fill="#6EB9E3"/>
<path d="M270 556H269V555H270V556ZM288 556V555H289V556H288ZM292 578C289.239 578 287 575.761 287 573H289C289 574.657 290.343 576 292 576V578ZM297 573C297 575.761 294.761 578 292 578V576C293.657 576 295 574.657 295 573H297ZM297 552V573H295V552H297ZM292 547C294.761 547 297 549.239 297 552H295C295 550.343 293.657 549 292 549V547ZM266 547H292V549H266V547ZM261 552C261 549.239 263.239 547 266 547V549C264.343 549 263 550.343 263 552H261ZM263 552V573H261V552H263ZM263 573C263 574.657 264.343 576 266 576V578C263.239 578 261 575.761 261 573H263ZM266 576C267.657 576 269 574.657 269 573H271C271 575.761 268.761 578 266 578V576ZM269 573V556H271V573H269ZM288 557H270V555H288V557ZM287 573V556H289V573H287Z" fill="black" mask="url(#path-98-inside-22_0_1)"/>
</g>
</g>
<rect id="Table_22" x="0.5" y="-0.5" width="62" height="28" transform="matrix(1 0 0 -1 248 608)" fill="#6EB9E3" stroke="black"/>
</g>
<g id="Desk26">
<g id="Chair_23">
<rect id="Seat_23" x="0.5" y="-0.5" width="19" height="15" transform="matrix(1 0 0 -1 176 569)" fill="#6EB9E3" stroke="black"/>
<g id="Support_23">
<mask id="path-102-inside-23_0_1" fill="white">
<path fill-rule="evenodd" clip-rule="evenodd" d="M195 573C195 575.209 196.791 577 199 577C201.209 577 203 575.209 203 573V552C203 549.791 201.209 548 199 548H173C170.791 548 169 549.791 169 552V573C169 575.209 170.791 577 173 577C175.209 577 177 575.209 177 573V556H195V573Z"/>
</mask>
<path fill-rule="evenodd" clip-rule="evenodd" d="M195 573C195 575.209 196.791 577 199 577C201.209 577 203 575.209 203 573V552C203 549.791 201.209 548 199 548H173C170.791 548 169 549.791 169 552V573C169 575.209 170.791 577 173 577C175.209 577 177 575.209 177 573V556H195V573Z" fill="#6EB9E3"/>
<path d="M177 556H176V555H177V556ZM195 556V555H196V556H195ZM199 578C196.239 578 194 575.761 194 573H196C196 574.657 197.343 576 199 576V578ZM204 573C204 575.761 201.761 578 199 578V576C200.657 576 202 574.657 202 573H204ZM204 552V573H202V552H204ZM199 547C201.761 547 204 549.239 204 552H202C202 550.343 200.657 549 199 549V547ZM173 547H199V549H173V547ZM168 552C168 549.239 170.239 547 173 547V549C171.343 549 170 550.343 170 552H168ZM170 552V573H168V552H170ZM170 573C170 574.657 171.343 576 173 576V578C170.239 578 168 575.761 168 573H170ZM173 576C174.657 576 176 574.657 176 573H178C178 575.761 175.761 578 173 578V576ZM176 573V556H178V573H176ZM195 557H177V555H195V557ZM194 573V556H196V573H194Z" fill="black" mask="url(#path-102-inside-23_0_1)"/>
</g>
</g>
<rect id="Table_23" x="0.5" y="-0.5" width="62" height="28" transform="matrix(1 0 0 -1 155 608)" fill="#6EB9E3" stroke="black"/>
</g>
<g id="Desk25">
<g id="Chair_24">
<rect id="Seat_24" x="0.5" y="-0.5" width="19" height="15" transform="matrix(1 0 0 -1 83 569)" fill="#6EB9E3" stroke="black"/>
<g id="Support_24">
<mask id="path-106-inside-24_0_1" fill="white">
<path fill-rule="evenodd" clip-rule="evenodd" d="M102 573C102 575.209 103.791 577 106 577C108.209 577 110 575.209 110 573V552C110 549.791 108.209 548 106 548H80C77.7909 548 76 549.791 76 552V573C76 575.209 77.7909 577 80 577C82.2091 577 84 575.209 84 573V556H102V573Z"/>
</mask>
<path fill-rule="evenodd" clip-rule="evenodd" d="M102 573C102 575.209 103.791 577 106 577C108.209 577 110 575.209 110 573V552C110 549.791 108.209 548 106 548H80C77.7909 548 76 549.791 76 552V573C76 575.209 77.7909 577 80 577C82.2091 577 84 575.209 84 573V556H102V573Z" fill="#6EB9E3"/>
<path d="M84 556H83V555H84V556ZM102 556V555H103V556H102ZM106 578C103.239 578 101 575.761 101 573H103C103 574.657 104.343 576 106 576V578ZM111 573C111 575.761 108.761 578 106 578V576C107.657 576 109 574.657 109 573H111ZM111 552V573H109V552H111ZM106 547C108.761 547 111 549.239 111 552H109C109 550.343 107.657 549 106 549V547ZM80 547H106V549H80V547ZM75 552C75 549.239 77.2386 547 80 547V549C78.3431 549 77 550.343 77 552H75ZM77 552V573H75V552H77ZM77 573C77 574.657 78.3431 576 80 576V578C77.2386 578 75 575.761 75 573H77ZM80 576C81.6569 576 83 574.657 83 573H85C85 575.761 82.7614 578 80 578V576ZM83 573V556H85V573H83ZM102 557H84V555H102V557ZM101 573V556H103V573H101Z" fill="black" mask="url(#path-106-inside-24_0_1)"/>
</g>
</g>
<rect id="Table_24" x="0.5" y="-0.5" width="62" height="28" transform="matrix(1 0 0 -1 62 608)" fill="#6EB9E3" stroke="black"/>
</g>
</g>
<g id="Cluster_D">
<path id="Divider_horizontal_5" d="M425 383H730.5" stroke="#AFAFAF" stroke-width="0.5"/>
<path id="Divider_left_5" d="M532 322L532 438" stroke="#AFAFAF" stroke-width="0.5"/>
<path id="Divider_right_5" d="M625 322L625 438" stroke="#AFAFAF" stroke-width="0.5"/>
<g id="Desk24">
<g id="Chair_25">
<rect id="Seat_25" x="661.5" y="445.5" width="19" height="15" fill="#6EB9E3" stroke="black"/>
<g id="Support_25">
<mask id="path-113-inside-25_0_1" fill="white">
<path fill-rule="evenodd" clip-rule="evenodd" d="M680 442C680 439.791 681.791 438 684 438C686.209 438 688 439.791 688 442V463C688 465.209 686.209 467 684 467H658C655.791 467 654 465.209 654 463V442C654 439.791 655.791 438 658 438C660.209 438 662 439.791 662 442V459H680V442Z"/>
</mask>
<path fill-rule="evenodd" clip-rule="evenodd" d="M680 442C680 439.791 681.791 438 684 438C686.209 438 688 439.791 688 442V463C688 465.209 686.209 467 684 467H658C655.791 467 654 465.209 654 463V442C654 439.791 655.791 438 658 438C660.209 438 662 439.791 662 442V459H680V442Z" fill="#6EB9E3"/>
<path d="M662 459H661V460H662V459ZM680 459V460H681V459H680ZM684 437C681.239 437 679 439.239 679 442H681C681 440.343 682.343 439 684 439V437ZM689 442C689 439.239 686.761 437 684 437V439C685.657 439 687 440.343 687 442H689ZM689 463V442H687V463H689ZM684 468C686.761 468 689 465.761 689 463H687C687 464.657 685.657 466 684 466V468ZM658 468H684V466H658V468ZM653 463C653 465.761 655.239 468 658 468V466C656.343 466 655 464.657 655 463H653ZM655 463V442H653V463H655ZM655 442C655 440.343 656.343 439 658 439V437C655.239 437 653 439.239 653 442H655ZM658 439C659.657 439 661 440.343 661 442H663C663 439.239 660.761 437 658 437V439ZM661 442V459H663V442H661ZM680 458H662V460H680V458ZM679 442V459H681V442H679Z" fill="black" mask="url(#path-113-inside-25_0_1)"/>
</g>
</g>
<rect id="Table_25" x="640.5" y="406.5" width="62" height="28" fill="#6EB9E3" stroke="black"/>
</g>
<g id="Desk23">
<g id="Chair_26">
<rect id="Seat_26" x="568.5" y="445.5" width="19" height="15" fill="#6EB9E3" stroke="black"/>
<g id="Support_26">
<mask id="path-117-inside-26_0_1" fill="white">
<path fill-rule="evenodd" clip-rule="evenodd" d="M587 442C587 439.791 588.791 438 591 438C593.209 438 595 439.791 595 442V463C595 465.209 593.209 467 591 467H565C562.791 467 561 465.209 561 463V442C561 439.791 562.791 438 565 438C567.209 438 569 439.791 569 442V459H587V442Z"/>
</mask>
<path fill-rule="evenodd" clip-rule="evenodd" d="M587 442C587 439.791 588.791 438 591 438C593.209 438 595 439.791 595 442V463C595 465.209 593.209 467 591 467H565C562.791 467 561 465.209 561 463V442C561 439.791 562.791 438 565 438C567.209 438 569 439.791 569 442V459H587V442Z" fill="#6EB9E3"/>
<path d="M569 459H568V460H569V459ZM587 459V460H588V459H587ZM591 437C588.239 437 586 439.239 586 442H588C588 440.343 589.343 439 591 439V437ZM596 442C596 439.239 593.761 437 591 437V439C592.657 439 594 440.343 594 442H596ZM596 463V442H594V463H596ZM591 468C593.761 468 596 465.761 596 463H594C594 464.657 592.657 466 591 466V468ZM565 468H591V466H565V468ZM560 463C560 465.761 562.239 468 565 468V466C563.343 466 562 464.657 562 463H560ZM562 463V442H560V463H562ZM562 442C562 440.343 563.343 439 565 439V437C562.239 437 560 439.239 560 442H562ZM565 439C566.657 439 568 440.343 568 442H570C570 439.239 567.761 437 565 437V439ZM568 442V459H570V442H568ZM587 458H569V460H587V458ZM586 442V459H588V442H586Z" fill="black" mask="url(#path-117-inside-26_0_1)"/>
</g>
</g>
<rect id="Table_26" x="547.5" y="406.5" width="62" height="28" fill="#6EB9E3" stroke="black"/>
</g>
<g id="Desk22">
<g id="Chair_27">
<rect id="Seat_27" x="475.5" y="445.5" width="19" height="15" fill="#6EB9E3" stroke="black"/>
<g id="Support_27">
<mask id="path-121-inside-27_0_1" fill="white">
<path fill-rule="evenodd" clip-rule="evenodd" d="M494 442C494 439.791 495.791 438 498 438C500.209 438 502 439.791 502 442V463C502 465.209 500.209 467 498 467H472C469.791 467 468 465.209 468 463V442C468 439.791 469.791 438 472 438C474.209 438 476 439.791 476 442V459H494V442Z"/>
</mask>
<path fill-rule="evenodd" clip-rule="evenodd" d="M494 442C494 439.791 495.791 438 498 438C500.209 438 502 439.791 502 442V463C502 465.209 500.209 467 498 467H472C469.791 467 468 465.209 468 463V442C468 439.791 469.791 438 472 438C474.209 438 476 439.791 476 442V459H494V442Z" fill="#6EB9E3"/>
<path d="M476 459H475V460H476V459ZM494 459V460H495V459H494ZM498 437C495.239 437 493 439.239 493 442H495C495 440.343 496.343 439 498 439V437ZM503 442C503 439.239 500.761 437 498 437V439C499.657 439 501 440.343 501 442H503ZM503 463V442H501V463H503ZM498 468C500.761 468 503 465.761 503 463H501C501 464.657 499.657 466 498 466V468ZM472 468H498V466H472V468ZM467 463C467 465.761 469.239 468 472 468V466C470.343 466 469 464.657 469 463H467ZM469 463V442H467V463H469ZM469 442C469 440.343 470.343 439 472 439V437C469.239 437 467 439.239 467 442H469ZM472 439C473.657 439 475 440.343 475 442H477C477 439.239 474.761 437 472 437V439ZM475 442V459H477V442H475ZM494 458H476V460H494V458ZM493 442V459H495V442H493Z" fill="black" mask="url(#path-121-inside-27_0_1)"/>
</g>
</g>
<rect id="Table_27" x="454.5" y="406.5" width="62" height="28" fill="#6EB9E3" stroke="black"/>
</g>
<g id="Desk21">
<g id="Chair_28">
<rect id="Seat_28" x="0.5" y="-0.5" width="19" height="15" transform="matrix(1 0 0 -1 661 321)" fill="#6EB9E3" stroke="black"/>
<g id="Support_28">
<mask id="path-125-inside-28_0_1" fill="white">
<path fill-rule="evenodd" clip-rule="evenodd" d="M680 325C680 327.209 681.791 329 684 329C686.209 329 688 327.209 688 325V304C688 301.791 686.209 300 684 300H658C655.791 300 654 301.791 654 304V325C654 327.209 655.791 329 658 329C660.209 329 662 327.209 662 325V308H680V325Z"/>
</mask>
<path fill-rule="evenodd" clip-rule="evenodd" d="M680 325C680 327.209 681.791 329 684 329C686.209 329 688 327.209 688 325V304C688 301.791 686.209 300 684 300H658C655.791 300 654 301.791 654 304V325C654 327.209 655.791 329 658 329C660.209 329 662 327.209 662 325V308H680V325Z" fill="#6EB9E3"/>
<path d="M662 308H661V307H662V308ZM680 308V307H681V308H680ZM684 330C681.239 330 679 327.761 679 325H681C681 326.657 682.343 328 684 328V330ZM689 325C689 327.761 686.761 330 684 330V328C685.657 328 687 326.657 687 325H689ZM689 304V325H687V304H689ZM684 299C686.761 299 689 301.239 689 304H687C687 302.343 685.657 301 684 301V299ZM658 299H684V301H658V299ZM653 304C653 301.239 655.239 299 658 299V301C656.343 301 655 302.343 655 304H653ZM655 304V325H653V304H655ZM655 325C655 326.657 656.343 328 658 328V330C655.239 330 653 327.761 653 325H655ZM658 328C659.657 328 661 326.657 661 325H663C663 327.761 660.761 330 658 330V328ZM661 325V308H663V325H661ZM680 309H662V307H680V309ZM679 325V308H681V325H679Z" fill="black" mask="url(#path-125-inside-28_0_1)"/>
</g>
</g>
<rect id="Table_28" x="0.5" y="-0.5" width="62" height="28" transform="matrix(1 0 0 -1 640 360)" fill="#6EB9E3" stroke="black"/>
</g>
<g id="Desk20">
<g id="Chair_29">
<rect id="Seat_29" x="0.5" y="-0.5" width="19" height="15" transform="matrix(1 0 0 -1 568 321)" fill="#6EB9E3" stroke="black"/>
<g id="Support_29">
<mask id="path-129-inside-29_0_1" fill="white">
<path fill-rule="evenodd" clip-rule="evenodd" d="M587 325C587 327.209 588.791 329 591 329C593.209 329 595 327.209 595 325V304C595 301.791 593.209 300 591 300H565C562.791 300 561 301.791 561 304V325C561 327.209 562.791 329 565 329C567.209 329 569 327.209 569 325V308H587V325Z"/>
</mask>
<path fill-rule="evenodd" clip-rule="evenodd" d="M587 325C587 327.209 588.791 329 591 329C593.209 329 595 327.209 595 325V304C595 301.791 593.209 300 591 300H565C562.791 300 561 301.791 561 304V325C561 327.209 562.791 329 565 329C567.209 329 569 327.209 569 325V308H587V325Z" fill="#6EB9E3"/>
<path d="M569 308H568V307H569V308ZM587 308V307H588V308H587ZM591 330C588.239 330 586 327.761 586 325H588C588 326.657 589.343 328 591 328V330ZM596 325C596 327.761 593.761 330 591 330V328C592.657 328 594 326.657 594 325H596ZM596 304V325H594V304H596ZM591 299C593.761 299 596 301.239 596 304H594C594 302.343 592.657 301 591 301V299ZM565 299H591V301H565V299ZM560 304C560 301.239 562.239 299 565 299V301C563.343 301 562 302.343 562 304H560ZM562 304V325H560V304H562ZM562 325C562 326.657 563.343 328 565 328V330C562.239 330 560 327.761 560 325H562ZM565 328C566.657 328 568 326.657 568 325H570C570 327.761 567.761 330 565 330V328ZM568 325V308H570V325H568ZM587 309H569V307H587V309ZM586 325V308H588V325H586Z" fill="black" mask="url(#path-129-inside-29_0_1)"/>
</g>
</g>
<rect id="Table_29" x="0.5" y="-0.5" width="62" height="28" transform="matrix(1 0 0 -1 547 360)" fill="#6EB9E3" stroke="black"/>
</g>
<g id="Desk19">
<g id="Chair_30">
<rect id="Seat_30" x="0.5" y="-0.5" width="19" height="15" transform="matrix(1 0 0 -1 475 321)" fill="#6EB9E3" stroke="black"/>
<g id="Support_30">
<mask id="path-133-inside-30_0_1" fill="white">
<path fill-rule="evenodd" clip-rule="evenodd" d="M494 325C494 327.209 495.791 329 498 329C500.209 329 502 327.209 502 325V304C502 301.791 500.209 300 498 300H472C469.791 300 468 301.791 468 304V325C468 327.209 469.791 329 472 329C474.209 329 476 327.209 476 325V308H494V325Z"/>
</mask>
<path fill-rule="evenodd" clip-rule="evenodd" d="M494 325C494 327.209 495.791 329 498 329C500.209 329 502 327.209 502 325V304C502 301.791 500.209 300 498 300H472C469.791 300 468 301.791 468 304V325C468 327.209 469.791 329 472 329C474.209 329 476 327.209 476 325V308H494V325Z" fill="#6EB9E3"/>
<path d="M476 308H475V307H476V308ZM494 308V307H495V308H494ZM498 330C495.239 330 493 327.761 493 325H495C495 326.657 496.343 328 498 328V330ZM503 325C503 327.761 500.761 330 498 330V328C499.657 328 501 326.657 501 325H503ZM503 304V325H501V304H503ZM498 299C500.761 299 503 301.239 503 304H501C501 302.343 499.657 301 498 301V299ZM472 299H498V301H472V299ZM467 304C467 301.239 469.239 299 472 299V301C470.343 301 469 302.343 469 304H467ZM469 304V325H467V304H469ZM469 325C469 326.657 470.343 328 472 328V330C469.239 330 467 327.761 467 325H469ZM472 328C473.657 328 475 326.657 475 325H477C477 327.761 474.761 330 472 330V328ZM475 325V308H477V325H475ZM494 309H476V307H494V309ZM493 325V308H495V325H493Z" fill="black" mask="url(#path-133-inside-30_0_1)"/>
</g>
</g>
<rect id="Table_30" x="0.5" y="-0.5" width="62" height="28" transform="matrix(1 0 0 -1 454 360)" fill="#6EB9E3" stroke="black"/>
</g>
</g>
<g id="Cluster_C">
<path id="Divider_horizontal_6" d="M33 383L338.5 383" stroke="#AFAFAF" stroke-width="0.5"/>
<path id="Divider_left_6" d="M140 322L140 438" stroke="#AFAFAF" stroke-width="0.5"/>
<path id="Divider_right_6" d="M233 322L233 438" stroke="#AFAFAF" stroke-width="0.5"/>
<g id="Desk18">
<g id="Chair_31">
<rect id="Seat_31" x="269.5" y="445.5" width="19" height="15" fill="#6EB9E3" stroke="black"/>
<g id="Support_31">
<mask id="path-140-inside-31_0_1" fill="white">
<path fill-rule="evenodd" clip-rule="evenodd" d="M288 442C288 439.791 289.791 438 292 438C294.209 438 296 439.791 296 442V463C296 465.209 294.209 467 292 467H266C263.791 467 262 465.209 262 463V442C262 439.791 263.791 438 266 438C268.209 438 270 439.791 270 442V459H288V442Z"/>
</mask>
<path fill-rule="evenodd" clip-rule="evenodd" d="M288 442C288 439.791 289.791 438 292 438C294.209 438 296 439.791 296 442V463C296 465.209 294.209 467 292 467H266C263.791 467 262 465.209 262 463V442C262 439.791 263.791 438 266 438C268.209 438 270 439.791 270 442V459H288V442Z" fill="#6EB9E3"/>
<path d="M270 459H269V460H270V459ZM288 459V460H289V459H288ZM292 437C289.239 437 287 439.239 287 442H289C289 440.343 290.343 439 292 439V437ZM297 442C297 439.239 294.761 437 292 437V439C293.657 439 295 440.343 295 442H297ZM297 463V442H295V463H297ZM292 468C294.761 468 297 465.761 297 463H295C295 464.657 293.657 466 292 466V468ZM266 468H292V466H266V468ZM261 463C261 465.761 263.239 468 266 468V466C264.343 466 263 464.657 263 463H261ZM263 463V442H261V463H263ZM263 442C263 440.343 264.343 439 266 439V437C263.239 437 261 439.239 261 442H263ZM266 439C267.657 439 269 440.343 269 442H271C271 439.239 268.761 437 266 437V439ZM269 442V459H271V442H269ZM288 458H270V460H288V458ZM287 442V459H289V442H287Z" fill="black" mask="url(#path-140-inside-31_0_1)"/>
</g>
</g>
<rect id="Table_31" x="248.5" y="406.5" width="62" height="28" fill="#6EB9E3" stroke="black"/>
</g>
<g id="Desk17">
<g id="Chair_32">
<rect id="Seat_32" x="176.5" y="445.5" width="19" height="15" fill="#6EB9E3" stroke="black"/>
<g id="Support_32">
<mask id="path-144-inside-32_0_1" fill="white">
<path fill-rule="evenodd" clip-rule="evenodd" d="M195 442C195 439.791 196.791 438 199 438C201.209 438 203 439.791 203 442V463C203 465.209 201.209 467 199 467H173C170.791 467 169 465.209 169 463V442C169 439.791 170.791 438 173 438C175.209 438 177 439.791 177 442V459H195V442Z"/>
</mask>
<path fill-rule="evenodd" clip-rule="evenodd" d="M195 442C195 439.791 196.791 438 199 438C201.209 438 203 439.791 203 442V463C203 465.209 201.209 467 199 467H173C170.791 467 169 465.209 169 463V442C169 439.791 170.791 438 173 438C175.209 438 177 439.791 177 442V459H195V442Z" fill="#6EB9E3"/>
<path d="M177 459H176V460H177V459ZM195 459V460H196V459H195ZM199 437C196.239 437 194 439.239 194 442H196C196 440.343 197.343 439 199 439V437ZM204 442C204 439.239 201.761 437 199 437V439C200.657 439 202 440.343 202 442H204ZM204 463V442H202V463H204ZM199 468C201.761 468 204 465.761 204 463H202C202 464.657 200.657 466 199 466V468ZM173 468H199V466H173V468ZM168 463C168 465.761 170.239 468 173 468V466C171.343 466 170 464.657 170 463H168ZM170 463V442H168V463H170ZM170 442C170 440.343 171.343 439 173 439V437C170.239 437 168 439.239 168 442H170ZM173 439C174.657 439 176 440.343 176 442H178C178 439.239 175.761 437 173 437V439ZM176 442V459H178V442H176ZM195 458H177V460H195V458ZM194 442V459H196V442H194Z" fill="black" mask="url(#path-144-inside-32_0_1)"/>
</g>
</g>
<rect id="Table_32" x="155.5" y="406.5" width="62" height="28" fill="#6EB9E3" stroke="black"/>
</g>
<g id="Desk16">
<g id="Chair_33">
<rect id="Seat_33" x="83.5" y="445.5" width="19" height="15" fill="#6EB9E3" stroke="black"/>
<g id="Support_33">
<mask id="path-148-inside-33_0_1" fill="white">
<path fill-rule="evenodd" clip-rule="evenodd" d="M102 442C102 439.791 103.791 438 106 438C108.209 438 110 439.791 110 442V463C110 465.209 108.209 467 106 467H80C77.7909 467 76 465.209 76 463V442C76 439.791 77.7909 438 80 438C82.2091 438 84 439.791 84 442V459H102V442Z"/>
</mask>
<path fill-rule="evenodd" clip-rule="evenodd" d="M102 442C102 439.791 103.791 438 106 438C108.209 438 110 439.791 110 442V463C110 465.209 108.209 467 106 467H80C77.7909 467 76 465.209 76 463V442C76 439.791 77.7909 438 80 438C82.2091 438 84 439.791 84 442V459H102V442Z" fill="#6EB9E3"/>
<path d="M84 459H83V460H84V459ZM102 459V460H103V459H102ZM106 437C103.239 437 101 439.239 101 442H103C103 440.343 104.343 439 106 439V437ZM111 442C111 439.239 108.761 437 106 437V439C107.657 439 109 440.343 109 442H111ZM111 463V442H109V463H111ZM106 468C108.761 468 111 465.761 111 463H109C109 464.657 107.657 466 106 466V468ZM80 468H106V466H80V468ZM75 463C75 465.761 77.2386 468 80 468V466C78.3431 466 77 464.657 77 463H75ZM77 463V442H75V463H77ZM77 442C77 440.343 78.3431 439 80 439V437C77.2386 437 75 439.239 75 442H77ZM80 439C81.6569 439 83 440.343 83 442H85C85 439.239 82.7614 437 80 437V439ZM83 442V459H85V442H83ZM102 458H84V460H102V458ZM101 442V459H103V442H101Z" fill="black" mask="url(#path-148-inside-33_0_1)"/>
</g>
</g>
<rect id="Table_33" x="62.5" y="406.5" width="62" height="28" fill="#6EB9E3" stroke="black"/>
</g>
<g id="Desk15">
<g id="Chair_34">
<rect id="Seat_34" x="0.5" y="-0.5" width="19" height="15" transform="matrix(1 0 0 -1 269 321)" fill="#6EB9E3" stroke="black"/>
<g id="Support_34">
<mask id="path-152-inside-34_0_1" fill="white">
<path fill-rule="evenodd" clip-rule="evenodd" d="M288 325C288 327.209 289.791 329 292 329C294.209 329 296 327.209 296 325L296 304C296 301.791 294.209 300 292 300L266 300C263.791 300 262 301.791 262 304L262 325C262 327.209 263.791 329 266 329C268.209 329 270 327.209 270 325L270 308L288 308L288 325Z"/>
</mask>
<path fill-rule="evenodd" clip-rule="evenodd" d="M288 325C288 327.209 289.791 329 292 329C294.209 329 296 327.209 296 325L296 304C296 301.791 294.209 300 292 300L266 300C263.791 300 262 301.791 262 304L262 325C262 327.209 263.791 329 266 329C268.209 329 270 327.209 270 325L270 308L288 308L288 325Z" fill="#6EB9E3"/>
<path d="M288 325H287H288ZM296 325H295H296ZM296 304H297H296ZM292 300V301V300ZM266 300V299V300ZM262 304H263H262ZM262 325H261H262ZM270 325H269H270ZM270 308H269V307H270V308ZM288 308V307H289V308H288ZM292 330C289.239 330 287 327.761 287 325H289C289 326.657 290.343 328 292 328V330ZM297 325C297 327.761 294.761 330 292 330V328C293.657 328 295 326.657 295 325H297ZM297 304L297 325H295L295 304H297ZM292 299C294.761 299 297 301.239 297 304H295C295 302.343 293.657 301 292 301V299ZM266 299L292 299V301L266 301V299ZM261 304C261 301.239 263.239 299 266 299V301C264.343 301 263 302.343 263 304H261ZM263 304L263 325L261 325L261 304H263ZM263 325C263 326.657 264.343 328 266 328V330C263.239 330 261 327.761 261 325H263ZM266 328C267.657 328 269 326.657 269 325H271C271 327.761 268.761 330 266 330V328ZM269 325L269 308H271L271 325H269ZM288 309L270 309V307L288 307V309ZM287 325L287 308H289L289 325L287 325Z" fill="black" mask="url(#path-152-inside-34_0_1)"/>
</g>
</g>
<rect id="Table_34" x="0.5" y="-0.5" width="62" height="28" transform="matrix(1 0 0 -1 248 360)" fill="#6EB9E3" stroke="black"/>
</g>
<g id="Desk14">
<g id="Chair_35">
<rect id="Seat_35" x="0.5" y="-0.5" width="19" height="15" transform="matrix(1 0 0 -1 176 321)" fill="#6EB9E3" stroke="black"/>
<g id="Support_35">
<mask id="path-156-inside-35_0_1" fill="white">
<path fill-rule="evenodd" clip-rule="evenodd" d="M195 325C195 327.209 196.791 329 199 329C201.209 329 203 327.209 203 325L203 304C203 301.791 201.209 300 199 300H173C170.791 300 169 301.791 169 304L169 325C169 327.209 170.791 329 173 329C175.209 329 177 327.209 177 325L177 308H195L195 325Z"/>
</mask>
<path fill-rule="evenodd" clip-rule="evenodd" d="M195 325C195 327.209 196.791 329 199 329C201.209 329 203 327.209 203 325L203 304C203 301.791 201.209 300 199 300H173C170.791 300 169 301.791 169 304L169 325C169 327.209 170.791 329 173 329C175.209 329 177 327.209 177 325L177 308H195L195 325Z" fill="#6EB9E3"/>
<path d="M195 325H194H195ZM203 325H202H203ZM203 304H204H203ZM169 304H170H169ZM169 325L168 325L169 325ZM177 325H176H177ZM177 308H176V307H177V308ZM195 308V307H196V308H195ZM199 330C196.239 330 194 327.761 194 325H196C196 326.657 197.343 328 199 328V330ZM204 325C204 327.761 201.761 330 199 330V328C200.657 328 202 326.657 202 325H204ZM204 304L204 325H202L202 304H204ZM199 299C201.761 299 204 301.239 204 304H202C202 302.343 200.657 301 199 301V299ZM173 299H199V301H173V299ZM168 304C168 301.239 170.239 299 173 299V301C171.343 301 170 302.343 170 304H168ZM170 304L170 325L168 325L168 304H170ZM170 325C170 326.657 171.343 328 173 328V330C170.239 330 168 327.761 168 325H170ZM173 328C174.657 328 176 326.657 176 325H178C178 327.761 175.761 330 173 330V328ZM176 325L176 308H178L178 325H176ZM195 309H177V307H195V309ZM194 325L194 308H196L196 325L194 325Z" fill="black" mask="url(#path-156-inside-35_0_1)"/>
</g>
</g>
<rect id="Table_35" x="0.5" y="-0.5" width="62" height="28" transform="matrix(1 0 0 -1 155 360)" fill="#6EB9E3" stroke="black"/>
</g>
<g id="Desk13">
<g id="Chair_36">
<rect id="Seat_36" x="0.5" y="-0.5" width="19" height="15" transform="matrix(1 0 0 -1 83 321)" fill="#6EB9E3" stroke="black"/>
<g id="Support_36">
<mask id="path-160-inside-36_0_1" fill="white">
<path fill-rule="evenodd" clip-rule="evenodd" d="M102 325C102 327.209 103.791 329 106 329C108.209 329 110 327.209 110 325L110 304C110 301.791 108.209 300 106 300H80C77.7909 300 76 301.791 76 304L76 325C76 327.209 77.7909 329 80 329C82.2091 329 84 327.209 84 325L84 308H102L102 325Z"/>
</mask>
<path fill-rule="evenodd" clip-rule="evenodd" d="M102 325C102 327.209 103.791 329 106 329C108.209 329 110 327.209 110 325L110 304C110 301.791 108.209 300 106 300H80C77.7909 300 76 301.791 76 304L76 325C76 327.209 77.7909 329 80 329C82.2091 329 84 327.209 84 325L84 308H102L102 325Z" fill="#6EB9E3"/>
<path d="M102 325H101H102ZM110 325H109H110ZM110 304H111H110ZM76 304H77H76ZM76 325L75 325L76 325ZM84 325H83H84ZM84 308H83V307H84V308ZM102 308V307H103V308H102ZM106 330C103.239 330 101 327.761 101 325H103C103 326.657 104.343 328 106 328V330ZM111 325C111 327.761 108.761 330 106 330V328C107.657 328 109 326.657 109 325H111ZM111 304L111 325H109L109 304H111ZM106 299C108.761 299 111 301.239 111 304H109C109 302.343 107.657 301 106 301V299ZM80 299H106V301H80V299ZM75 304C75 301.239 77.2386 299 80 299V301C78.3431 301 77 302.343 77 304H75ZM77 304L77 325L75 325L75 304H77ZM77 325C77 326.657 78.3431 328 80 328V330C77.2386 330 75 327.761 75 325H77ZM80 328C81.6569 328 83 326.657 83 325H85C85 327.761 82.7614 330 80 330V328ZM83 325L83 308H85L85 325H83ZM102 309H84V307H102V309ZM101 325L101 308H103L103 325L101 325Z" fill="black" mask="url(#path-160-inside-36_0_1)"/>
</g>
</g>
<rect id="Table_36" x="0.5" y="-0.5" width="62" height="28" transform="matrix(1 0 0 -1 62 360)" fill="#6EB9E3" stroke="black"/>
</g>
</g>
<g id="Cluster_B">
<path id="Divider_horizontal_7" d="M730.5 138L425 138" stroke="#AFAFAF" stroke-width="0.5"/>
<path id="Divider_left_7" d="M623.5 199L623.5 83" stroke="#AFAFAF" stroke-width="0.5"/>
<path id="Divider_right_7" d="M530.5 199L530.5 83" stroke="#AFAFAF" stroke-width="0.5"/>
<g id="Desk12">
<g id="Chair_37">
<rect id="Seat_37" x="-0.5" y="0.5" width="19" height="15" transform="matrix(-1 0 0 1 679.5 199)" fill="#6EB9E3" stroke="black"/>
<g id="Support_37">
<mask id="path-167-inside-37_0_1" fill="white">
<path fill-rule="evenodd" clip-rule="evenodd" d="M661.5 196C661.5 193.791 659.709 192 657.5 192C655.291 192 653.5 193.791 653.5 196V217C653.5 219.209 655.291 221 657.5 221L683.5 221C685.709 221 687.5 219.209 687.5 217V196C687.5 193.791 685.709 192 683.5 192C681.291 192 679.5 193.791 679.5 196V213L661.5 213V196Z"/>
</mask>
<path fill-rule="evenodd" clip-rule="evenodd" d="M661.5 196C661.5 193.791 659.709 192 657.5 192C655.291 192 653.5 193.791 653.5 196V217C653.5 219.209 655.291 221 657.5 221L683.5 221C685.709 221 687.5 219.209 687.5 217V196C687.5 193.791 685.709 192 683.5 192C681.291 192 679.5 193.791 679.5 196V213L661.5 213V196Z" fill="#6EB9E3"/>
<path d="M679.5 213H680.5V214H679.5V213ZM661.5 213V214H660.5V213H661.5ZM657.5 191C660.261 191 662.5 193.239 662.5 196H660.5C660.5 194.343 659.157 193 657.5 193V191ZM652.5 196C652.5 193.239 654.739 191 657.5 191V193C655.843 193 654.5 194.343 654.5 196H652.5ZM652.5 217V196H654.5V217H652.5ZM657.5 222C654.739 222 652.5 219.761 652.5 217H654.5C654.5 218.657 655.843 220 657.5 220V222ZM683.5 222L657.5 222V220L683.5 220V222ZM688.5 217C688.5 219.761 686.261 222 683.5 222V220C685.157 220 686.5 218.657 686.5 217H688.5ZM686.5 217V196H688.5V217H686.5ZM686.5 196C686.5 194.343 685.157 193 683.5 193V191C686.261 191 688.5 193.239 688.5 196H686.5ZM683.5 193C681.843 193 680.5 194.343 680.5 196H678.5C678.5 193.239 680.739 191 683.5 191V193ZM680.5 196V213H678.5V196H680.5ZM661.5 212L679.5 212V214L661.5 214V212ZM662.5 196V213H660.5V196H662.5Z" fill="black" mask="url(#path-167-inside-37_0_1)"/>
</g>
</g>
<rect id="Table_37" x="-0.5" y="0.5" width="62" height="28" transform="matrix(-1 0 0 1 700.5 160)" fill="#6EB9E3" stroke="black"/>
</g>
<g id="Desk11">
<g id="Chair_38">
<rect id="Seat_38" x="-0.5" y="0.5" width="19" height="15" transform="matrix(-1 0 0 1 586.5 199)" fill="#6EB9E3" stroke="black"/>
<g id="Support_38">
<mask id="path-171-inside-38_0_1" fill="white">
<path fill-rule="evenodd" clip-rule="evenodd" d="M568.5 196C568.5 193.791 566.709 192 564.5 192C562.291 192 560.5 193.791 560.5 196V217C560.5 219.209 562.291 221 564.5 221L590.5 221C592.709 221 594.5 219.209 594.5 217V196C594.5 193.791 592.709 192 590.5 192C588.291 192 586.5 193.791 586.5 196V213L568.5 213V196Z"/>
</mask>
<path fill-rule="evenodd" clip-rule="evenodd" d="M568.5 196C568.5 193.791 566.709 192 564.5 192C562.291 192 560.5 193.791 560.5 196V217C560.5 219.209 562.291 221 564.5 221L590.5 221C592.709 221 594.5 219.209 594.5 217V196C594.5 193.791 592.709 192 590.5 192C588.291 192 586.5 193.791 586.5 196V213L568.5 213V196Z" fill="#6EB9E3"/>
<path d="M586.5 213H587.5V214H586.5V213ZM568.5 213V214H567.5V213H568.5ZM564.5 191C567.261 191 569.5 193.239 569.5 196H567.5C567.5 194.343 566.157 193 564.5 193V191ZM559.5 196C559.5 193.239 561.739 191 564.5 191V193C562.843 193 561.5 194.343 561.5 196H559.5ZM559.5 217V196H561.5V217H559.5ZM564.5 222C561.739 222 559.5 219.761 559.5 217H561.5C561.5 218.657 562.843 220 564.5 220V222ZM590.5 222L564.5 222V220L590.5 220V222ZM595.5 217C595.5 219.761 593.261 222 590.5 222V220C592.157 220 593.5 218.657 593.5 217H595.5ZM593.5 217V196H595.5V217H593.5ZM593.5 196C593.5 194.343 592.157 193 590.5 193V191C593.261 191 595.5 193.239 595.5 196H593.5ZM590.5 193C588.843 193 587.5 194.343 587.5 196H585.5C585.5 193.239 587.739 191 590.5 191V193ZM587.5 196V213H585.5V196H587.5ZM568.5 212L586.5 212V214L568.5 214V212ZM569.5 196V213H567.5V196H569.5Z" fill="black" mask="url(#path-171-inside-38_0_1)"/>
</g>
</g>
<rect id="Table_38" x="-0.5" y="0.5" width="62" height="28" transform="matrix(-1 0 0 1 607.5 160)" fill="#6EB9E3" stroke="black"/>
</g>
<g id="Desk10">
<g id="Chair_39">
<rect id="Seat_39" x="-0.5" y="0.5" width="19" height="15" transform="matrix(-1 0 0 1 493.5 199)" fill="#6EB9E3" stroke="black"/>
<g id="Support_39">
<mask id="path-175-inside-39_0_1" fill="white">
<path fill-rule="evenodd" clip-rule="evenodd" d="M475.5 196C475.5 193.791 473.709 192 471.5 192C469.291 192 467.5 193.791 467.5 196V217C467.5 219.209 469.291 221 471.5 221L497.5 221C499.709 221 501.5 219.209 501.5 217V196C501.5 193.791 499.709 192 497.5 192C495.291 192 493.5 193.791 493.5 196V213L475.5 213V196Z"/>
</mask>
<path fill-rule="evenodd" clip-rule="evenodd" d="M475.5 196C475.5 193.791 473.709 192 471.5 192C469.291 192 467.5 193.791 467.5 196V217C467.5 219.209 469.291 221 471.5 221L497.5 221C499.709 221 501.5 219.209 501.5 217V196C501.5 193.791 499.709 192 497.5 192C495.291 192 493.5 193.791 493.5 196V213L475.5 213V196Z" fill="#6EB9E3"/>
<path d="M493.5 213H494.5V214H493.5V213ZM475.5 213V214H474.5V213H475.5ZM471.5 191C474.261 191 476.5 193.239 476.5 196H474.5C474.5 194.343 473.157 193 471.5 193V191ZM466.5 196C466.5 193.239 468.739 191 471.5 191V193C469.843 193 468.5 194.343 468.5 196H466.5ZM466.5 217V196H468.5V217H466.5ZM471.5 222C468.739 222 466.5 219.761 466.5 217H468.5C468.5 218.657 469.843 220 471.5 220V222ZM497.5 222L471.5 222V220L497.5 220V222ZM502.5 217C502.5 219.761 500.261 222 497.5 222V220C499.157 220 500.5 218.657 500.5 217H502.5ZM500.5 217V196H502.5V217H500.5ZM500.5 196C500.5 194.343 499.157 193 497.5 193V191C500.261 191 502.5 193.239 502.5 196H500.5ZM497.5 193C495.843 193 494.5 194.343 494.5 196H492.5C492.5 193.239 494.739 191 497.5 191V193ZM494.5 196V213H492.5V196H494.5ZM475.5 212L493.5 212V214L475.5 214V212ZM476.5 196V213H474.5V196H476.5Z" fill="black" mask="url(#path-175-inside-39_0_1)"/>
</g>
</g>
<rect id="Table_39" x="-0.5" y="0.5" width="62" height="28" transform="matrix(-1 0 0 1 514.5 160)" fill="#6EB9E3" stroke="black"/>
</g>
<g id="Desk9">
<g id="Chair_40">
<rect id="Seat_40" x="680" y="75.5" width="19" height="15" transform="rotate(180 680 75.5)" fill="#6EB9E3" stroke="black"/>
<g id="Support_40">
<mask id="path-179-inside-40_0_1" fill="white">
<path fill-rule="evenodd" clip-rule="evenodd" d="M661.5 79C661.5 81.2091 659.709 83 657.5 83C655.291 83 653.5 81.2091 653.5 79V58C653.5 55.7909 655.291 54 657.5 54L683.5 54C685.709 54 687.5 55.7909 687.5 58V79C687.5 81.2091 685.709 83 683.5 83C681.291 83 679.5 81.2091 679.5 79V62L661.5 62V79Z"/>
</mask>
<path fill-rule="evenodd" clip-rule="evenodd" d="M661.5 79C661.5 81.2091 659.709 83 657.5 83C655.291 83 653.5 81.2091 653.5 79V58C653.5 55.7909 655.291 54 657.5 54L683.5 54C685.709 54 687.5 55.7909 687.5 58V79C687.5 81.2091 685.709 83 683.5 83C681.291 83 679.5 81.2091 679.5 79V62L661.5 62V79Z" fill="#6EB9E3"/>
<path d="M679.5 62L680.5 62V61L679.5 61V62ZM661.5 62V61H660.5V62H661.5ZM657.5 84C660.261 84 662.5 81.7614 662.5 79H660.5C660.5 80.6569 659.157 82 657.5 82V84ZM652.5 79C652.5 81.7614 654.739 84 657.5 84V82C655.843 82 654.5 80.6569 654.5 79H652.5ZM652.5 58V79H654.5V58L652.5 58ZM657.5 53C654.739 53 652.5 55.2386 652.5 58L654.5 58C654.5 56.3431 655.843 55 657.5 55V53ZM683.5 53L657.5 53V55L683.5 55V53ZM688.5 58C688.5 55.2386 686.261 53 683.5 53V55C685.157 55 686.5 56.3431 686.5 58H688.5ZM686.5 58V79H688.5V58H686.5ZM686.5 79C686.5 80.6569 685.157 82 683.5 82V84C686.261 84 688.5 81.7614 688.5 79H686.5ZM683.5 82C681.843 82 680.5 80.6569 680.5 79H678.5C678.5 81.7614 680.739 84 683.5 84V82ZM680.5 79V62L678.5 62V79H680.5ZM661.5 63L679.5 63V61L661.5 61V63ZM662.5 79V62H660.5V79H662.5Z" fill="black" mask="url(#path-179-inside-40_0_1)"/>
</g>
</g>
<rect id="Table_40" x="701" y="114.5" width="62" height="28" transform="rotate(180 701 114.5)" fill="#6EB9E3" stroke="black"/>
</g>
<g id="Desk8">
<g id="Chair_41">
<rect id="Seat_41" x="587" y="75.5" width="19" height="15" transform="rotate(180 587 75.5)" fill="#6EB9E3" stroke="black"/>
<g id="Support_41">
<mask id="path-183-inside-41_0_1" fill="white">
<path fill-rule="evenodd" clip-rule="evenodd" d="M568.5 79C568.5 81.2091 566.709 83 564.5 83C562.291 83 560.5 81.2091 560.5 79V58C560.5 55.7909 562.291 54 564.5 54L590.5 54C592.709 54 594.5 55.7909 594.5 58V79C594.5 81.2091 592.709 83 590.5 83C588.291 83 586.5 81.2091 586.5 79V62L568.5 62V79Z"/>
</mask>
<path fill-rule="evenodd" clip-rule="evenodd" d="M568.5 79C568.5 81.2091 566.709 83 564.5 83C562.291 83 560.5 81.2091 560.5 79V58C560.5 55.7909 562.291 54 564.5 54L590.5 54C592.709 54 594.5 55.7909 594.5 58V79C594.5 81.2091 592.709 83 590.5 83C588.291 83 586.5 81.2091 586.5 79V62L568.5 62V79Z" fill="#6EB9E3"/>
<path d="M586.5 62L587.5 62V61L586.5 61V62ZM568.5 62V61H567.5V62H568.5ZM564.5 84C567.261 84 569.5 81.7614 569.5 79H567.5C567.5 80.6569 566.157 82 564.5 82V84ZM559.5 79C559.5 81.7614 561.739 84 564.5 84V82C562.843 82 561.5 80.6569 561.5 79H559.5ZM559.5 58V79H561.5V58L559.5 58ZM564.5 53C561.739 53 559.5 55.2386 559.5 58L561.5 58C561.5 56.3431 562.843 55 564.5 55V53ZM590.5 53L564.5 53V55L590.5 55V53ZM595.5 58C595.5 55.2386 593.261 53 590.5 53V55C592.157 55 593.5 56.3431 593.5 58H595.5ZM593.5 58V79H595.5V58H593.5ZM593.5 79C593.5 80.6569 592.157 82 590.5 82V84C593.261 84 595.5 81.7614 595.5 79H593.5ZM590.5 82C588.843 82 587.5 80.6569 587.5 79H585.5C585.5 81.7614 587.739 84 590.5 84V82ZM587.5 79V62L585.5 62V79H587.5ZM568.5 63L586.5 63V61L568.5 61V63ZM569.5 79V62H567.5V79H569.5Z" fill="black" mask="url(#path-183-inside-41_0_1)"/>
</g>
</g>
<rect id="Table_41" x="608" y="114.5" width="62" height="28" transform="rotate(180 608 114.5)" fill="#6EB9E3" stroke="black"/>
</g>
<g id="Desk7">
<g id="Chair_42">
<rect id="Seat_42" x="494" y="75.5" width="19" height="15" transform="rotate(180 494 75.5)" fill="#6EB9E3" stroke="black"/>
<g id="Support_42">
<mask id="path-187-inside-42_0_1" fill="white">
<path fill-rule="evenodd" clip-rule="evenodd" d="M475.5 79C475.5 81.2091 473.709 83 471.5 83C469.291 83 467.5 81.2091 467.5 79V58C467.5 55.7909 469.291 54 471.5 54L497.5 54C499.709 54 501.5 55.7909 501.5 58V79C501.5 81.2091 499.709 83 497.5 83C495.291 83 493.5 81.2091 493.5 79V62L475.5 62V79Z"/>
</mask>
<path fill-rule="evenodd" clip-rule="evenodd" d="M475.5 79C475.5 81.2091 473.709 83 471.5 83C469.291 83 467.5 81.2091 467.5 79V58C467.5 55.7909 469.291 54 471.5 54L497.5 54C499.709 54 501.5 55.7909 501.5 58V79C501.5 81.2091 499.709 83 497.5 83C495.291 83 493.5 81.2091 493.5 79V62L475.5 62V79Z" fill="#6EB9E3"/>
<path d="M493.5 62L494.5 62V61L493.5 61V62ZM475.5 62V61H474.5V62H475.5ZM471.5 84C474.261 84 476.5 81.7614 476.5 79H474.5C474.5 80.6569 473.157 82 471.5 82V84ZM466.5 79C466.5 81.7614 468.739 84 471.5 84V82C469.843 82 468.5 80.6569 468.5 79H466.5ZM466.5 58V79H468.5V58L466.5 58ZM471.5 53C468.739 53 466.5 55.2386 466.5 58L468.5 58C468.5 56.3431 469.843 55 471.5 55V53ZM497.5 53L471.5 53V55L497.5 55V53ZM502.5 58C502.5 55.2386 500.261 53 497.5 53V55C499.157 55 500.5 56.3431 500.5 58H502.5ZM500.5 58V79H502.5V58H500.5ZM500.5 79C500.5 80.6569 499.157 82 497.5 82V84C500.261 84 502.5 81.7614 502.5 79H500.5ZM497.5 82C495.843 82 494.5 80.6569 494.5 79H492.5C492.5 81.7614 494.739 84 497.5 84V82ZM494.5 79V62L492.5 62V79H494.5ZM475.5 63L493.5 63V61L475.5 61V63ZM476.5 79V62H474.5V79H476.5Z" fill="black" mask="url(#path-187-inside-42_0_1)"/>
</g>
</g>
<rect id="Table_42" x="515" y="114.5" width="62" height="28" transform="rotate(180 515 114.5)" fill="#6EB9E3" stroke="black"/>
</g>
</g>
<g id="Cluster_A">
<path id="Divider_horizontal_8" d="M33 137H338.5" stroke="#AFAFAF" stroke-width="0.5"/>
<path id="Divider_left_8" d="M140 76L140 192" stroke="#AFAFAF" stroke-width="0.5"/>
<path id="Divider_right_8" d="M233 76L233 192" stroke="#AFAFAF" stroke-width="0.5"/>
<g id="Desk6">
<g id="Chair_43">
<rect id="Seat_43" x="269.5" y="199.5" width="19" height="15" fill="#6EB9E3" stroke="black"/>
<g id="Support_43">
<mask id="path-194-inside-43_0_1" fill="white">
<path fill-rule="evenodd" clip-rule="evenodd" d="M288 196C288 193.791 289.791 192 292 192C294.209 192 296 193.791 296 196V217C296 219.209 294.209 221 292 221H266C263.791 221 262 219.209 262 217V196C262 193.791 263.791 192 266 192C268.209 192 270 193.791 270 196V213H288V196Z"/>
</mask>
<path fill-rule="evenodd" clip-rule="evenodd" d="M288 196C288 193.791 289.791 192 292 192C294.209 192 296 193.791 296 196V217C296 219.209 294.209 221 292 221H266C263.791 221 262 219.209 262 217V196C262 193.791 263.791 192 266 192C268.209 192 270 193.791 270 196V213H288V196Z" fill="#6EB9E3"/>
<path d="M270 213H269V214H270V213ZM288 213V214H289V213H288ZM292 191C289.239 191 287 193.239 287 196H289C289 194.343 290.343 193 292 193V191ZM297 196C297 193.239 294.761 191 292 191V193C293.657 193 295 194.343 295 196H297ZM297 217V196H295V217H297ZM292 222C294.761 222 297 219.761 297 217H295C295 218.657 293.657 220 292 220V222ZM266 222H292V220H266V222ZM261 217C261 219.761 263.239 222 266 222V220C264.343 220 263 218.657 263 217H261ZM263 217V196H261V217H263ZM263 196C263 194.343 264.343 193 266 193V191C263.239 191 261 193.239 261 196H263ZM266 193C267.657 193 269 194.343 269 196H271C271 193.239 268.761 191 266 191V193ZM269 196V213H271V196H269ZM288 212H270V214H288V212ZM287 196V213H289V196H287Z" fill="black" mask="url(#path-194-inside-43_0_1)"/>
</g>
</g>
<rect id="Table_43" x="248.5" y="160.5" width="62" height="28" fill="#6EB9E3" stroke="black"/>
</g>
<g id="Desk5">
<g id="Chair_44">
<rect id="Seat_44" x="176.5" y="199.5" width="19" height="15" fill="#6EB9E3" stroke="black"/>
<g id="Support_44">
<mask id="path-198-inside-44_0_1" fill="white">
<path fill-rule="evenodd" clip-rule="evenodd" d="M195 196C195 193.791 196.791 192 199 192C201.209 192 203 193.791 203 196V217C203 219.209 201.209 221 199 221H173C170.791 221 169 219.209 169 217V196C169 193.791 170.791 192 173 192C175.209 192 177 193.791 177 196V213H195V196Z"/>
</mask>
<path fill-rule="evenodd" clip-rule="evenodd" d="M195 196C195 193.791 196.791 192 199 192C201.209 192 203 193.791 203 196V217C203 219.209 201.209 221 199 221H173C170.791 221 169 219.209 169 217V196C169 193.791 170.791 192 173 192C175.209 192 177 193.791 177 196V213H195V196Z" fill="#6EB9E3"/>
<path d="M177 213H176V214H177V213ZM195 213V214H196V213H195ZM199 191C196.239 191 194 193.239 194 196H196C196 194.343 197.343 193 199 193V191ZM204 196C204 193.239 201.761 191 199 191V193C200.657 193 202 194.343 202 196H204ZM204 217V196H202V217H204ZM199 222C201.761 222 204 219.761 204 217H202C202 218.657 200.657 220 199 220V222ZM173 222H199V220H173V222ZM168 217C168 219.761 170.239 222 173 222V220C171.343 220 170 218.657 170 217H168ZM170 217V196H168V217H170ZM170 196C170 194.343 171.343 193 173 193V191C170.239 191 168 193.239 168 196H170ZM173 193C174.657 193 176 194.343 176 196H178C178 193.239 175.761 191 173 191V193ZM176 196V213H178V196H176ZM195 212H177V214H195V212ZM194 196V213H196V196H194Z" fill="black" mask="url(#path-198-inside-44_0_1)"/>
</g>
</g>
<rect id="Table_44" x="155.5" y="160.5" width="62" height="28" fill="#6EB9E3" stroke="black"/>
</g>
<g id="Desk4">
<g id="Chair_45">
<rect id="Seat_45" x="83.5" y="199.5" width="19" height="15" fill="#6EB9E3" stroke="black"/>
<g id="Support_45">
<mask id="path-202-inside-45_0_1" fill="white">
<path fill-rule="evenodd" clip-rule="evenodd" d="M102 196C102 193.791 103.791 192 106 192C108.209 192 110 193.791 110 196V217C110 219.209 108.209 221 106 221H80C77.7909 221 76 219.209 76 217V196C76 193.791 77.7909 192 80 192C82.2091 192 84 193.791 84 196V213H102V196Z"/>
</mask>
<path fill-rule="evenodd" clip-rule="evenodd" d="M102 196C102 193.791 103.791 192 106 192C108.209 192 110 193.791 110 196V217C110 219.209 108.209 221 106 221H80C77.7909 221 76 219.209 76 217V196C76 193.791 77.7909 192 80 192C82.2091 192 84 193.791 84 196V213H102V196Z" fill="#6EB9E3"/>
<path d="M84 213H83V214H84V213ZM102 213V214H103V213H102ZM106 191C103.239 191 101 193.239 101 196H103C103 194.343 104.343 193 106 193V191ZM111 196C111 193.239 108.761 191 106 191V193C107.657 193 109 194.343 109 196H111ZM111 217V196H109V217H111ZM106 222C108.761 222 111 219.761 111 217H109C109 218.657 107.657 220 106 220V222ZM80 222H106V220H80V222ZM75 217C75 219.761 77.2386 222 80 222V220C78.3431 220 77 218.657 77 217H75ZM77 217V196H75V217H77ZM77 196C77 194.343 78.3431 193 80 193V191C77.2386 191 75 193.239 75 196H77ZM80 193C81.6569 193 83 194.343 83 196H85C85 193.239 82.7614 191 80 191V193ZM83 196V213H85V196H83ZM102 212H84V214H102V212ZM101 196V213H103V196H101Z" fill="black" mask="url(#path-202-inside-45_0_1)"/>
</g>
</g>
<rect id="Table_45" x="62.5" y="160.5" width="62" height="28" fill="#6EB9E3" stroke="black"/>
</g>
<g id="Desk3">
<g id="Chair_46">
<rect id="Seat_46" x="0.5" y="-0.5" width="19" height="15" transform="matrix(1 0 0 -1 269 75)" fill="#6EB9E3" stroke="black"/>
<g id="Support_46">
<mask id="path-206-inside-46_0_1" fill="white">
<path fill-rule="evenodd" clip-rule="evenodd" d="M288 79C288 81.2091 289.791 83 292 83C294.209 83 296 81.2091 296 79V58C296 55.7909 294.209 54 292 54H266C263.791 54 262 55.7909 262 58V79C262 81.2091 263.791 83 266 83C268.209 83 270 81.2091 270 79V62H288V79Z"/>
</mask>
<path fill-rule="evenodd" clip-rule="evenodd" d="M288 79C288 81.2091 289.791 83 292 83C294.209 83 296 81.2091 296 79V58C296 55.7909 294.209 54 292 54H266C263.791 54 262 55.7909 262 58V79C262 81.2091 263.791 83 266 83C268.209 83 270 81.2091 270 79V62H288V79Z" fill="#6EB9E3"/>
<path d="M270 62H269V61H270V62ZM288 62V61H289V62H288ZM292 84C289.239 84 287 81.7614 287 79H289C289 80.6569 290.343 82 292 82V84ZM297 79C297 81.7614 294.761 84 292 84V82C293.657 82 295 80.6569 295 79H297ZM297 58V79H295V58H297ZM292 53C294.761 53 297 55.2386 297 58H295C295 56.3431 293.657 55 292 55V53ZM266 53H292V55H266V53ZM261 58C261 55.2386 263.239 53 266 53V55C264.343 55 263 56.3431 263 58H261ZM263 58V79H261V58H263ZM263 79C263 80.6569 264.343 82 266 82V84C263.239 84 261 81.7614 261 79H263ZM266 82C267.657 82 269 80.6569 269 79H271C271 81.7614 268.761 84 266 84V82ZM269 79V62H271V79H269ZM288 63H270V61H288V63ZM287 79V62H289V79H287Z" fill="black" mask="url(#path-206-inside-46_0_1)"/>
</g>
</g>
<rect id="Table_46" x="0.5" y="-0.5" width="62" height="28" transform="matrix(1 0 0 -1 248 114)" fill="#6EB9E3" stroke="black"/>
</g>
<g id="Desk2">
<g id="Chair_47">
<rect id="Seat_47" x="0.5" y="-0.5" width="19" height="15" transform="matrix(1 0 0 -1 176 75)" fill="#6EB9E3" stroke="black"/>
<g id="Support_47">
<mask id="path-210-inside-47_0_1" fill="white">
<path fill-rule="evenodd" clip-rule="evenodd" d="M195 79C195 81.2091 196.791 83 199 83C201.209 83 203 81.2091 203 79V58C203 55.7909 201.209 54 199 54H173C170.791 54 169 55.7909 169 58V79C169 81.2091 170.791 83 173 83C175.209 83 177 81.2091 177 79V62H195V79Z"/>
</mask>
<path fill-rule="evenodd" clip-rule="evenodd" d="M195 79C195 81.2091 196.791 83 199 83C201.209 83 203 81.2091 203 79V58C203 55.7909 201.209 54 199 54H173C170.791 54 169 55.7909 169 58V79C169 81.2091 170.791 83 173 83C175.209 83 177 81.2091 177 79V62H195V79Z" fill="#6EB9E3"/>
<path d="M177 62H176V61H177V62ZM195 62V61H196V62H195ZM199 84C196.239 84 194 81.7614 194 79H196C196 80.6569 197.343 82 199 82V84ZM204 79C204 81.7614 201.761 84 199 84V82C200.657 82 202 80.6569 202 79H204ZM204 58V79H202V58H204ZM199 53C201.761 53 204 55.2386 204 58H202C202 56.3431 200.657 55 199 55V53ZM173 53H199V55H173V53ZM168 58C168 55.2386 170.239 53 173 53V55C171.343 55 170 56.3431 170 58H168ZM170 58V79H168V58H170ZM170 79C170 80.6569 171.343 82 173 82V84C170.239 84 168 81.7614 168 79H170ZM173 82C174.657 82 176 80.6569 176 79H178C178 81.7614 175.761 84 173 84V82ZM176 79V62H178V79H176ZM195 63H177V61H195V63ZM194 79V62H196V79H194Z" fill="black" mask="url(#path-210-inside-47_0_1)"/>
</g>
</g>
<rect id="Table_47" x="0.5" y="-0.5" width="62" height="28" transform="matrix(1 0 0 -1 155 114)" fill="#6EB9E3" stroke="black"/>
</g>
<g id="Desk1">
<g id="Chair_48">
<rect id="Seat_48" x="0.5" y="-0.5" width="19" height="15" transform="matrix(1 0 0 -1 83 75)" fill="#6EB9E3" stroke="black"/>
<g id="Support_48">
<mask id="path-214-inside-48_0_1" fill="white">
<path fill-rule="evenodd" clip-rule="evenodd" d="M102 79C102 81.2091 103.791 83 106 83C108.209 83 110 81.2091 110 79V58C110 55.7909 108.209 54 106 54H80C77.7909 54 76 55.7909 76 58V79C76 81.2091 77.7909 83 80 83C82.2091 83 84 81.2091 84 79V62H102V79Z"/>
</mask>
<path fill-rule="evenodd" clip-rule="evenodd" d="M102 79C102 81.2091 103.791 83 106 83C108.209 83 110 81.2091 110 79V58C110 55.7909 108.209 54 106 54H80C77.7909 54 76 55.7909 76 58V79C76 81.2091 77.7909 83 80 83C82.2091 83 84 81.2091 84 79V62H102V79Z" fill="#6EB9E3"/>
<path d="M84 62H83V61H84V62ZM102 62V61H103V62H102ZM106 84C103.239 84 101 81.7614 101 79H103C103 80.6569 104.343 82 106 82V84ZM111 79C111 81.7614 108.761 84 106 84V82C107.657 82 109 80.6569 109 79H111ZM111 58V79H109V58H111ZM106 53C108.761 53 111 55.2386 111 58H109C109 56.3431 107.657 55 106 55V53ZM80 53H106V55H80V53ZM75 58C75 55.2386 77.2386 53 80 53V55C78.3431 55 77 56.3431 77 58H75ZM77 58V79H75V58H77ZM77 79C77 80.6569 78.3431 82 80 82V84C77.2386 84 75 81.7614 75 79H77ZM80 82C81.6569 82 83 80.6569 83 79H85C85 81.7614 82.7614 84 80 84V82ZM83 79V62H85V79H83ZM102 63H84V61H102V63ZM101 79V62H103V79H101Z" fill="black" mask="url(#path-214-inside-48_0_1)"/>
</g>
</g>
<rect id="Table_48" x="0.5" y="-0.5" width="62" height="28" transform="matrix(1 0 0 -1 62 114)" fill="#6EB9E3" stroke="black"/>
</g>
</g>
<path id="Main_divider_vertical" d="M382 54V962" stroke="#AFAFAF" stroke-width="0.5"/>
<path id="Center_divider_horizontal" d="M671 508L93 508" stroke="#AFAFAF" stroke-width="0.5"/>
<path id="Top_divider_horizontal" d="M671 261L93 261" stroke="#AFAFAF" stroke-width="0.5"/>
<path id="Bottom_divider_horizontal" d="M671 755H93" stroke="#AFAFAF" stroke-width="0.5"/>
</g>
</svg>
