<svg width="765" height="1020" viewBox="0 0 765 1020" fill="none" xmlns="http://www.w3.org/2000/svg" shape-rendering="crispEdges">
<rect width="765" height="1020" fill="#1E1E1E"/>
<g id="Frame 1">
<rect width="765" height="1020" fill="white" />
<g id="Cluster_H">
<path id="Divider_horizontal" d="M425 880H730.5" stroke="#AFAFAF" stroke-width="0.5"/>
<path id="Divider_left" d="M532 819L532 935" stroke="#AFAFAF" stroke-width="0.5"/>
<path id="Divider_right" d="M625 819L625 935" stroke="#AFAFAF" stroke-width="0.5"/>
<g id="Desk48">
<g id="Chair">
<rect id="Seat" x="661.5" y="942.5" width="19" height="15" fill="#6EB9E3" stroke="black"/>
<g id="Support">
<mask id="path-5-inside-1_0_1" fill="white">
<path fill-rule="evenodd" clip-rule="evenodd" d="M680 939C680 936.791 681.791 935 684 935C686.209 935 688 936.791 688 939V960C688 962.209 686.209 964 684 964H658C655.791 964 654 962.209 654 960V939C654 936.791 655.791 935 658 935C660.209 935 662 936.791 662 939V956H680V939Z"/>
</mask>
<path fill-rule="evenodd" clip-rule="evenodd" d="M680 939C680 936.791 681.791 935 684 935C686.209 935 688 936.791 688 939V960C688 962.209 686.209 964 684 964H658C655.791 964 654 962.209 654 960V939C654 936.791 655.791 935 658 935C660.209 935 662 936.791 662 939V956H680V939Z" fill="#6EB9E3"/>
<path d="M662 956H661V957H662V956ZM680 956V957H681V956H680ZM684 934C681.239 934 679 936.239 679 939H681C681 937.343 682.343 936 684 936V934ZM689 939C689 936.239 686.761 934 684 934V936C685.657 936 687 937.343 687 939H689ZM689 960V939H687V960H689ZM684 965C686.761 965 689 962.761 689 960H687C687 961.657 685.657 963 684 963V965ZM658 965H684V963H658V965ZM653 960C653 962.761 655.239 965 658 965V963C656.343 963 655 961.657 655 960H653ZM655 960V939H653V960H655ZM655 939C655 937.343 656.343 936 658 936V934C655.239 934 653 936.239 653 939H655ZM658 936C659.657 936 661 937.343 661 939H663C663 936.239 660.761 934 658 934V936ZM661 939V956H663V939H661ZM680 955H662V957H680V955ZM679 939V956H681V939H679Z" fill="black" mask="url(#path-5-inside-1_0_1)"/>
</g>
</g>
<rect id="Table" x="640.5" y="903.5" width="62" height="28" fill="#6EB9E3" stroke="black" />
</g>
<g id="Desk47">
<g id="Chair_2">
<rect id="Seat_2" x="568.5" y="942.5" width="19" height="15" fill="#6EB9E3" stroke="black" />
<g id="Support_2">
<mask id="path-9-inside-2_0_1" fill="white">
<path fill-rule="evenodd" clip-rule="evenodd" d="M587 939C587 936.791 588.791 935 591 935C593.209 935 595 936.791 595 939V960C595 962.209 593.209 964 591 964H565C562.791 964 561 962.209 561 960V939C561 936.791 562.791 935 565 935C567.209 935 569 936.791 569 939V956H587V939Z"/>
</mask>
<path fill-rule="evenodd" clip-rule="evenodd" d="M587 939C587 936.791 588.791 935 591 935C593.209 935 595 936.791 595 939V960C595 962.209 593.209 964 591 964H565C562.791 964 561 962.209 561 960V939C561 936.791 562.791 935 565 935C567.209 935 569 936.791 569 939V956H587V939Z" fill="#6EB9E3"/>
<path d="M569 956H568V957H569V956ZM587 956V957H588V956H587ZM591 934C588.239 934 586 936.239 586 939H588C588 937.343 589.343 936 591 936V934ZM596 939C596 936.239 593.761 934 591 934V936C592.657 936 594 937.343 594 939H596ZM596 960V939H594V960H596ZM591 965C593.761 965 596 962.761 596 960H594C594 961.657 592.657 963 591 963V965ZM565 965H591V963H565V965ZM560 960C560 962.761 562.239 965 565 965V963C563.343 963 562 961.657 562 960H560ZM562 960V939H560V960H562ZM562 939C562 937.343 563.343 936 565 936V934C562.239 934 560 936.239 560 939H562ZM565 936C566.657 936 568 937.343 568 939H570C570 936.239 567.761 934 565 934V936ZM568 939V956H570V939H568ZM587 955H569V957H587V955ZM586 939V956H588V939H586Z" fill="black" mask="url(#path-9-inside-2_0_1)"/>
</g>
</g>
<rect id="Table_2" x="547.5" y="903.5" width="62" height="28" fill="#6EB9E3" stroke="black"/>
</g>
<g id="Desk46">
<g id="Chair_3">
<rect id="Seat_3" x="475.5" y="942.5" width="19" height="15" fill="#6EB9E3" stroke="black"/>
<g id="Support_3">
<mask id="path-13-inside-3_0_1" fill="white">
<path fill-rule="evenodd" clip-rule="evenodd" d="M494 939C494 936.791 495.791 935 498 935C500.209 935 502 936.791 502 939V960C502 962.209 500.209 964 498 964H472C469.791 964 468 962.209 468 960V939C468 936.791 469.791 935 472 935C474.209 935 476 936.791 476 939V956H494V939Z"/>
</mask>
<path fill-rule="evenodd" clip-rule="evenodd" d="M494 939C494 936.791 495.791 935 498 935C500.209 935 502 936.791 502 939V960C502 962.209 500.209 964 498 964H472C469.791 964 468 962.209 468 960V939C468 936.791 469.791 935 472 935C474.209 935 476 936.791 476 939V956H494V939Z" fill="#6EB9E3"/>
<path d="M476 956H475V957H476V956ZM494 956V957H495V956H494ZM498 934C495.239 934 493 936.239 493 939H495C495 937.343 496.343 936 498 936V934ZM503 939C503 936.239 500.761 934 498 934V936C499.657 936 501 937.343 501 939H503ZM503 960V939H501V960H503ZM498 965C500.761 965 503 962.761 503 960H501C501 961.657 499.657 963 498 963V965ZM472 965H498V963H472V965ZM467 960C467 962.761 469.239 965 472 965V963C470.343 963 469 961.657 469 960H467ZM469 960V939H467V960H469ZM469 939C469 937.343 470.343 936 472 936V934C469.239 934 467 936.239 467 939H469ZM472 936C473.657 936 475 937.343 475 939H477C477 936.239 474.761 934 472 934V936ZM475 939V956H477V939H475ZM494 955H476V957H494V955ZM493 939V956H495V939H493Z" fill="black" mask="url(#path-13-inside-3_0_1)"/>
</g>
</g>
<rect id="Table_3" x="454.5" y="903.5" width="62" height="28" fill="#6EB9E3" stroke="black"/>
</g>
<g id="Desk45">
<g id="Chair_4">
<rect id="Seat_4" x="0.5" y="-0.5" width="19" height="15" transform="matrix(1 0 0 -1 661 818)" fill="#6EB9E3" stroke="black"/>
<g id="Support_4">
<mask id="path-17-inside-4_0_1" fill="white">
<path fill-rule="evenodd" clip-rule="evenodd" d="M680 822C680 824.209 681.791 826 684 826C686.209 826 688 824.209 688 822V801C688 798.791 686.209 797 684 797H658C655.791 797 654 798.791 654 801V822C654 824.209 655.791 826 658 826C660.209 826 662 824.209 662 822V805H680V822Z"/>
</mask>
<path fill-rule="evenodd" clip-rule="evenodd" d="M680 822C680 824.209 681.791 826 684 826C686.209 826 688 824.209 688 822V801C688 798.791 686.209 797 684 797H658C655.791 797 654 798.791 654 801V822C654 824.209 655.791 826 658 826C660.209 826 662 824.209 662 822V805H680V822Z" fill="#6EB9E3"/>
<path d="M662 805H661V804H662V805ZM680 805V804H681V805H680ZM684 827C681.239 827 679 824.761 679 822H681C681 823.657 682.343 825 684 825V827ZM689 822C689 824.761 686.761 827 684 827V825C685.657 825 687 823.657 687 822H689ZM689 801V822H687V801H689ZM684 796C686.761 796 689 798.239 689 801H687C687 799.343 685.657 798 684 798V796ZM658 796H684V798H658V796ZM653 801C653 798.239 655.239 796 658 796V798C656.343 798 655 799.343 655 801H653ZM655 801V822H653V801H655ZM655 822C655 823.657 656.343 825 658 825V827C655.239 827 653 824.761 653 822H655ZM658 825C659.657 825 661 823.657 661 822H663C663 824.761 660.761 827 658 827V825ZM661 822V805H663V822H661ZM680 806H662V804H680V806ZM679 822V805H681V822H679Z" fill="black" mask="url(#path-17-inside-4_0_1)"/>
</g>
</g>
<rect id="Table_4" x="0.5" y="-0.5" width="62" height="28" transform="matrix(1 0 0 -1 640 857)" fill="#6EB9E3" stroke="black"/>
</g>
<g id="Desk44">
<g id="Chair_5">
<rect id="Seat_5" x="0.5" y="-0.5" width="19" height="15" transform="matrix(1 0 0 -1 568 818)" fill="#6EB9E3" stroke="black"/>
<g id="Support_5">
<mask id="path-21-inside-5_0_1" fill="white">
<path fill-rule="evenodd" clip-rule="evenodd" d="M587 822C587 824.209 588.791 826 591 826C593.209 826 595 824.209 595 822V801C595 798.791 593.209 797 591 797H565C562.791 797 561 798.791 561 801V822C561 824.209 562.791 826 565 826C567.209 826 569 824.209 569 822V805H587V822Z"/>
</mask>
<path fill-rule="evenodd" clip-rule="evenodd" d="M587 822C587 824.209 588.791 826 591 826C593.209 826 595 824.209 595 822V801C595 798.791 593.209 797 591 797H565C562.791 797 561 798.791 561 801V822C561 824.209 562.791 826 565 826C567.209 826 569 824.209 569 822V805H587V822Z" fill="#6EB9E3"/>
<path d="M569 805H568V804H569V805ZM587 805V804H588V805H587ZM591 827C588.239 827 586 824.761 586 822H588C588 823.657 589.343 825 591 825V827ZM596 822C596 824.761 593.761 827 591 827V825C592.657 825 594 823.657 594 822H596ZM596 801V822H594V801H596ZM591 796C593.761 796 596 798.239 596 801H594C594 799.343 592.657 798 591 798V796ZM565 796H591V798H565V796ZM560 801C560 798.239 562.239 796 565 796V798C563.343 798 562 799.343 562 801H560ZM562 801V822H560V801H562ZM562 822C562 823.657 563.343 825 565 825V827C562.239 827 560 824.761 560 822H562ZM565 825C566.657 825 568 823.657 568 822H570C570 824.761 567.761 827 565 827V825ZM568 822V805H570V822H568ZM587 806H569V804H587V806ZM586 822V805H588V822H586Z" fill="black" mask="url(#path-21-inside-5_0_1)"/>
</g>
</g>
<rect id="Table_5" x="0.5" y="-0.5" width="62" height="28" transform="matrix(1 0 0 -1 547 857)" fill="#6EB9E3" stroke="black"/>
</g>
<g id="Desk43">
<g id="Chair_6">
<rect id="Seat_6" x="0.5" y="-0.5" width="19" height="15" transform="matrix(1 0 0 -1 475 818)" fill="#6EB9E3" stroke="black"/>
<g id="Support_6">
<mask id="path-25-inside-6_0_1" fill="white">
<path fill-rule="evenodd" clip-rule="evenodd" d="M494 822C494 824.209 495.791 826 498 826C500.209 826 502 824.209 502 822V801C502 798.791 500.209 797 498 797H472C469.791 797 468 798.791 468 801V822C468 824.209 469.791 826 472 826C474.209 826 476 824.209 476 822V805H494V822Z"/>
</mask>
<path fill-rule="evenodd" clip-rule="evenodd" d="M494 822C494 824.209 495.791 826 498 826C500.209 826 502 824.209 502 822V801C502 798.791 500.209 797 498 797H472C469.791 797 468 798.791 468 801V822C468 824.209 469.791 826 472 826C474.209 826 476 824.209 476 822V805H494V822Z" fill="#6EB9E3"/>
<path d="M476 805H475V804H476V805ZM494 805V804H495V805H494ZM498 827C495.239 827 493 824.761 493 822H495C495 823.657 496.343 825 498 825V827ZM503 822C503 824.761 500.761 827 498 827V825C499.657 825 501 823.657 501 822H503ZM503 801V822H501V801H503ZM498 796C500.761 796 503 798.239 503 801H501C501 799.343 499.657 798 498 798V796ZM472 796H498V798H472V796ZM467 801C467 798.239 469.239 796 472 796V798C470.343 798 469 799.343 469 801H467ZM469 801V822H467V801H469ZM469 822C469 823.657 470.343 825 472 825V827C469.239 827 467 824.761 467 822H469ZM472 825C473.657 825 475 823.657 475 822H477C477 824.761 474.761 827 472 827V825ZM475 822V805H477V822H475ZM494 806H476V804H494V806ZM493 822V805H495V822H493Z" fill="black" mask="url(#path-25-inside-6_0_1)"/>
</g>
</g>
<rect id="Table_6" x="0.5" y="-0.5" width="62" height="28" transform="matrix(1 0 0 -1 454 857)" fill="#6EB9E3" stroke="black"/>
</g>
</g>
<g id="Cluster_G">
<path id="Divider_horizontal_2" d="M33 880H338.5" stroke="#AFAFAF" stroke-width="0.5"/>
<path id="Divider_left_2" d="M140 819L140 935" stroke="#AFAFAF" stroke-width="0.5"/>
<path id="Divider_right_2" d="M233 819L233 935" stroke="#AFAFAF" stroke-width="0.5"/>
<g id="Desk42">
<g id="Chair_7">
<rect id="Seat_7" x="269.5" y="942.5" width="19" height="15" fill="#6EB9E3" stroke="black"/>
<g id="Support_7">
<mask id="path-32-inside-7_0_1" fill="white">
<path fill-rule="evenodd" clip-rule="evenodd" d="M288 939C288 936.791 289.791 935 292 935C294.209 935 296 936.791 296 939V960C296 962.209 294.209 964 292 964H266C263.791 964 262 962.209 262 960V939C262 936.791 263.791 935 266 935C268.209 935 270 936.791 270 939V956H288V939Z"/>
</mask>
<path fill-rule="evenodd" clip-rule="evenodd" d="M288 939C288 936.791 289.791 935 292 935C294.209 935 296 936.791 296 939V960C296 962.209 294.209 964 292 964H266C263.791 964 262 962.209 262 960V939C262 936.791 263.791 935 266 935C268.209 935 270 936.791 270 939V956H288V939Z" fill="#6EB9E3"/>
<path d="M270 956H269V957H270V956ZM288 956V957H289V956H288ZM292 934C289.239 934 287 936.239 287 939H289C289 937.343 290.343 936 292 936V934ZM297 939C297 936.239 294.761 934 292 934V936C293.657 936 295 937.343 295 939H297ZM297 960V939H295V960H297ZM292 965C294.761 965 297 962.761 297 960H295C295 961.657 293.657 963 292 963V965ZM266 965H292V963H266V965ZM261 960C261 962.761 263.239 965 266 965V963C264.343 963 263 961.657 263 960H261ZM263 960V939H261V960H263ZM263 939C263 937.343 264.343 936 266 936V934C263.239 934 261 936.239 261 939H263ZM266 936C267.657 936 269 937.343 269 939H271C271 936.239 268.761 934 266 934V936ZM269 939V956H271V939H269ZM288 955H270V957H288V955ZM287 939V956H289V939H287Z" fill="black" mask="url(#path-32-inside-7_0_1)"/>
</g>
</g>
<rect id="Table_7" x="248.5" y="903.5" width="62" height="28" fill="#6EB9E3" stroke="black"/>
</g>
<g id="Desk41">
<g id="Chair_8">
<rect id="Seat_8" x="176.5" y="942.5" width="19" height="15" fill="#6EB9E3" stroke="black"/>
<g id="Support_8">
<mask id="path-36-inside-8_0_1" fill="white">
<path fill-rule="evenodd" clip-rule="evenodd" d="M195 939C195 936.791 196.791 935 199 935C201.209 935 203 936.791 203 939V960C203 962.209 201.209 964 199 964H173C170.791 964 169 962.209 169 960V939C169 936.791 170.791 935 173 935C175.209 935 177 936.791 177 939V956H195V939Z"/>
</mask>
<path fill-rule="evenodd" clip-rule="evenodd" d="M195 939C195 936.791 196.791 935 199 935C201.209 935 203 936.791 203 939V960C203 962.209 201.209 964 199 964H173C170.791 964 169 962.209 169 960V939C169 936.791 170.791 935 173 935C175.209 935 177 936.791 177 939V956H195V939Z" fill="#6EB9E3"/>
<path d="M177 956H176V957H177V956ZM195 956V957H196V956H195ZM199 934C196.239 934 194 936.239 194 939H196C196 937.343 197.343 936 199 936V934ZM204 939C204 936.239 201.761 934 199 934V936C200.657 936 202 937.343 202 939H204ZM204 960V939H202V960H204ZM199 965C201.761 965 204 962.761 204 960H202C202 961.657 200.657 963 199 963V965ZM173 965H199V963H173V965ZM168 960C168 962.761 170.239 965 173 965V963C171.343 963 170 961.657 170 960H168ZM170 960V939H168V960H170ZM170 939C170 937.343 171.343 936 173 936V934C170.239 934 168 936.239 168 939H170ZM173 936C174.657 936 176 937.343 176 939H178C178 936.239 175.761 934 173 934V936ZM176 939V956H178V939H176ZM195 955H177V957H195V955ZM194 939V956H196V939H194Z" fill="black" mask="url(#path-36-inside-8_0_1)"/>
</g>
</g>
<rect id="Table_8" x="155.5" y="903.5" width="62" height="28" fill="#6EB9E3" stroke="black"/>
</g>
<g id="Desk40">
<g id="Chair_9">
<rect id="Seat_9" x="83.5" y="942.5" width="19" height="15" fill="#6EB9E3" stroke="black"/>
<g id="Support_9">
<mask id="path-40-inside-9_0_1" fill="white">
<path fill-rule="evenodd" clip-rule="evenodd" d="M102 939C102 936.791 103.791 935 106 935C108.209 935 110 936.791 110 939V960C110 962.209 108.209 964 106 964H80C77.7909 964 76 962.209 76 960V939C76 936.791 77.7909 935 80 935C82.2091 935 84 936.791 84 939V956H102V939Z"/>
</mask>
<path fill-rule="evenodd" clip-rule="evenodd" d="M102 939C102 936.791 103.791 935 106 935C108.209 935 110 936.791 110 939V960C110 962.209 108.209 964 106 964H80C77.7909 964 76 962.209 76 960V939C76 936.791 77.7909 935 80 935C82.2091 935 84 936.791 84 939V956H102V939Z" fill="#6EB9E3"/>
<path d="M84 956H83V957H84V956ZM102 956V957H103V956H102ZM106 934C103.239 934 101 936.239 101 939H103C103 937.343 104.343 936 106 936V934ZM111 939C111 936.239 108.761 934 106 934V936C107.657 936 109 937.343 109 939H111ZM111 960V939H109V960H111ZM106 965C108.761 965 111 962.761 111 960H109C109 961.657 107.657 963 106 963V965ZM80 965H106V963H80V965ZM75 960C75 962.761 77.2386 965 80 965V963C78.3431 963 77 961.657 77 960H75ZM77 960V939H75V960H77ZM77 939C77 937.343 78.3431 936 80 936V934C77.2386 934 75 936.239 75 939H77ZM80 936C81.6569 936 83 937.343 83 939H85C85 936.239 82.7614 934 80 934V936ZM83 939V956H85V939H83ZM102 955H84V957H102V955ZM101 939V956H103V939H101Z" fill="black" mask="url(#path-40-inside-9_0_1)"/>
</g>
</g>
<rect id="Table_9" x="62.5" y="903.5" width="62" height="28" fill="#6EB9E3" stroke="black"/>
</g>
<g id="Desk39">
<g id="Chair_10">
<rect id="Seat_10" x="0.5" y="-0.5" width="19" height="15" transform="matrix(1 0 0 -1 269 818)" fill="#6EB9E3" stroke="black"/>
<g id="Support_10">
<mask id="path-44-inside-10_0_1" fill="white">
<path fill-rule="evenodd" clip-rule="evenodd" d="M288 822C288 824.209 289.791 826 292 826C294.209 826 296 824.209 296 822V801C296 798.791 294.209 797 292 797H266C263.791 797 262 798.791 262 801V822C262 824.209 263.791 826 266 826C268.209 826 270 824.209 270 822V805H288V822Z"/>
</mask>
<path fill-rule="evenodd" clip-rule="evenodd" d="M288 822C288 824.209 289.791 826 292 826C294.209 826 296 824.209 296 822V801C296 798.791 294.209 797 292 797H266C263.791 797 262 798.791 262 801V822C262 824.209 263.791 826 266 826C268.209 826 270 824.209 270 822V805H288V822Z" fill="#6EB9E3"/>
<path d="M270 805H269V804H270V805ZM288 805V804H289V805H288ZM292 827C289.239 827 287 824.761 287 822H289C289 823.657 290.343 825 292 825V827ZM297 822C297 824.761 294.761 827 292 827V825C293.657 825 295 823.657 295 822H297ZM297 801V822H295V801H297ZM292 796C294.761 796 297 798.239 297 801H295C295 799.343 293.657 798 292 798V796ZM266 796H292V798H266V796ZM261 801C261 798.239 263.239 796 266 796V798C264.343 798 263 799.343 263 801H261ZM263 801V822H261V801H263ZM263 822C263 823.657 264.343 825 266 825V827C263.239 827 261 824.761 261 822H263ZM266 825C267.657 825 269 823.657 269 822H271C271 824.761 268.761 827 266 827V825ZM269 822V805H271V822H269ZM288 806H270V804H288V806ZM287 822V805H289V822H287Z" fill="black" mask="url(#path-44-inside-10_0_1)"/>
</g>
</g>
<rect id="Table_10" x="0.5" y="-0.5" width="62" height="28" transform="matrix(1 0 0 -1 248 857)" fill="#6EB9E3" stroke="black"/>
</g>
<g id="Desk38">
<g id="Chair_11">
<rect id="Seat_11" x="0.5" y="-0.5" width="19" height="15" transform="matrix(1 0 0 -1 176 818)" fill="#6EB9E3" stroke="black"/>
<g id="Support_11">
<mask id="path-48-inside-11_0_1" fill="white">
<path fill-rule="evenodd" clip-rule="evenodd" d="M195 822C195 824.209 196.791 826 199 826C201.209 826 203 824.209 203 822V801C203 798.791 201.209 797 199 797H173C170.791 797 169 798.791 169 801V822C169 824.209 170.791 826 173 826C175.209 826 177 824.209 177 822V805H195V822Z"/>
</mask>
<path fill-rule="evenodd" clip-rule="evenodd" d="M195 822C195 824.209 196.791 826 199 826C201.209 826 203 824.209 203 822V801C203 798.791 201.209 797 199 797H173C170.791 797 169 798.791 169 801V822C169 824.209 170.791 826 173 826C175.209 826 177 824.209 177 822V805H195V822Z" fill="#6EB9E3"/>
<path d="M177 805H176V804H177V805ZM195 805V804H196V805H195ZM199 827C196.239 827 194 824.761 194 822H196C196 823.657 197.343 825 199 825V827ZM204 822C204 824.761 201.761 827 199 827V825C200.657 825 202 823.657 202 822H204ZM204 801V822H202V801H204ZM199 796C201.761 796 204 798.239 204 801H202C202 799.343 200.657 798 199 798V796ZM173 796H199V798H173V796ZM168 801C168 798.239 170.239 796 173 796V798C171.343 798 170 799.343 170 801H168ZM170 801V822H168V801H170ZM170 822C170 823.657 171.343 825 173 825V827C170.239 827 168 824.761 168 822H170ZM173 825C174.657 825 176 823.657 176 822H178C178 824.761 175.761 827 173 827V825ZM176 822V805H178V822H176ZM195 806H177V804H195V806ZM194 822V805H196V822H194Z" fill="black" mask="url(#path-48-inside-11_0_1)"/>
</g>
</g>
<rect id="Table_11" x="0.5" y="-0.5" width="62" height="28" transform="matrix(1 0 0 -1 155 857)" fill="#6EB9E3" stroke="black"/>
</g>
<g id="Desk37">
<g id="Chair_12">
<rect id="Seat_12" x="0.5" y="-0.5" width="19" height="15" transform="matrix(1 0 0 -1 83 818)" fill="#6EB9E3" stroke="black"/>
<g id="Support_12">
<mask id="path-52-inside-12_0_1" fill="white">
<path fill-rule="evenodd" clip-rule="evenodd" d="M102 822C102 824.209 103.791 826 106 826C108.209 826 110 824.209 110 822V801C110 798.791 108.209 797 106 797H80C77.7909 797 76 798.791 76 801V822C76 824.209 77.7909 826 80 826C82.2091 826 84 824.209 84 822V805H102V822Z"/>
</mask>
<path fill-rule="evenodd" clip-rule="evenodd" d="M102 822C102 824.209 103.791 826 106 826C108.209 826 110 824.209 110 822V801C110 798.791 108.209 797 106 797H80C77.7909 797 76 798.791 76 801V822C76 824.209 77.7909 826 80 826C82.2091 826 84 824.209 84 822V805H102V822Z" fill="#6EB9E3"/>
<path d="M84 805H83V804H84V805ZM102 805V804H103V805H102ZM106 827C103.239 827 101 824.761 101 822H103C103 823.657 104.343 825 106 825V827ZM111 822C111 824.761 108.761 827 106 827V825C107.657 825 109 823.657 109 822H111ZM111 801V822H109V801H111ZM106 796C108.761 796 111 798.239 111 801H109C109 799.343 107.657 798 106 798V796ZM80 796H106V798H80V796ZM75 801C75 798.239 77.2386 796 80 796V798C78.3431 798 77 799.343 77 801H75ZM77 801V822H75V801H77ZM77 822C77 823.657 78.3431 825 80 825V827C77.2386 827 75 824.761 75 822H77ZM80 825C81.6569 825 83 823.657 83 822H85C85 824.761 82.7614 827 80 827V825ZM83 822V805H85V822H83ZM102 806H84V804H102V806ZM101 822V805H103V822H101Z" fill="black" mask="url(#path-52-inside-12_0_1)"/>
</g>
</g>
<rect id="Table_12" x="0.5" y="-0.5" width="62" height="28" transform="matrix(1 0 0 -1 62 857)" fill="#6EB9E3" stroke="black"/>
</g>
</g>
<g id="Cluster_F">
<path id="Divider_horizontal_3" d="M425 633H730.5" stroke="#AFAFAF" stroke-width="0.5"/>
<path id="Divider_left_3" d="M532 572L532 688" stroke="#AFAFAF" stroke-width="0.5"/>
<path id="Divider_right_3" d="M625 572L625 688" stroke="#AFAFAF" stroke-width="0.5"/>
<g id="Desk36">
<g id="Chair_13">
<rect id="Seat_13" x="661.5" y="695.5" width="19" height="15" fill="#6EB9E3" stroke="black"/>
<g id="Support_13">
<mask id="path-59-inside-13_0_1" fill="white">
<path fill-rule="evenodd" clip-rule="evenodd" d="M680 692C680 689.791 681.791 688 684 688C686.209 688 688 689.791 688 692V713C688 715.209 686.209 717 684 717H658C655.791 717 654 715.209 654 713V692C654 689.791 655.791 688 658 688C660.209 688 662 689.791 662 692V709H680V692Z"/>
</mask>
<path fill-rule="evenodd" clip-rule="evenodd" d="M680 692C680 689.791 681.791 688 684 688C686.209 688 688 689.791 688 692V713C688 715.209 686.209 717 684 717H658C655.791 717 654 715.209 654 713V692C654 689.791 655.791 688 658 688C660.209 688 662 689.791 662 692V709H680V692Z" fill="#6EB9E3"/>
<path d="M662 709H661V710H662V709ZM680 709V710H681V709H680ZM684 687C681.239 687 679 689.239 679 692H681C681 690.343 682.343 689 684 689V687ZM689 692C689 689.239 686.761 687 684 687V689C685.657 689 687 690.343 687 692H689ZM689 713V692H687V713H689ZM684 718C686.761 718 689 715.761 689 713H687C687 714.657 685.657 716 684 716V718ZM658 718H684V716H658V718ZM653 713C653 715.761 655.239 718 658 718V716C656.343 716 655 714.657 655 713H653ZM655 713V692H653V713H655ZM655 692C655 690.343 656.343 689 658 689V687C655.239 687 653 689.239 653 692H655ZM658 689C659.657 689 661 690.343 661 692H663C663 689.239 660.761 687 658 687V689ZM661 692V709H663V692H661ZM680 708H662V710H680V708ZM679 692V709H681V692H679Z" fill="black" mask="url(#path-59-inside-13_0_1)"/>
</g>
</g>
<rect id="Table_13" x="640.5" y="656.5" width="62" height="28" fill="#6EB9E3" stroke="black"/>
</g>
<g id="Desk35">
<g id="Chair_14">
<rect id="Seat_14" x="568.5" y="695.5" width="19" height="15" fill="#6EB9E3" stroke="black"/>
<g id="Support_14">
<mask id="path-63-inside-14_0_1" fill="white">
<path fill-rule="evenodd" clip-rule="evenodd" d="M587 692C587 689.791 588.791 688 591 688C593.209 688 595 689.791 595 692V713C595 715.209 593.209 717 591 717H565C562.791 717 561 715.209 561 713V692C561 689.791 562.791 688 565 688C567.209 688 569 689.791 569 692V709H587V692Z"/>
</mask>
<path fill-rule="evenodd" clip-rule="evenodd" d="M587 692C587 689.791 588.791 688 591 688C593.209 688 595 689.791 595 692V713C595 715.209 593.209 717 591 717H565C562.791 717 561 715.209 561 713V692C561 689.791 562.791 688 565 688C567.209 688 569 689.791 569 692V709H587V692Z" fill="#6EB9E3"/>
<path d="M569 709H568V710H569V709ZM587 709V710H588V709H587ZM591 687C588.239 687 586 689.239 586 692H588C588 690.343 589.343 689 591 689V687ZM596 692C596 689.239 593.761 687 591 687V689C592.657 689 594 690.343 594 692H596ZM596 713V692H594V713H596ZM591 718C593.761 718 596 715.761 596 713H594C594 714.657 592.657 716 591 716V718ZM565 718H591V716H565V718ZM560 713C560 715.761 562.239 718 565 718V716C563.343 716 562 714.657 562 713H560ZM562 713V692H560V713H562ZM562 692C562 690.343 563.343 689 565 689V687C562.239 687 560 689.239 560 692H562ZM565 689C566.657 689 568 690.343 568 692H570C570 689.239 567.761 687 565 687V689ZM568 692V709H570V692H568ZM587 708H569V710H587V708ZM586 692V709H588V692H586Z" fill="black" mask="url(#path-63-inside-14_0_1)"/>
</g>
</g>
<rect id="Table_14" x="547.5" y="656.5" width="62" height="28" fill="#6EB9E3" stroke="black"/>
</g>
<g id="Desk34">
<g id="Chair_15">
<rect id="Seat_15" x="475.5" y="695.5" width="19" height="15" fill="#6EB9E3" stroke="black"/>
<g id="Support_15">
<mask id="path-67-inside-15_0_1" fill="white">
<path fill-rule="evenodd" clip-rule="evenodd" d="M494 692C494 689.791 495.791 688 498 688C500.209 688 502 689.791 502 692V713C502 715.209 500.209 717 498 717H472C469.791 717 468 715.209 468 713V692C468 689.791 469.791 688 472 688C474.209 688 476 689.791 476 692V709H494V692Z"/>
</mask>
<path fill-rule="evenodd" clip-rule="evenodd" d="M494 692C494 689.791 495.791 688 498 688C500.209 688 502 689.791 502 692V713C502 715.209 500.209 717 498 717H472C469.791 717 468 715.209 468 713V692C468 689.791 469.791 688 472 688C474.209 688 476 689.791 476 692V709H494V692Z" fill="#6EB9E3"/>
<path d="M476 709H475V710H476V709ZM494 709V710H495V709H494ZM498 687C495.239 687 493 689.239 493 692H495C495 690.343 496.343 689 498 689V687ZM503 692C503 689.239 500.761 687 498 687V689C499.657 689 501 690.343 501 692H503ZM503 713V692H501V713H503ZM498 718C500.761 718 503 715.761 503 713H501C501 714.657 499.657 716 498 716V718ZM472 718H498V716H472V718ZM467 713C467 715.761 469.239 718 472 718V716C470.343 716 469 714.657 469 713H467ZM469 713V692H467V713H469ZM469 692C469 690.343 470.343 689 472 689V687C469.239 687 467 689.239 467 692H469ZM472 689C473.657 689 475 690.343 475 692H477C477 689.239 474.761 687 472 687V689ZM475 692V709H477V692H475ZM494 708H476V710H494V708ZM493 692V709H495V692H493Z" fill="black" mask="url(#path-67-inside-15_0_1)"/>
</g>
</g>
<rect id="Table_15" x="454.5" y="656.5" width="62" height="28" fill="#6EB9E3" stroke="black"/>
</g>
<g id="Desk33">
<g id="Chair_16">
<rect id="Seat_16" x="0.5" y="-0.5" width="19" height="15" transform="matrix(1 0 0 -1 661 571)" fill="#6EB9E3" stroke="black"/>
<g id="Support_16">
<mask id="path-71-inside-16_0_1" fill="white">
<path fill-rule="evenodd" clip-rule="evenodd" d="M680 575C680 577.209 681.791 579 684 579C686.209 579 688 577.209 688 575V554C688 551.791 686.209 550 684 550H658C655.791 550 654 551.791 654 554V575C654 577.209 655.791 579 658 579C660.209 579 662 577.209 662 575V558H680V575Z"/>
</mask>
<path fill-rule="evenodd" clip-rule="evenodd" d="M680 575C680 577.209 681.791 579 684 579C686.209 579 688 577.209 688 575V554C688 551.791 686.209 550 684 550H658C655.791 550 654 551.791 654 554V575C654 577.209 655.791 579 658 579C660.209 579 662 577.209 662 575V558H680V575Z" fill="#6EB9E3"/>
<path d="M662 558H661V557H662V558ZM680 558V557H681V558H680ZM684 580C681.239 580 679 577.761 679 575H681C681 576.657 682.343 578 684 578V580ZM689 575C689 577.761 686.761 580 684 580V578C685.657 578 687 576.657 687 575H689ZM689 554V575H687V554H689ZM684 549C686.761 549 689 551.239 689 554H687C687 552.343 685.657 551 684 551V549ZM658 549H684V551H658V549ZM653 554C653 551.239 655.239 549 658 549V551C656.343 551 655 552.343 655 554H653ZM655 554V575H653V554H655ZM655 575C655 576.657 656.343 578 658 578V580C655.239 580 653 577.761 653 575H655ZM658 578C659.657 578 661 576.657 661 575H663C663 577.761 660.761 580 658 580V578ZM661 575V558H663V575H661ZM680 559H662V557H680V559ZM679 575V558H681V575H679Z" fill="black" mask="url(#path-71-inside-16_0_1)"/>
</g>
</g>
<rect id="Table_16" x="0.5" y="-0.5" width="62" height="28" transform="matrix(1 0 0 -1 640 610)" fill="#6EB9E3" stroke="black"/>
</g>
<g id="Desk32">
<g id="Chair_17">
<rect id="Seat_17" x="0.5" y="-0.5" width="19" height="15" transform="matrix(1 0 0 -1 568 571)" fill="#6EB9E3" stroke="black"/>
<g id="Support_17">
<mask id="path-75-inside-17_0_1" fill="white">
<path fill-rule="evenodd" clip-rule="evenodd" d="M587 575C587 577.209 588.791 579 591 579C593.209 579 595 577.209 595 575V554C595 551.791 593.209 550 591 550H565C562.791 550 561 551.791 561 554V575C561 577.209 562.791 579 565 579C567.209 579 569 577.209 569 575V558H587V575Z"/>
</mask>
<path fill-rule="evenodd" clip-rule="evenodd" d="M587 575C587 577.209 588.791 579 591 579C593.209 579 595 577.209 595 575V554C595 551.791 593.209 550 591 550H565C562.791 550 561 551.791 561 554V575C561 577.209 562.791 579 565 579C567.209 579 569 577.209 569 575V558H587V575Z" fill="#6EB9E3"/>
<path d="M569 558H568V557H569V558ZM587 558V557H588V558H587ZM591 580C588.239 580 586 577.761 586 575H588C588 576.657 589.343 578 591 578V580ZM596 575C596 577.761 593.761 580 591 580V578C592.657 578 594 576.657 594 575H596ZM596 554V575H594V554H596ZM591 549C593.761 549 596 551.239 596 554H594C594 552.343 592.657 551 591 551V549ZM565 549H591V551H565V549ZM560 554C560 551.239 562.239 549 565 549V551C563.343 551 562 552.343 562 554H560ZM562 554V575H560V554H562ZM562 575C562 576.657 563.343 578 565 578V580C562.239 580 560 577.761 560 575H562ZM565 578C566.657 578 568 576.657 568 575H570C570 577.761 567.761 580 565 580V578ZM568 575V558H570V575H568ZM587 559H569V557H587V559ZM586 575V558H588V575H586Z" fill="black" mask="url(#path-75-inside-17_0_1)"/>
</g>
</g>
<rect id="Table_17" x="0.5" y="-0.5" width="62" height="28" transform="matrix(1 0 0 -1 547 610)" fill="#6EB9E3" stroke="black"/>
</g>
<g id="Desk31">
<g id="Chair_18">
<rect id="Seat_18" x="0.5" y="-0.5" width="19" height="15" transform="matrix(1 0 0 -1 475 571)" fill="#6EB9E3" stroke="black"/>
<g id="Support_18">
<mask id="path-79-inside-18_0_1" fill="white">
<path fill-rule="evenodd" clip-rule="evenodd" d="M494 575C494 577.209 495.791 579 498 579C500.209 579 502 577.209 502 575V554C502 551.791 500.209 550 498 550H472C469.791 550 468 551.791 468 554V575C468 577.209 469.791 579 472 579C474.209 579 476 577.209 476 575V558H494V575Z"/>
</mask>
<path fill-rule="evenodd" clip-rule="evenodd" d="M494 575C494 577.209 495.791 579 498 579C500.209 579 502 577.209 502 575V554C502 551.791 500.209 550 498 550H472C469.791 550 468 551.791 468 554V575C468 577.209 469.791 579 472 579C474.209 579 476 577.209 476 575V558H494V575Z" fill="#6EB9E3"/>
<path d="M476 558H475V557H476V558ZM494 558V557H495V558H494ZM498 580C495.239 580 493 577.761 493 575H495C495 576.657 496.343 578 498 578V580ZM503 575C503 577.761 500.761 580 498 580V578C499.657 578 501 576.657 501 575H503ZM503 554V575H501V554H503ZM498 549C500.761 549 503 551.239 503 554H501C501 552.343 499.657 551 498 551V549ZM472 549H498V551H472V549ZM467 554C467 551.239 469.239 549 472 549V551C470.343 551 469 552.343 469 554H467ZM469 554V575H467V554H469ZM469 575C469 576.657 470.343 578 472 578V580C469.239 580 467 577.761 467 575H469ZM472 578C473.657 578 475 576.657 475 575H477C477 577.761 474.761 580 472 580V578ZM475 575V558H477V575H475ZM494 559H476V557H494V559ZM493 575V558H495V575H493Z" fill="black" mask="url(#path-79-inside-18_0_1)"/>
</g>
</g>
<rect id="Table_18" x="0.5" y="-0.5" width="62" height="28" transform="matrix(1 0 0 -1 454 610)" fill="#6EB9E3" stroke="black"/>
</g>
</g>
<g id="Cluster_E">
<path id="Divider_horizontal_4" d="M33 633H338.5" stroke="#AFAFAF" stroke-width="0.5"/>
<path id="Divider_left_4" d="M140 572L140 688" stroke="#AFAFAF" stroke-width="0.5"/>
<path id="Divider_right_4" d="M233 572L233 688" stroke="#AFAFAF" stroke-width="0.5"/>
<g id="Desk30">
<g id="Chair_19">
<rect id="Seat_19" x="269.5" y="695.5" width="19" height="15" fill="#6EB9E3" stroke="black"/>
<g id="Support_19">
<mask id="path-86-inside-19_0_1" fill="white">
<path fill-rule="evenodd" clip-rule="evenodd" d="M288 692C288 689.791 289.791 688 292 688C294.209 688 296 689.791 296 692V713C296 715.209 294.209 717 292 717H266C263.791 717 262 715.209 262 713V692C262 689.791 263.791 688 266 688C268.209 688 270 689.791 270 692V709H288V692Z"/>
</mask>
<path fill-rule="evenodd" clip-rule="evenodd" d="M288 692C288 689.791 289.791 688 292 688C294.209 688 296 689.791 296 692V713C296 715.209 294.209 717 292 717H266C263.791 717 262 715.209 262 713V692C262 689.791 263.791 688 266 688C268.209 688 270 689.791 270 692V709H288V692Z" fill="#6EB9E3"/>
<path d="M270 709H269V710H270V709ZM288 709V710H289V709H288ZM292 687C289.239 687 287 689.239 287 692H289C289 690.343 290.343 689 292 689V687ZM297 692C297 689.239 294.761 687 292 687V689C293.657 689 295 690.343 295 692H297ZM297 713V692H295V713H297ZM292 718C294.761 718 297 715.761 297 713H295C295 714.657 293.657 716 292 716V718ZM266 718H292V716H266V718ZM261 713C261 715.761 263.239 718 266 718V716C264.343 716 263 714.657 263 713H261ZM263 713V692H261V713H263ZM263 692C263 690.343 264.343 689 266 689V687C263.239 687 261 689.239 261 692H263ZM266 689C267.657 689 269 690.343 269 692H271C271 689.239 268.761 687 266 687V689ZM269 692V709H271V692H269ZM288 708H270V710H288V708ZM287 692V709H289V692H287Z" fill="black" mask="url(#path-86-inside-19_0_1)"/>
</g>
</g>
<rect id="Table_19" x="248.5" y="656.5" width="62" height="28" fill="#6EB9E3" stroke="black"/>
</g>
<g id="Desk29">
<g id="Chair_20">
<rect id="Seat_20" x="176.5" y="695.5" width="19" height="15" fill="#6EB9E3" stroke="black"/>
<g id="Support_20">
<mask id="path-90-inside-20_0_1" fill="white">
<path fill-rule="evenodd" clip-rule="evenodd" d="M195 692C195 689.791 196.791 688 199 688C201.209 688 203 689.791 203 692V713C203 715.209 201.209 717 199 717H173C170.791 717 169 715.209 169 713V692C169 689.791 170.791 688 173 688C175.209 688 177 689.791 177 692V709H195V692Z"/>
</mask>
<path fill-rule="evenodd" clip-rule="evenodd" d="M195 692C195 689.791 196.791 688 199 688C201.209 688 203 689.791 203 692V713C203 715.209 201.209 717 199 717H173C170.791 717 169 715.209 169 713V692C169 689.791 170.791 688 173 688C175.209 688 177 689.791 177 692V709H195V692Z" fill="#6EB9E3"/>
<path d="M177 709H176V710H177V709ZM195 709V710H196V709H195ZM199 687C196.239 687 194 689.239 194 692H196C196 690.343 197.343 689 199 689V687ZM204 692C204 689.239 201.761 687 199 687V689C200.657 689 202 690.343 202 692H204ZM204 713V692H202V713H204ZM199 718C201.761 718 204 715.761 204 713H202C202 714.657 200.657 716 199 716V718ZM173 718H199V716H173V718ZM168 713C168 715.761 170.239 718 173 718V716C171.343 716 170 714.657 170 713H168ZM170 713V692H168V713H170ZM170 692C170 690.343 171.343 689 173 689V687C170.239 687 168 689.239 168 692H170ZM173 689C174.657 689 176 690.343 176 692H178C178 689.239 175.761 687 173 687V689ZM176 692V709H178V692H176ZM195 708H177V710H195V708ZM194 692V709H196V692H194Z" fill="black" mask="url(#path-90-inside-20_0_1)"/>
</g>
</g>
<rect id="Table_20" x="155.5" y="656.5" width="62" height="28" fill="#6EB9E3" stroke="black"/>
</g>
<g id="Desk28">
<g id="Chair_21">
<rect id="Seat_21" x="83.5" y="695.5" width="19" height="15" fill="#6EB9E3" stroke="black"/>
<g id="Support_21">
<mask id="path-94-inside-21_0_1" fill="white">
<path fill-rule="evenodd" clip-rule="evenodd" d="M102 692C102 689.791 103.791 688 106 688C108.209 688 110 689.791 110 692V713C110 715.209 108.209 717 106 717H80C77.7909 717 76 715.209 76 713V692C76 689.791 77.7909 688 80 688C82.2091 688 84 689.791 84 692V709H102V692Z"/>
</mask>
<path fill-rule="evenodd" clip-rule="evenodd" d="M102 692C102 689.791 103.791 688 106 688C108.209 688 110 689.791 110 692V713C110 715.209 108.209 717 106 717H80C77.7909 717 76 715.209 76 713V692C76 689.791 77.7909 688 80 688C82.2091 688 84 689.791 84 692V709H102V692Z" fill="#6EB9E3"/>
<path d="M84 709H83V710H84V709ZM102 709V710H103V709H102ZM106 687C103.239 687 101 689.239 101 692H103C103 690.343 104.343 689 106 689V687ZM111 692C111 689.239 108.761 687 106 687V689C107.657 689 109 690.343 109 692H111ZM111 713V692H109V713H111ZM106 718C108.761 718 111 715.761 111 713H109C109 714.657 107.657 716 106 716V718ZM80 718H106V716H80V718ZM75 713C75 715.761 77.2386 718 80 718V716C78.3431 716 77 714.657 77 713H75ZM77 713V692H75V713H77ZM77 692C77 690.343 78.3431 689 80 689V687C77.2386 687 75 689.239 75 692H77ZM80 689C81.6569 689 83 690.343 83 692H85C85 689.239 82.7614 687 80 687V689ZM83 692V709H85V692H83ZM102 708H84V710H102V708ZM101 692V709H103V692H101Z" fill="black" mask="url(#path-94-inside-21_0_1)"/>
</g>
</g>
<rect id="Table_21" x="62.5" y="656.5" width="62" height="28" fill="#6EB9E3" stroke="black"/>
</g>
<g id="Desk27">
<g id="Chair_22">
<rect id="Seat_22" x="0.5" y="-0.5" width="19" height="15" transform="matrix(1 0 0 -1 269 571)" fill="#6EB9E3" stroke="black"/>
<g id="Support_22">
<mask id="path-98-inside-22_0_1" fill="white">
<path fill-rule="evenodd" clip-rule="evenodd" d="M288 575C288 577.209 289.791 579 292 579C294.209 579 296 577.209 296 575V554C296 551.791 294.209 550 292 550H266C263.791 550 262 551.791 262 554V575C262 577.209 263.791 579 266 579C268.209 579 270 577.209 270 575V558H288V575Z"/>
</mask>
<path fill-rule="evenodd" clip-rule="evenodd" d="M288 575C288 577.209 289.791 579 292 579C294.209 579 296 577.209 296 575V554C296 551.791 294.209 550 292 550H266C263.791 550 262 551.791 262 554V575C262 577.209 263.791 579 266 579C268.209 579 270 577.209 270 575V558H288V575Z" fill="#6EB9E3"/>
<path d="M270 558H269V557H270V558ZM288 558V557H289V558H288ZM292 580C289.239 580 287 577.761 287 575H289C289 576.657 290.343 578 292 578V580ZM297 575C297 577.761 294.761 580 292 580V578C293.657 578 295 576.657 295 575H297ZM297 554V575H295V554H297ZM292 549C294.761 549 297 551.239 297 554H295C295 552.343 293.657 551 292 551V549ZM266 549H292V551H266V549ZM261 554C261 551.239 263.239 549 266 549V551C264.343 551 263 552.343 263 554H261ZM263 554V575H261V554H263ZM263 575C263 576.657 264.343 578 266 578V580C263.239 580 261 577.761 261 575H263ZM266 578C267.657 578 269 576.657 269 575H271C271 577.761 268.761 580 266 580V578ZM269 575V558H271V575H269ZM288 559H270V557H288V559ZM287 575V558H289V575H287Z" fill="black" mask="url(#path-98-inside-22_0_1)"/>
</g>
</g>
<rect id="Table_22" x="0.5" y="-0.5" width="62" height="28" transform="matrix(1 0 0 -1 248 610)" fill="#6EB9E3" stroke="black"/>
</g>
<g id="Desk26">
<g id="Chair_23">
<rect id="Seat_23" x="0.5" y="-0.5" width="19" height="15" transform="matrix(1 0 0 -1 176 571)" fill="#6EB9E3" stroke="black"/>
<g id="Support_23">
<mask id="path-102-inside-23_0_1" fill="white">
<path fill-rule="evenodd" clip-rule="evenodd" d="M195 575C195 577.209 196.791 579 199 579C201.209 579 203 577.209 203 575V554C203 551.791 201.209 550 199 550H173C170.791 550 169 551.791 169 554V575C169 577.209 170.791 579 173 579C175.209 579 177 577.209 177 575V558H195V575Z"/>
</mask>
<path fill-rule="evenodd" clip-rule="evenodd" d="M195 575C195 577.209 196.791 579 199 579C201.209 579 203 577.209 203 575V554C203 551.791 201.209 550 199 550H173C170.791 550 169 551.791 169 554V575C169 577.209 170.791 579 173 579C175.209 579 177 577.209 177 575V558H195V575Z" fill="#6EB9E3"/>
<path d="M177 558H176V557H177V558ZM195 558V557H196V558H195ZM199 580C196.239 580 194 577.761 194 575H196C196 576.657 197.343 578 199 578V580ZM204 575C204 577.761 201.761 580 199 580V578C200.657 578 202 576.657 202 575H204ZM204 554V575H202V554H204ZM199 549C201.761 549 204 551.239 204 554H202C202 552.343 200.657 551 199 551V549ZM173 549H199V551H173V549ZM168 554C168 551.239 170.239 549 173 549V551C171.343 551 170 552.343 170 554H168ZM170 554V575H168V554H170ZM170 575C170 576.657 171.343 578 173 578V580C170.239 580 168 577.761 168 575H170ZM173 578C174.657 578 176 576.657 176 575H178C178 577.761 175.761 580 173 580V578ZM176 575V558H178V575H176ZM195 559H177V557H195V559ZM194 575V558H196V575H194Z" fill="black" mask="url(#path-102-inside-23_0_1)"/>
</g>
</g>
<rect id="Table_23" x="0.5" y="-0.5" width="62" height="28" transform="matrix(1 0 0 -1 155 610)" fill="#6EB9E3" stroke="black"/>
</g>
<g id="Desk25">
<g id="Chair_24">
<rect id="Seat_24" x="0.5" y="-0.5" width="19" height="15" transform="matrix(1 0 0 -1 83 571)" fill="#6EB9E3" stroke="black"/>
<g id="Support_24">
<mask id="path-106-inside-24_0_1" fill="white">
<path fill-rule="evenodd" clip-rule="evenodd" d="M102 575C102 577.209 103.791 579 106 579C108.209 579 110 577.209 110 575V554C110 551.791 108.209 550 106 550H80C77.7909 550 76 551.791 76 554V575C76 577.209 77.7909 579 80 579C82.2091 579 84 577.209 84 575V558H102V575Z"/>
</mask>
<path fill-rule="evenodd" clip-rule="evenodd" d="M102 575C102 577.209 103.791 579 106 579C108.209 579 110 577.209 110 575V554C110 551.791 108.209 550 106 550H80C77.7909 550 76 551.791 76 554V575C76 577.209 77.7909 579 80 579C82.2091 579 84 577.209 84 575V558H102V575Z" fill="#6EB9E3"/>
<path d="M84 558H83V557H84V558ZM102 558V557H103V558H102ZM106 580C103.239 580 101 577.761 101 575H103C103 576.657 104.343 578 106 578V580ZM111 575C111 577.761 108.761 580 106 580V578C107.657 578 109 576.657 109 575H111ZM111 554V575H109V554H111ZM106 549C108.761 549 111 551.239 111 554H109C109 552.343 107.657 551 106 551V549ZM80 549H106V551H80V549ZM75 554C75 551.239 77.2386 549 80 549V551C78.3431 551 77 552.343 77 554H75ZM77 554V575H75V554H77ZM77 575C77 576.657 78.3431 578 80 578V580C77.2386 580 75 577.761 75 575H77ZM80 578C81.6569 578 83 576.657 83 575H85C85 577.761 82.7614 580 80 580V578ZM83 575V558H85V575H83ZM102 559H84V557H102V559ZM101 575V558H103V575H101Z" fill="black" mask="url(#path-106-inside-24_0_1)"/>
</g>
</g>
<rect id="Table_24" x="0.5" y="-0.5" width="62" height="28" transform="matrix(1 0 0 -1 62 610)" fill="#6EB9E3" stroke="black"/>
</g>
</g>
<g id="Cluster_D">
<path id="Divider_horizontal_5" d="M425 385H730.5" stroke="#AFAFAF" stroke-width="0.5"/>
<path id="Divider_left_5" d="M532 324L532 440" stroke="#AFAFAF" stroke-width="0.5"/>
<path id="Divider_right_5" d="M625 324L625 440" stroke="#AFAFAF" stroke-width="0.5"/>
<g id="Desk24">
<g id="Chair_25">
<rect id="Seat_25" x="661.5" y="447.5" width="19" height="15" fill="#6EB9E3" stroke="black"/>
<g id="Support_25">
<mask id="path-113-inside-25_0_1" fill="white">
<path fill-rule="evenodd" clip-rule="evenodd" d="M680 444C680 441.791 681.791 440 684 440C686.209 440 688 441.791 688 444V465C688 467.209 686.209 469 684 469H658C655.791 469 654 467.209 654 465V444C654 441.791 655.791 440 658 440C660.209 440 662 441.791 662 444V461H680V444Z"/>
</mask>
<path fill-rule="evenodd" clip-rule="evenodd" d="M680 444C680 441.791 681.791 440 684 440C686.209 440 688 441.791 688 444V465C688 467.209 686.209 469 684 469H658C655.791 469 654 467.209 654 465V444C654 441.791 655.791 440 658 440C660.209 440 662 441.791 662 444V461H680V444Z" fill="#6EB9E3"/>
<path d="M662 461H661V462H662V461ZM680 461V462H681V461H680ZM684 439C681.239 439 679 441.239 679 444H681C681 442.343 682.343 441 684 441V439ZM689 444C689 441.239 686.761 439 684 439V441C685.657 441 687 442.343 687 444H689ZM689 465V444H687V465H689ZM684 470C686.761 470 689 467.761 689 465H687C687 466.657 685.657 468 684 468V470ZM658 470H684V468H658V470ZM653 465C653 467.761 655.239 470 658 470V468C656.343 468 655 466.657 655 465H653ZM655 465V444H653V465H655ZM655 444C655 442.343 656.343 441 658 441V439C655.239 439 653 441.239 653 444H655ZM658 441C659.657 441 661 442.343 661 444H663C663 441.239 660.761 439 658 439V441ZM661 444V461H663V444H661ZM680 460H662V462H680V460ZM679 444V461H681V444H679Z" fill="black" mask="url(#path-113-inside-25_0_1)"/>
</g>
</g>
<rect id="Table_25" x="640.5" y="408.5" width="62" height="28" fill="#6EB9E3" stroke="black"/>
</g>
<g id="Desk23">
<g id="Chair_26">
<rect id="Seat_26" x="568.5" y="447.5" width="19" height="15" fill="#6EB9E3" stroke="black"/>
<g id="Support_26">
<mask id="path-117-inside-26_0_1" fill="white">
<path fill-rule="evenodd" clip-rule="evenodd" d="M587 444C587 441.791 588.791 440 591 440C593.209 440 595 441.791 595 444V465C595 467.209 593.209 469 591 469H565C562.791 469 561 467.209 561 465V444C561 441.791 562.791 440 565 440C567.209 440 569 441.791 569 444V461H587V444Z"/>
</mask>
<path fill-rule="evenodd" clip-rule="evenodd" d="M587 444C587 441.791 588.791 440 591 440C593.209 440 595 441.791 595 444V465C595 467.209 593.209 469 591 469H565C562.791 469 561 467.209 561 465V444C561 441.791 562.791 440 565 440C567.209 440 569 441.791 569 444V461H587V444Z" fill="#6EB9E3"/>
<path d="M569 461H568V462H569V461ZM587 461V462H588V461H587ZM591 439C588.239 439 586 441.239 586 444H588C588 442.343 589.343 441 591 441V439ZM596 444C596 441.239 593.761 439 591 439V441C592.657 441 594 442.343 594 444H596ZM596 465V444H594V465H596ZM591 470C593.761 470 596 467.761 596 465H594C594 466.657 592.657 468 591 468V470ZM565 470H591V468H565V470ZM560 465C560 467.761 562.239 470 565 470V468C563.343 468 562 466.657 562 465H560ZM562 465V444H560V465H562ZM562 444C562 442.343 563.343 441 565 441V439C562.239 439 560 441.239 560 444H562ZM565 441C566.657 441 568 442.343 568 444H570C570 441.239 567.761 439 565 439V441ZM568 444V461H570V444H568ZM587 460H569V462H587V460ZM586 444V461H588V444H586Z" fill="black" mask="url(#path-117-inside-26_0_1)"/>
</g>
</g>
<rect id="Table_26" x="547.5" y="408.5" width="62" height="28" fill="#6EB9E3" stroke="black"/>
</g>
<g id="Desk22">
<g id="Chair_27">
<rect id="Seat_27" x="475.5" y="447.5" width="19" height="15" fill="#6EB9E3" stroke="black"/>
<g id="Support_27">
<mask id="path-121-inside-27_0_1" fill="white">
<path fill-rule="evenodd" clip-rule="evenodd" d="M494 444C494 441.791 495.791 440 498 440C500.209 440 502 441.791 502 444V465C502 467.209 500.209 469 498 469H472C469.791 469 468 467.209 468 465V444C468 441.791 469.791 440 472 440C474.209 440 476 441.791 476 444V461H494V444Z"/>
</mask>
<path fill-rule="evenodd" clip-rule="evenodd" d="M494 444C494 441.791 495.791 440 498 440C500.209 440 502 441.791 502 444V465C502 467.209 500.209 469 498 469H472C469.791 469 468 467.209 468 465V444C468 441.791 469.791 440 472 440C474.209 440 476 441.791 476 444V461H494V444Z" fill="#6EB9E3"/>
<path d="M476 461H475V462H476V461ZM494 461V462H495V461H494ZM498 439C495.239 439 493 441.239 493 444H495C495 442.343 496.343 441 498 441V439ZM503 444C503 441.239 500.761 439 498 439V441C499.657 441 501 442.343 501 444H503ZM503 465V444H501V465H503ZM498 470C500.761 470 503 467.761 503 465H501C501 466.657 499.657 468 498 468V470ZM472 470H498V468H472V470ZM467 465C467 467.761 469.239 470 472 470V468C470.343 468 469 466.657 469 465H467ZM469 465V444H467V465H469ZM469 444C469 442.343 470.343 441 472 441V439C469.239 439 467 441.239 467 444H469ZM472 441C473.657 441 475 442.343 475 444H477C477 441.239 474.761 439 472 439V441ZM475 444V461H477V444H475ZM494 460H476V462H494V460ZM493 444V461H495V444H493Z" fill="black" mask="url(#path-121-inside-27_0_1)"/>
</g>
</g>
<rect id="Table_27" x="454.5" y="408.5" width="62" height="28" fill="#6EB9E3" stroke="black"/>
</g>
<g id="Desk21">
<g id="Chair_28">
<rect id="Seat_28" x="0.5" y="-0.5" width="19" height="15" transform="matrix(1 0 0 -1 661 323)" fill="#6EB9E3" stroke="black"/>
<g id="Support_28">
<mask id="path-125-inside-28_0_1" fill="white">
<path fill-rule="evenodd" clip-rule="evenodd" d="M680 327C680 329.209 681.791 331 684 331C686.209 331 688 329.209 688 327V306C688 303.791 686.209 302 684 302H658C655.791 302 654 303.791 654 306V327C654 329.209 655.791 331 658 331C660.209 331 662 329.209 662 327V310H680V327Z"/>
</mask>
<path fill-rule="evenodd" clip-rule="evenodd" d="M680 327C680 329.209 681.791 331 684 331C686.209 331 688 329.209 688 327V306C688 303.791 686.209 302 684 302H658C655.791 302 654 303.791 654 306V327C654 329.209 655.791 331 658 331C660.209 331 662 329.209 662 327V310H680V327Z" fill="#6EB9E3"/>
<path d="M662 310H661V309H662V310ZM680 310V309H681V310H680ZM684 332C681.239 332 679 329.761 679 327H681C681 328.657 682.343 330 684 330V332ZM689 327C689 329.761 686.761 332 684 332V330C685.657 330 687 328.657 687 327H689ZM689 306V327H687V306H689ZM684 301C686.761 301 689 303.239 689 306H687C687 304.343 685.657 303 684 303V301ZM658 301H684V303H658V301ZM653 306C653 303.239 655.239 301 658 301V303C656.343 303 655 304.343 655 306H653ZM655 306V327H653V306H655ZM655 327C655 328.657 656.343 330 658 330V332C655.239 332 653 329.761 653 327H655ZM658 330C659.657 330 661 328.657 661 327H663C663 329.761 660.761 332 658 332V330ZM661 327V310H663V327H661ZM680 311H662V309H680V311ZM679 327V310H681V327H679Z" fill="black" mask="url(#path-125-inside-28_0_1)"/>
</g>
</g>
<rect id="Table_28" x="0.5" y="-0.5" width="62" height="28" transform="matrix(1 0 0 -1 640 362)" fill="#6EB9E3" stroke="black"/>
</g>
<g id="Desk20">
<g id="Chair_29">
<rect id="Seat_29" x="0.5" y="-0.5" width="19" height="15" transform="matrix(1 0 0 -1 568 323)" fill="#6EB9E3" stroke="black"/>
<g id="Support_29">
<mask id="path-129-inside-29_0_1" fill="white">
<path fill-rule="evenodd" clip-rule="evenodd" d="M587 327C587 329.209 588.791 331 591 331C593.209 331 595 329.209 595 327V306C595 303.791 593.209 302 591 302H565C562.791 302 561 303.791 561 306V327C561 329.209 562.791 331 565 331C567.209 331 569 329.209 569 327V310H587V327Z"/>
</mask>
<path fill-rule="evenodd" clip-rule="evenodd" d="M587 327C587 329.209 588.791 331 591 331C593.209 331 595 329.209 595 327V306C595 303.791 593.209 302 591 302H565C562.791 302 561 303.791 561 306V327C561 329.209 562.791 331 565 331C567.209 331 569 329.209 569 327V310H587V327Z" fill="#6EB9E3"/>
<path d="M569 310H568V309H569V310ZM587 310V309H588V310H587ZM591 332C588.239 332 586 329.761 586 327H588C588 328.657 589.343 330 591 330V332ZM596 327C596 329.761 593.761 332 591 332V330C592.657 330 594 328.657 594 327H596ZM596 306V327H594V306H596ZM591 301C593.761 301 596 303.239 596 306H594C594 304.343 592.657 303 591 303V301ZM565 301H591V303H565V301ZM560 306C560 303.239 562.239 301 565 301V303C563.343 303 562 304.343 562 306H560ZM562 306V327H560V306H562ZM562 327C562 328.657 563.343 330 565 330V332C562.239 332 560 329.761 560 327H562ZM565 330C566.657 330 568 328.657 568 327H570C570 329.761 567.761 332 565 332V330ZM568 327V310H570V327H568ZM587 311H569V309H587V311ZM586 327V310H588V327H586Z" fill="black" mask="url(#path-129-inside-29_0_1)"/>
</g>
</g>
<rect id="Table_29" x="0.5" y="-0.5" width="62" height="28" transform="matrix(1 0 0 -1 547 362)" fill="#6EB9E3" stroke="black"/>
</g>
<g id="Desk19">
<g id="Chair_30">
<rect id="Seat_30" x="0.5" y="-0.5" width="19" height="15" transform="matrix(1 0 0 -1 475 323)" fill="#6EB9E3" stroke="black"/>
<g id="Support_30">
<mask id="path-133-inside-30_0_1" fill="white">
<path fill-rule="evenodd" clip-rule="evenodd" d="M494 327C494 329.209 495.791 331 498 331C500.209 331 502 329.209 502 327V306C502 303.791 500.209 302 498 302H472C469.791 302 468 303.791 468 306V327C468 329.209 469.791 331 472 331C474.209 331 476 329.209 476 327V310H494V327Z"/>
</mask>
<path fill-rule="evenodd" clip-rule="evenodd" d="M494 327C494 329.209 495.791 331 498 331C500.209 331 502 329.209 502 327V306C502 303.791 500.209 302 498 302H472C469.791 302 468 303.791 468 306V327C468 329.209 469.791 331 472 331C474.209 331 476 329.209 476 327V310H494V327Z" fill="#6EB9E3"/>
<path d="M476 310H475V309H476V310ZM494 310V309H495V310H494ZM498 332C495.239 332 493 329.761 493 327H495C495 328.657 496.343 330 498 330V332ZM503 327C503 329.761 500.761 332 498 332V330C499.657 330 501 328.657 501 327H503ZM503 306V327H501V306H503ZM498 301C500.761 301 503 303.239 503 306H501C501 304.343 499.657 303 498 303V301ZM472 301H498V303H472V301ZM467 306C467 303.239 469.239 301 472 301V303C470.343 303 469 304.343 469 306H467ZM469 306V327H467V306H469ZM469 327C469 328.657 470.343 330 472 330V332C469.239 332 467 329.761 467 327H469ZM472 330C473.657 330 475 328.657 475 327H477C477 329.761 474.761 332 472 332V330ZM475 327V310H477V327H475ZM494 311H476V309H494V311ZM493 327V310H495V327H493Z" fill="black" mask="url(#path-133-inside-30_0_1)"/>
</g>
</g>
<rect id="Table_30" x="0.5" y="-0.5" width="62" height="28" transform="matrix(1 0 0 -1 454 362)" fill="#6EB9E3" stroke="black"/>
</g>
</g>
<g id="Cluster_C">
<path id="Divider_horizontal_6" d="M33 385L338.5 385" stroke="#AFAFAF" stroke-width="0.5"/>
<path id="Divider_left_6" d="M140 324L140 440" stroke="#AFAFAF" stroke-width="0.5"/>
<path id="Divider_right_6" d="M233 324L233 440" stroke="#AFAFAF" stroke-width="0.5"/>
<g id="Desk18">
<g id="Chair_31">
<rect id="Seat_31" x="269.5" y="447.5" width="19" height="15" fill="#6EB9E3" stroke="black"/>
<g id="Support_31">
<mask id="path-140-inside-31_0_1" fill="white">
<path fill-rule="evenodd" clip-rule="evenodd" d="M288 444C288 441.791 289.791 440 292 440C294.209 440 296 441.791 296 444V465C296 467.209 294.209 469 292 469H266C263.791 469 262 467.209 262 465V444C262 441.791 263.791 440 266 440C268.209 440 270 441.791 270 444V461H288V444Z"/>
</mask>
<path fill-rule="evenodd" clip-rule="evenodd" d="M288 444C288 441.791 289.791 440 292 440C294.209 440 296 441.791 296 444V465C296 467.209 294.209 469 292 469H266C263.791 469 262 467.209 262 465V444C262 441.791 263.791 440 266 440C268.209 440 270 441.791 270 444V461H288V444Z" fill="#6EB9E3"/>
<path d="M270 461H269V462H270V461ZM288 461V462H289V461H288ZM292 439C289.239 439 287 441.239 287 444H289C289 442.343 290.343 441 292 441V439ZM297 444C297 441.239 294.761 439 292 439V441C293.657 441 295 442.343 295 444H297ZM297 465V444H295V465H297ZM292 470C294.761 470 297 467.761 297 465H295C295 466.657 293.657 468 292 468V470ZM266 470H292V468H266V470ZM261 465C261 467.761 263.239 470 266 470V468C264.343 468 263 466.657 263 465H261ZM263 465V444H261V465H263ZM263 444C263 442.343 264.343 441 266 441V439C263.239 439 261 441.239 261 444H263ZM266 441C267.657 441 269 442.343 269 444H271C271 441.239 268.761 439 266 439V441ZM269 444V461H271V444H269ZM288 460H270V462H288V460ZM287 444V461H289V444H287Z" fill="black" mask="url(#path-140-inside-31_0_1)"/>
</g>
</g>
<rect id="Table_31" x="248.5" y="408.5" width="62" height="28" fill="#6EB9E3" stroke="black"/>
</g>
<g id="Desk17">
<g id="Chair_32">
<rect id="Seat_32" x="176.5" y="447.5" width="19" height="15" fill="#6EB9E3" stroke="black"/>
<g id="Support_32">
<mask id="path-144-inside-32_0_1" fill="white">
<path fill-rule="evenodd" clip-rule="evenodd" d="M195 444C195 441.791 196.791 440 199 440C201.209 440 203 441.791 203 444V465C203 467.209 201.209 469 199 469H173C170.791 469 169 467.209 169 465V444C169 441.791 170.791 440 173 440C175.209 440 177 441.791 177 444V461H195V444Z"/>
</mask>
<path fill-rule="evenodd" clip-rule="evenodd" d="M195 444C195 441.791 196.791 440 199 440C201.209 440 203 441.791 203 444V465C203 467.209 201.209 469 199 469H173C170.791 469 169 467.209 169 465V444C169 441.791 170.791 440 173 440C175.209 440 177 441.791 177 444V461H195V444Z" fill="#6EB9E3"/>
<path d="M177 461H176V462H177V461ZM195 461V462H196V461H195ZM199 439C196.239 439 194 441.239 194 444H196C196 442.343 197.343 441 199 441V439ZM204 444C204 441.239 201.761 439 199 439V441C200.657 441 202 442.343 202 444H204ZM204 465V444H202V465H204ZM199 470C201.761 470 204 467.761 204 465H202C202 466.657 200.657 468 199 468V470ZM173 470H199V468H173V470ZM168 465C168 467.761 170.239 470 173 470V468C171.343 468 170 466.657 170 465H168ZM170 465V444H168V465H170ZM170 444C170 442.343 171.343 441 173 441V439C170.239 439 168 441.239 168 444H170ZM173 441C174.657 441 176 442.343 176 444H178C178 441.239 175.761 439 173 439V441ZM176 444V461H178V444H176ZM195 460H177V462H195V460ZM194 444V461H196V444H194Z" fill="black" mask="url(#path-144-inside-32_0_1)"/>
</g>
</g>
<rect id="Table_32" x="155.5" y="408.5" width="62" height="28" fill="#6EB9E3" stroke="black"/>
</g>
<g id="Desk16">
<g id="Chair_33">
<rect id="Seat_33" x="83.5" y="447.5" width="19" height="15" fill="#6EB9E3" stroke="black"/>
<g id="Support_33">
<mask id="path-148-inside-33_0_1" fill="white">
<path fill-rule="evenodd" clip-rule="evenodd" d="M102 444C102 441.791 103.791 440 106 440C108.209 440 110 441.791 110 444V465C110 467.209 108.209 469 106 469H80C77.7909 469 76 467.209 76 465V444C76 441.791 77.7909 440 80 440C82.2091 440 84 441.791 84 444V461H102V444Z"/>
</mask>
<path fill-rule="evenodd" clip-rule="evenodd" d="M102 444C102 441.791 103.791 440 106 440C108.209 440 110 441.791 110 444V465C110 467.209 108.209 469 106 469H80C77.7909 469 76 467.209 76 465V444C76 441.791 77.7909 440 80 440C82.2091 440 84 441.791 84 444V461H102V444Z" fill="#6EB9E3"/>
<path d="M84 461H83V462H84V461ZM102 461V462H103V461H102ZM106 439C103.239 439 101 441.239 101 444H103C103 442.343 104.343 441 106 441V439ZM111 444C111 441.239 108.761 439 106 439V441C107.657 441 109 442.343 109 444H111ZM111 465V444H109V465H111ZM106 470C108.761 470 111 467.761 111 465H109C109 466.657 107.657 468 106 468V470ZM80 470H106V468H80V470ZM75 465C75 467.761 77.2386 470 80 470V468C78.3431 468 77 466.657 77 465H75ZM77 465V444H75V465H77ZM77 444C77 442.343 78.3431 441 80 441V439C77.2386 439 75 441.239 75 444H77ZM80 441C81.6569 441 83 442.343 83 444H85C85 441.239 82.7614 439 80 439V441ZM83 444V461H85V444H83ZM102 460H84V462H102V460ZM101 444V461H103V444H101Z" fill="black" mask="url(#path-148-inside-33_0_1)"/>
</g>
</g>
<rect id="Table_33" x="62.5" y="408.5" width="62" height="28" fill="#6EB9E3" stroke="black"/>
</g>
<g id="Desk15">
<g id="Chair_34">
<rect id="Seat_34" x="0.5" y="-0.5" width="19" height="15" transform="matrix(1 0 0 -1 269 323)" fill="#6EB9E3" stroke="black"/>
<g id="Support_34">
<mask id="path-152-inside-34_0_1" fill="white">
<path fill-rule="evenodd" clip-rule="evenodd" d="M288 327C288 329.209 289.791 331 292 331C294.209 331 296 329.209 296 327L296 306C296 303.791 294.209 302 292 302L266 302C263.791 302 262 303.791 262 306L262 327C262 329.209 263.791 331 266 331C268.209 331 270 329.209 270 327L270 310L288 310L288 327Z"/>
</mask>
<path fill-rule="evenodd" clip-rule="evenodd" d="M288 327C288 329.209 289.791 331 292 331C294.209 331 296 329.209 296 327L296 306C296 303.791 294.209 302 292 302L266 302C263.791 302 262 303.791 262 306L262 327C262 329.209 263.791 331 266 331C268.209 331 270 329.209 270 327L270 310L288 310L288 327Z" fill="#6EB9E3"/>
<path d="M288 327H287H288ZM296 327H295H296ZM296 306H297H296ZM292 302V303V302ZM266 302V301V302ZM262 306H263H262ZM262 327H261H262ZM270 327H269H270ZM270 310H269V309H270V310ZM288 310V309H289V310H288ZM292 332C289.239 332 287 329.761 287 327H289C289 328.657 290.343 330 292 330V332ZM297 327C297 329.761 294.761 332 292 332V330C293.657 330 295 328.657 295 327H297ZM297 306L297 327H295L295 306H297ZM292 301C294.761 301 297 303.239 297 306H295C295 304.343 293.657 303 292 303V301ZM266 301L292 301V303L266 303V301ZM261 306C261 303.239 263.239 301 266 301V303C264.343 303 263 304.343 263 306H261ZM263 306L263 327L261 327L261 306H263ZM263 327C263 328.657 264.343 330 266 330V332C263.239 332 261 329.761 261 327H263ZM266 330C267.657 330 269 328.657 269 327H271C271 329.761 268.761 332 266 332V330ZM269 327L269 310H271L271 327H269ZM288 311L270 311V309L288 309V311ZM287 327L287 310H289L289 327L287 327Z" fill="black" mask="url(#path-152-inside-34_0_1)"/>
</g>
</g>
<rect id="Table_34" x="0.5" y="-0.5" width="62" height="28" transform="matrix(1 0 0 -1 248 362)" fill="#6EB9E3" stroke="black"/>
</g>
<g id="Desk14">
<g id="Chair_35">
<rect id="Seat_35" x="0.5" y="-0.5" width="19" height="15" transform="matrix(1 0 0 -1 176 323)" fill="#6EB9E3" stroke="black"/>
<g id="Support_35">
<mask id="path-156-inside-35_0_1" fill="white">
<path fill-rule="evenodd" clip-rule="evenodd" d="M195 327C195 329.209 196.791 331 199 331C201.209 331 203 329.209 203 327L203 306C203 303.791 201.209 302 199 302H173C170.791 302 169 303.791 169 306L169 327C169 329.209 170.791 331 173 331C175.209 331 177 329.209 177 327L177 310H195L195 327Z"/>
</mask>
<path fill-rule="evenodd" clip-rule="evenodd" d="M195 327C195 329.209 196.791 331 199 331C201.209 331 203 329.209 203 327L203 306C203 303.791 201.209 302 199 302H173C170.791 302 169 303.791 169 306L169 327C169 329.209 170.791 331 173 331C175.209 331 177 329.209 177 327L177 310H195L195 327Z" fill="#6EB9E3"/>
<path d="M195 327H194H195ZM203 327H202H203ZM203 306H204H203ZM169 306H170H169ZM169 327L168 327L169 327ZM177 327H176H177ZM177 310H176V309H177V310ZM195 310V309H196V310H195ZM199 332C196.239 332 194 329.761 194 327H196C196 328.657 197.343 330 199 330V332ZM204 327C204 329.761 201.761 332 199 332V330C200.657 330 202 328.657 202 327H204ZM204 306L204 327H202L202 306H204ZM199 301C201.761 301 204 303.239 204 306H202C202 304.343 200.657 303 199 303V301ZM173 301H199V303H173V301ZM168 306C168 303.239 170.239 301 173 301V303C171.343 303 170 304.343 170 306H168ZM170 306L170 327L168 327L168 306H170ZM170 327C170 328.657 171.343 330 173 330V332C170.239 332 168 329.761 168 327H170ZM173 330C174.657 330 176 328.657 176 327H178C178 329.761 175.761 332 173 332V330ZM176 327L176 310H178L178 327H176ZM195 311H177V309H195V311ZM194 327L194 310H196L196 327L194 327Z" fill="black" mask="url(#path-156-inside-35_0_1)"/>
</g>
</g>
<rect id="Table_35" x="0.5" y="-0.5" width="62" height="28" transform="matrix(1 0 0 -1 155 362)" fill="#6EB9E3" stroke="black"/>
</g>
<g id="Desk13">
<g id="Chair_36">
<rect id="Seat_36" x="0.5" y="-0.5" width="19" height="15" transform="matrix(1 0 0 -1 83 323)" fill="#6EB9E3" stroke="black"/>
<g id="Support_36">
<mask id="path-160-inside-36_0_1" fill="white">
<path fill-rule="evenodd" clip-rule="evenodd" d="M102 327C102 329.209 103.791 331 106 331C108.209 331 110 329.209 110 327L110 306C110 303.791 108.209 302 106 302H80C77.7909 302 76 303.791 76 306L76 327C76 329.209 77.7909 331 80 331C82.2091 331 84 329.209 84 327L84 310H102L102 327Z"/>
</mask>
<path fill-rule="evenodd" clip-rule="evenodd" d="M102 327C102 329.209 103.791 331 106 331C108.209 331 110 329.209 110 327L110 306C110 303.791 108.209 302 106 302H80C77.7909 302 76 303.791 76 306L76 327C76 329.209 77.7909 331 80 331C82.2091 331 84 329.209 84 327L84 310H102L102 327Z" fill="#6EB9E3"/>
<path d="M102 327H101H102ZM110 327H109H110ZM110 306H111H110ZM76 306H77H76ZM76 327L75 327L76 327ZM84 327H83H84ZM84 310H83V309H84V310ZM102 310V309H103V310H102ZM106 332C103.239 332 101 329.761 101 327H103C103 328.657 104.343 330 106 330V332ZM111 327C111 329.761 108.761 332 106 332V330C107.657 330 109 328.657 109 327H111ZM111 306L111 327H109L109 306H111ZM106 301C108.761 301 111 303.239 111 306H109C109 304.343 107.657 303 106 303V301ZM80 301H106V303H80V301ZM75 306C75 303.239 77.2386 301 80 301V303C78.3431 303 77 304.343 77 306H75ZM77 306L77 327L75 327L75 306H77ZM77 327C77 328.657 78.3431 330 80 330V332C77.2386 332 75 329.761 75 327H77ZM80 330C81.6569 330 83 328.657 83 327H85C85 329.761 82.7614 332 80 332V330ZM83 327L83 310H85L85 327H83ZM102 311H84V309H102V311ZM101 327L101 310H103L103 327L101 327Z" fill="black" mask="url(#path-160-inside-36_0_1)"/>
</g>
</g>
<rect id="Table_36" x="0.5" y="-0.5" width="62" height="28" transform="matrix(1 0 0 -1 62 362)" fill="#6EB9E3" stroke="black"/>
</g>
</g>
<g id="Cluster_B">
<path id="Divider_horizontal_7" d="M730.5 140L425 140" stroke="#AFAFAF" stroke-width="0.5"/>
<path id="Divider_left_7" d="M623.5 201L623.5 85" stroke="#AFAFAF" stroke-width="0.5"/>
<path id="Divider_right_7" d="M530.5 201L530.5 85" stroke="#AFAFAF" stroke-width="0.5"/>
<g id="Desk12">
<g id="Chair_37">
<rect id="Seat_37" x="-0.5" y="0.5" width="19" height="15" transform="matrix(-1 0 0 1 679.5 201)" fill="#6EB9E3" stroke="black"/>
<g id="Support_37">
<mask id="path-167-inside-37_0_1" fill="white">
<path fill-rule="evenodd" clip-rule="evenodd" d="M661.5 198C661.5 195.791 659.709 194 657.5 194C655.291 194 653.5 195.791 653.5 198V219C653.5 221.209 655.291 223 657.5 223L683.5 223C685.709 223 687.5 221.209 687.5 219V198C687.5 195.791 685.709 194 683.5 194C681.291 194 679.5 195.791 679.5 198V215L661.5 215V198Z"/>
</mask>
<path fill-rule="evenodd" clip-rule="evenodd" d="M661.5 198C661.5 195.791 659.709 194 657.5 194C655.291 194 653.5 195.791 653.5 198V219C653.5 221.209 655.291 223 657.5 223L683.5 223C685.709 223 687.5 221.209 687.5 219V198C687.5 195.791 685.709 194 683.5 194C681.291 194 679.5 195.791 679.5 198V215L661.5 215V198Z" fill="#6EB9E3"/>
<path d="M679.5 215H680.5V216H679.5V215ZM661.5 215V216H660.5V215H661.5ZM657.5 193C660.261 193 662.5 195.239 662.5 198H660.5C660.5 196.343 659.157 195 657.5 195V193ZM652.5 198C652.5 195.239 654.739 193 657.5 193V195C655.843 195 654.5 196.343 654.5 198H652.5ZM652.5 219V198H654.5V219H652.5ZM657.5 224C654.739 224 652.5 221.761 652.5 219H654.5C654.5 220.657 655.843 222 657.5 222V224ZM683.5 224L657.5 224V222L683.5 222V224ZM688.5 219C688.5 221.761 686.261 224 683.5 224V222C685.157 222 686.5 220.657 686.5 219H688.5ZM686.5 219V198H688.5V219H686.5ZM686.5 198C686.5 196.343 685.157 195 683.5 195V193C686.261 193 688.5 195.239 688.5 198H686.5ZM683.5 195C681.843 195 680.5 196.343 680.5 198H678.5C678.5 195.239 680.739 193 683.5 193V195ZM680.5 198V215H678.5V198H680.5ZM661.5 214L679.5 214V216L661.5 216V214ZM662.5 198V215H660.5V198H662.5Z" fill="black" mask="url(#path-167-inside-37_0_1)"/>
</g>
</g>
<rect id="Table_37" x="-0.5" y="0.5" width="62" height="28" transform="matrix(-1 0 0 1 700.5 162)" fill="#6EB9E3" stroke="black"/>
</g>
<g id="Desk11">
<g id="Chair_38">
<rect id="Seat_38" x="-0.5" y="0.5" width="19" height="15" transform="matrix(-1 0 0 1 586.5 201)" fill="#6EB9E3" stroke="black"/>
<g id="Support_38">
<mask id="path-171-inside-38_0_1" fill="white">
<path fill-rule="evenodd" clip-rule="evenodd" d="M568.5 198C568.5 195.791 566.709 194 564.5 194C562.291 194 560.5 195.791 560.5 198V219C560.5 221.209 562.291 223 564.5 223L590.5 223C592.709 223 594.5 221.209 594.5 219V198C594.5 195.791 592.709 194 590.5 194C588.291 194 586.5 195.791 586.5 198V215L568.5 215V198Z"/>
</mask>
<path fill-rule="evenodd" clip-rule="evenodd" d="M568.5 198C568.5 195.791 566.709 194 564.5 194C562.291 194 560.5 195.791 560.5 198V219C560.5 221.209 562.291 223 564.5 223L590.5 223C592.709 223 594.5 221.209 594.5 219V198C594.5 195.791 592.709 194 590.5 194C588.291 194 586.5 195.791 586.5 198V215L568.5 215V198Z" fill="#6EB9E3"/>
<path d="M586.5 215H587.5V216H586.5V215ZM568.5 215V216H567.5V215H568.5ZM564.5 193C567.261 193 569.5 195.239 569.5 198H567.5C567.5 196.343 566.157 195 564.5 195V193ZM559.5 198C559.5 195.239 561.739 193 564.5 193V195C562.843 195 561.5 196.343 561.5 198H559.5ZM559.5 219V198H561.5V219H559.5ZM564.5 224C561.739 224 559.5 221.761 559.5 219H561.5C561.5 220.657 562.843 222 564.5 222V224ZM590.5 224L564.5 224V222L590.5 222V224ZM595.5 219C595.5 221.761 593.261 224 590.5 224V222C592.157 222 593.5 220.657 593.5 219H595.5ZM593.5 219V198H595.5V219H593.5ZM593.5 198C593.5 196.343 592.157 195 590.5 195V193C593.261 193 595.5 195.239 595.5 198H593.5ZM590.5 195C588.843 195 587.5 196.343 587.5 198H585.5C585.5 195.239 587.739 193 590.5 193V195ZM587.5 198V215H585.5V198H587.5ZM568.5 214L586.5 214V216L568.5 216V214ZM569.5 198V215H567.5V198H569.5Z" fill="black" mask="url(#path-171-inside-38_0_1)"/>
</g>
</g>
<rect id="Table_38" x="-0.5" y="0.5" width="62" height="28" transform="matrix(-1 0 0 1 607.5 162)" fill="#6EB9E3" stroke="black"/>
</g>
<g id="Desk10">
<g id="Chair_39">
<rect id="Seat_39" x="-0.5" y="0.5" width="19" height="15" transform="matrix(-1 0 0 1 493.5 201)" fill="#6EB9E3" stroke="black"/>
<g id="Support_39">
<mask id="path-175-inside-39_0_1" fill="white">
<path fill-rule="evenodd" clip-rule="evenodd" d="M475.5 198C475.5 195.791 473.709 194 471.5 194C469.291 194 467.5 195.791 467.5 198V219C467.5 221.209 469.291 223 471.5 223L497.5 223C499.709 223 501.5 221.209 501.5 219V198C501.5 195.791 499.709 194 497.5 194C495.291 194 493.5 195.791 493.5 198V215L475.5 215V198Z"/>
</mask>
<path fill-rule="evenodd" clip-rule="evenodd" d="M475.5 198C475.5 195.791 473.709 194 471.5 194C469.291 194 467.5 195.791 467.5 198V219C467.5 221.209 469.291 223 471.5 223L497.5 223C499.709 223 501.5 221.209 501.5 219V198C501.5 195.791 499.709 194 497.5 194C495.291 194 493.5 195.791 493.5 198V215L475.5 215V198Z" fill="#6EB9E3"/>
<path d="M493.5 215H494.5V216H493.5V215ZM475.5 215V216H474.5V215H475.5ZM471.5 193C474.261 193 476.5 195.239 476.5 198H474.5C474.5 196.343 473.157 195 471.5 195V193ZM466.5 198C466.5 195.239 468.739 193 471.5 193V195C469.843 195 468.5 196.343 468.5 198H466.5ZM466.5 219V198H468.5V219H466.5ZM471.5 224C468.739 224 466.5 221.761 466.5 219H468.5C468.5 220.657 469.843 222 471.5 222V224ZM497.5 224L471.5 224V222L497.5 222V224ZM502.5 219C502.5 221.761 500.261 224 497.5 224V222C499.157 222 500.5 220.657 500.5 219H502.5ZM500.5 219V198H502.5V219H500.5ZM500.5 198C500.5 196.343 499.157 195 497.5 195V193C500.261 193 502.5 195.239 502.5 198H500.5ZM497.5 195C495.843 195 494.5 196.343 494.5 198H492.5C492.5 195.239 494.739 193 497.5 193V195ZM494.5 198V215H492.5V198H494.5ZM475.5 214L493.5 214V216L475.5 216V214ZM476.5 198V215H474.5V198H476.5Z" fill="black" mask="url(#path-175-inside-39_0_1)"/>
</g>
</g>
<rect id="Table_39" x="-0.5" y="0.5" width="62" height="28" transform="matrix(-1 0 0 1 514.5 162)" fill="#6EB9E3" stroke="black"/>
</g>
<g id="Desk9">
<g id="Chair_40">
<rect id="Seat_40" x="680" y="77.5" width="19" height="15" transform="rotate(180 680 77.5)" fill="#6EB9E3" stroke="black"/>
<g id="Support_40">
<mask id="path-179-inside-40_0_1" fill="white">
<path fill-rule="evenodd" clip-rule="evenodd" d="M661.5 81C661.5 83.2091 659.709 85 657.5 85C655.291 85 653.5 83.2091 653.5 81V60C653.5 57.7909 655.291 56 657.5 56L683.5 56C685.709 56 687.5 57.7909 687.5 60V81C687.5 83.2091 685.709 85 683.5 85C681.291 85 679.5 83.2091 679.5 81V64L661.5 64V81Z"/>
</mask>
<path fill-rule="evenodd" clip-rule="evenodd" d="M661.5 81C661.5 83.2091 659.709 85 657.5 85C655.291 85 653.5 83.2091 653.5 81V60C653.5 57.7909 655.291 56 657.5 56L683.5 56C685.709 56 687.5 57.7909 687.5 60V81C687.5 83.2091 685.709 85 683.5 85C681.291 85 679.5 83.2091 679.5 81V64L661.5 64V81Z" fill="#6EB9E3"/>
<path d="M679.5 64H680.5V63L679.5 63V64ZM661.5 64V63H660.5V64H661.5ZM657.5 86C660.261 86 662.5 83.7614 662.5 81H660.5C660.5 82.6569 659.157 84 657.5 84V86ZM652.5 81C652.5 83.7614 654.739 86 657.5 86V84C655.843 84 654.5 82.6569 654.5 81H652.5ZM652.5 60V81H654.5V60L652.5 60ZM657.5 55C654.739 55 652.5 57.2386 652.5 60L654.5 60C654.5 58.3431 655.843 57 657.5 57V55ZM683.5 55L657.5 55V57L683.5 57V55ZM688.5 60C688.5 57.2386 686.261 55 683.5 55V57C685.157 57 686.5 58.3431 686.5 60H688.5ZM686.5 60V81H688.5V60H686.5ZM686.5 81C686.5 82.6569 685.157 84 683.5 84V86C686.261 86 688.5 83.7614 688.5 81H686.5ZM683.5 84C681.843 84 680.5 82.6569 680.5 81H678.5C678.5 83.7614 680.739 86 683.5 86V84ZM680.5 81V64H678.5V81H680.5ZM661.5 65L679.5 65V63L661.5 63V65ZM662.5 81V64H660.5V81H662.5Z" fill="black" mask="url(#path-179-inside-40_0_1)"/>
</g>
</g>
<rect id="Table_40" x="701" y="116.5" width="62" height="28" transform="rotate(180 701 116.5)" fill="#6EB9E3" stroke="black"/>
</g>
<g id="Desk8">
<g id="Chair_41">
<rect id="Seat_41" x="587" y="77.5" width="19" height="15" transform="rotate(180 587 77.5)" fill="#6EB9E3" stroke="black"/>
<g id="Support_41">
<mask id="path-183-inside-41_0_1" fill="white">
<path fill-rule="evenodd" clip-rule="evenodd" d="M568.5 81C568.5 83.2091 566.709 85 564.5 85C562.291 85 560.5 83.2091 560.5 81V60C560.5 57.7909 562.291 56 564.5 56L590.5 56C592.709 56 594.5 57.7909 594.5 60V81C594.5 83.2091 592.709 85 590.5 85C588.291 85 586.5 83.2091 586.5 81V64L568.5 64V81Z"/>
</mask>
<path fill-rule="evenodd" clip-rule="evenodd" d="M568.5 81C568.5 83.2091 566.709 85 564.5 85C562.291 85 560.5 83.2091 560.5 81V60C560.5 57.7909 562.291 56 564.5 56L590.5 56C592.709 56 594.5 57.7909 594.5 60V81C594.5 83.2091 592.709 85 590.5 85C588.291 85 586.5 83.2091 586.5 81V64L568.5 64V81Z" fill="#6EB9E3"/>
<path d="M586.5 64H587.5V63L586.5 63V64ZM568.5 64V63H567.5V64H568.5ZM564.5 86C567.261 86 569.5 83.7614 569.5 81H567.5C567.5 82.6569 566.157 84 564.5 84V86ZM559.5 81C559.5 83.7614 561.739 86 564.5 86V84C562.843 84 561.5 82.6569 561.5 81H559.5ZM559.5 60V81H561.5V60L559.5 60ZM564.5 55C561.739 55 559.5 57.2386 559.5 60L561.5 60C561.5 58.3431 562.843 57 564.5 57V55ZM590.5 55L564.5 55V57L590.5 57V55ZM595.5 60C595.5 57.2386 593.261 55 590.5 55V57C592.157 57 593.5 58.3431 593.5 60H595.5ZM593.5 60V81H595.5V60H593.5ZM593.5 81C593.5 82.6569 592.157 84 590.5 84V86C593.261 86 595.5 83.7614 595.5 81H593.5ZM590.5 84C588.843 84 587.5 82.6569 587.5 81H585.5C585.5 83.7614 587.739 86 590.5 86V84ZM587.5 81V64H585.5V81H587.5ZM568.5 65L586.5 65V63L568.5 63V65ZM569.5 81V64H567.5V81H569.5Z" fill="black" mask="url(#path-183-inside-41_0_1)"/>
</g>
</g>
<rect id="Table_41" x="608" y="116.5" width="62" height="28" transform="rotate(180 608 116.5)" fill="#6EB9E3" stroke="black"/>
</g>
<g id="Desk7">
<g id="Chair_42">
<rect id="Seat_42" x="494" y="77.5" width="19" height="15" transform="rotate(180 494 77.5)" fill="#6EB9E3" stroke="black"/>
<g id="Support_42">
<mask id="path-187-inside-42_0_1" fill="white">
<path fill-rule="evenodd" clip-rule="evenodd" d="M475.5 81C475.5 83.2091 473.709 85 471.5 85C469.291 85 467.5 83.2091 467.5 81V60C467.5 57.7909 469.291 56 471.5 56L497.5 56C499.709 56 501.5 57.7909 501.5 60V81C501.5 83.2091 499.709 85 497.5 85C495.291 85 493.5 83.2091 493.5 81V64L475.5 64V81Z"/>
</mask>
<path fill-rule="evenodd" clip-rule="evenodd" d="M475.5 81C475.5 83.2091 473.709 85 471.5 85C469.291 85 467.5 83.2091 467.5 81V60C467.5 57.7909 469.291 56 471.5 56L497.5 56C499.709 56 501.5 57.7909 501.5 60V81C501.5 83.2091 499.709 85 497.5 85C495.291 85 493.5 83.2091 493.5 81V64L475.5 64V81Z" fill="#6EB9E3"/>
<path d="M493.5 64H494.5V63L493.5 63V64ZM475.5 64V63H474.5V64H475.5ZM471.5 86C474.261 86 476.5 83.7614 476.5 81H474.5C474.5 82.6569 473.157 84 471.5 84V86ZM466.5 81C466.5 83.7614 468.739 86 471.5 86V84C469.843 84 468.5 82.6569 468.5 81H466.5ZM466.5 60V81H468.5V60L466.5 60ZM471.5 55C468.739 55 466.5 57.2386 466.5 60L468.5 60C468.5 58.3431 469.843 57 471.5 57V55ZM497.5 55L471.5 55V57L497.5 57V55ZM502.5 60C502.5 57.2386 500.261 55 497.5 55V57C499.157 57 500.5 58.3431 500.5 60H502.5ZM500.5 60V81H502.5V60H500.5ZM500.5 81C500.5 82.6569 499.157 84 497.5 84V86C500.261 86 502.5 83.7614 502.5 81H500.5ZM497.5 84C495.843 84 494.5 82.6569 494.5 81H492.5C492.5 83.7614 494.739 86 497.5 86V84ZM494.5 81V64H492.5V81H494.5ZM475.5 65L493.5 65V63L475.5 63V65ZM476.5 81V64H474.5V81H476.5Z" fill="black" mask="url(#path-187-inside-42_0_1)"/>
</g>
</g>
<rect id="Table_42" x="515" y="116.5" width="62" height="28" transform="rotate(180 515 116.5)" fill="#6EB9E3" stroke="black"/>
</g>
</g>
<g id="Cluster_A">
<path id="Divider_horizontal_8" d="M33 139H338.5" stroke="#AFAFAF" stroke-width="0.5"/>
<path id="Divider_left_8" d="M140 78L140 194" stroke="#AFAFAF" stroke-width="0.5"/>
<path id="Divider_right_8" d="M233 78L233 194" stroke="#AFAFAF" stroke-width="0.5"/>
<g id="Desk6">
<g id="Chair_43">
<rect id="Seat_43" x="269.5" y="201.5" width="19" height="15" fill="#6EB9E3" stroke="black"/>
<g id="Support_43">
<mask id="path-194-inside-43_0_1" fill="white">
<path fill-rule="evenodd" clip-rule="evenodd" d="M288 198C288 195.791 289.791 194 292 194C294.209 194 296 195.791 296 198V219C296 221.209 294.209 223 292 223H266C263.791 223 262 221.209 262 219V198C262 195.791 263.791 194 266 194C268.209 194 270 195.791 270 198V215H288V198Z"/>
</mask>
<path fill-rule="evenodd" clip-rule="evenodd" d="M288 198C288 195.791 289.791 194 292 194C294.209 194 296 195.791 296 198V219C296 221.209 294.209 223 292 223H266C263.791 223 262 221.209 262 219V198C262 195.791 263.791 194 266 194C268.209 194 270 195.791 270 198V215H288V198Z" fill="#6EB9E3"/>
<path d="M270 215H269V216H270V215ZM288 215V216H289V215H288ZM292 193C289.239 193 287 195.239 287 198H289C289 196.343 290.343 195 292 195V193ZM297 198C297 195.239 294.761 193 292 193V195C293.657 195 295 196.343 295 198H297ZM297 219V198H295V219H297ZM292 224C294.761 224 297 221.761 297 219H295C295 220.657 293.657 222 292 222V224ZM266 224H292V222H266V224ZM261 219C261 221.761 263.239 224 266 224V222C264.343 222 263 220.657 263 219H261ZM263 219V198H261V219H263ZM263 198C263 196.343 264.343 195 266 195V193C263.239 193 261 195.239 261 198H263ZM266 195C267.657 195 269 196.343 269 198H271C271 195.239 268.761 193 266 193V195ZM269 198V215H271V198H269ZM288 214H270V216H288V214ZM287 198V215H289V198H287Z" fill="black" mask="url(#path-194-inside-43_0_1)"/>
</g>
</g>
<rect id="Table_43" x="248.5" y="162.5" width="62" height="28" fill="#6EB9E3" stroke="black"/>
</g>
<g id="Desk5">
<g id="Chair_44">
<rect id="Seat_44" x="176.5" y="201.5" width="19" height="15" fill="#6EB9E3" stroke="black"/>
<g id="Support_44">
<mask id="path-198-inside-44_0_1" fill="white">
<path fill-rule="evenodd" clip-rule="evenodd" d="M195 198C195 195.791 196.791 194 199 194C201.209 194 203 195.791 203 198V219C203 221.209 201.209 223 199 223H173C170.791 223 169 221.209 169 219V198C169 195.791 170.791 194 173 194C175.209 194 177 195.791 177 198V215H195V198Z"/>
</mask>
<path fill-rule="evenodd" clip-rule="evenodd" d="M195 198C195 195.791 196.791 194 199 194C201.209 194 203 195.791 203 198V219C203 221.209 201.209 223 199 223H173C170.791 223 169 221.209 169 219V198C169 195.791 170.791 194 173 194C175.209 194 177 195.791 177 198V215H195V198Z" fill="#6EB9E3"/>
<path d="M177 215H176V216H177V215ZM195 215V216H196V215H195ZM199 193C196.239 193 194 195.239 194 198H196C196 196.343 197.343 195 199 195V193ZM204 198C204 195.239 201.761 193 199 193V195C200.657 195 202 196.343 202 198H204ZM204 219V198H202V219H204ZM199 224C201.761 224 204 221.761 204 219H202C202 220.657 200.657 222 199 222V224ZM173 224H199V222H173V224ZM168 219C168 221.761 170.239 224 173 224V222C171.343 222 170 220.657 170 219H168ZM170 219V198H168V219H170ZM170 198C170 196.343 171.343 195 173 195V193C170.239 193 168 195.239 168 198H170ZM173 195C174.657 195 176 196.343 176 198H178C178 195.239 175.761 193 173 193V195ZM176 198V215H178V198H176ZM195 214H177V216H195V214ZM194 198V215H196V198H194Z" fill="black" mask="url(#path-198-inside-44_0_1)"/>
</g>
</g>
<rect id="Table_44" x="155.5" y="162.5" width="62" height="28" fill="#6EB9E3" stroke="black"/>
</g>
<g id="Desk4">
<g id="Chair_45">
<rect id="Seat_45" x="83.5" y="201.5" width="19" height="15" fill="#6EB9E3" stroke="black"/>
<g id="Support_45">
<mask id="path-202-inside-45_0_1" fill="white">
<path fill-rule="evenodd" clip-rule="evenodd" d="M102 198C102 195.791 103.791 194 106 194C108.209 194 110 195.791 110 198V219C110 221.209 108.209 223 106 223H80C77.7909 223 76 221.209 76 219V198C76 195.791 77.7909 194 80 194C82.2091 194 84 195.791 84 198V215H102V198Z"/>
</mask>
<path fill-rule="evenodd" clip-rule="evenodd" d="M102 198C102 195.791 103.791 194 106 194C108.209 194 110 195.791 110 198V219C110 221.209 108.209 223 106 223H80C77.7909 223 76 221.209 76 219V198C76 195.791 77.7909 194 80 194C82.2091 194 84 195.791 84 198V215H102V198Z" fill="#6EB9E3"/>
<path d="M84 215H83V216H84V215ZM102 215V216H103V215H102ZM106 193C103.239 193 101 195.239 101 198H103C103 196.343 104.343 195 106 195V193ZM111 198C111 195.239 108.761 193 106 193V195C107.657 195 109 196.343 109 198H111ZM111 219V198H109V219H111ZM106 224C108.761 224 111 221.761 111 219H109C109 220.657 107.657 222 106 222V224ZM80 224H106V222H80V224ZM75 219C75 221.761 77.2386 224 80 224V222C78.3431 222 77 220.657 77 219H75ZM77 219V198H75V219H77ZM77 198C77 196.343 78.3431 195 80 195V193C77.2386 193 75 195.239 75 198H77ZM80 195C81.6569 195 83 196.343 83 198H85C85 195.239 82.7614 193 80 193V195ZM83 198V215H85V198H83ZM102 214H84V216H102V214ZM101 198V215H103V198H101Z" fill="black" mask="url(#path-202-inside-45_0_1)"/>
</g>
</g>
<rect id="Table_45" x="62.5" y="162.5" width="62" height="28" fill="#6EB9E3" stroke="black"/>
</g>
<g id="Desk3">
<g id="Chair_46">
<rect id="Seat_46" x="0.5" y="-0.5" width="19" height="15" transform="matrix(1 0 0 -1 269 77)" fill="#6EB9E3" stroke="black"/>
<g id="Support_46">
<mask id="path-206-inside-46_0_1" fill="white">
<path fill-rule="evenodd" clip-rule="evenodd" d="M288 81C288 83.2091 289.791 85 292 85C294.209 85 296 83.2091 296 81V60C296 57.7909 294.209 56 292 56H266C263.791 56 262 57.7909 262 60V81C262 83.2091 263.791 85 266 85C268.209 85 270 83.2091 270 81V64H288V81Z"/>
</mask>
<path fill-rule="evenodd" clip-rule="evenodd" d="M288 81C288 83.2091 289.791 85 292 85C294.209 85 296 83.2091 296 81V60C296 57.7909 294.209 56 292 56H266C263.791 56 262 57.7909 262 60V81C262 83.2091 263.791 85 266 85C268.209 85 270 83.2091 270 81V64H288V81Z" fill="#6EB9E3"/>
<path d="M270 64H269V63H270V64ZM288 64V63H289V64H288ZM292 86C289.239 86 287 83.7614 287 81H289C289 82.6569 290.343 84 292 84V86ZM297 81C297 83.7614 294.761 86 292 86V84C293.657 84 295 82.6569 295 81H297ZM297 60V81H295V60H297ZM292 55C294.761 55 297 57.2386 297 60H295C295 58.3431 293.657 57 292 57V55ZM266 55H292V57H266V55ZM261 60C261 57.2386 263.239 55 266 55V57C264.343 57 263 58.3431 263 60H261ZM263 60V81H261V60H263ZM263 81C263 82.6569 264.343 84 266 84V86C263.239 86 261 83.7614 261 81H263ZM266 84C267.657 84 269 82.6569 269 81H271C271 83.7614 268.761 86 266 86V84ZM269 81V64H271V81H269ZM288 65H270V63H288V65ZM287 81V64H289V81H287Z" fill="black" mask="url(#path-206-inside-46_0_1)"/>
</g>
</g>
<rect id="Table_46" x="0.5" y="-0.5" width="62" height="28" transform="matrix(1 0 0 -1 248 116)" fill="#6EB9E3" stroke="black"/>
</g>
<g id="Desk2">
<g id="Chair_47">
<rect id="Seat_47" x="0.5" y="-0.5" width="19" height="15" transform="matrix(1 0 0 -1 176 77)" fill="#6EB9E3" stroke="black"/>
<g id="Support_47">
<mask id="path-210-inside-47_0_1" fill="white">
<path fill-rule="evenodd" clip-rule="evenodd" d="M195 81C195 83.2091 196.791 85 199 85C201.209 85 203 83.2091 203 81V60C203 57.7909 201.209 56 199 56H173C170.791 56 169 57.7909 169 60V81C169 83.2091 170.791 85 173 85C175.209 85 177 83.2091 177 81V64H195V81Z"/>
</mask>
<path fill-rule="evenodd" clip-rule="evenodd" d="M195 81C195 83.2091 196.791 85 199 85C201.209 85 203 83.2091 203 81V60C203 57.7909 201.209 56 199 56H173C170.791 56 169 57.7909 169 60V81C169 83.2091 170.791 85 173 85C175.209 85 177 83.2091 177 81V64H195V81Z" fill="#6EB9E3"/>
<path d="M177 64H176V63H177V64ZM195 64V63H196V64H195ZM199 86C196.239 86 194 83.7614 194 81H196C196 82.6569 197.343 84 199 84V86ZM204 81C204 83.7614 201.761 86 199 86V84C200.657 84 202 82.6569 202 81H204ZM204 60V81H202V60H204ZM199 55C201.761 55 204 57.2386 204 60H202C202 58.3431 200.657 57 199 57V55ZM173 55H199V57H173V55ZM168 60C168 57.2386 170.239 55 173 55V57C171.343 57 170 58.3431 170 60H168ZM170 60V81H168V60H170ZM170 81C170 82.6569 171.343 84 173 84V86C170.239 86 168 83.7614 168 81H170ZM173 84C174.657 84 176 82.6569 176 81H178C178 83.7614 175.761 86 173 86V84ZM176 81V64H178V81H176ZM195 65H177V63H195V65ZM194 81V64H196V81H194Z" fill="black" mask="url(#path-210-inside-47_0_1)"/>
</g>
</g>
<rect id="Table_47" x="0.5" y="-0.5" width="62" height="28" transform="matrix(1 0 0 -1 155 116)" fill="#6EB9E3" stroke="black"/>
</g>
<g id="Desk1">
<g id="Chair_48">
<rect id="Seat_48" x="0.5" y="-0.5" width="19" height="15" transform="matrix(1 0 0 -1 83 77)" fill="#6EB9E3" stroke="black"/>
<g id="Support_48">
<mask id="path-214-inside-48_0_1" fill="white">
<path fill-rule="evenodd" clip-rule="evenodd" d="M102 81C102 83.2091 103.791 85 106 85C108.209 85 110 83.2091 110 81V60C110 57.7909 108.209 56 106 56H80C77.7909 56 76 57.7909 76 60V81C76 83.2091 77.7909 85 80 85C82.2091 85 84 83.2091 84 81V64H102V81Z"/>
</mask>
<path fill-rule="evenodd" clip-rule="evenodd" d="M102 81C102 83.2091 103.791 85 106 85C108.209 85 110 83.2091 110 81V60C110 57.7909 108.209 56 106 56H80C77.7909 56 76 57.7909 76 60V81C76 83.2091 77.7909 85 80 85C82.2091 85 84 83.2091 84 81V64H102V81Z" fill="#6EB9E3"/>
<path d="M84 64H83V63H84V64ZM102 64V63H103V64H102ZM106 86C103.239 86 101 83.7614 101 81H103C103 82.6569 104.343 84 106 84V86ZM111 81C111 83.7614 108.761 86 106 86V84C107.657 84 109 82.6569 109 81H111ZM111 60V81H109V60H111ZM106 55C108.761 55 111 57.2386 111 60H109C109 58.3431 107.657 57 106 57V55ZM80 55H106V57H80V55ZM75 60C75 57.2386 77.2386 55 80 55V57C78.3431 57 77 58.3431 77 60H75ZM77 60V81H75V60H77ZM77 81C77 82.6569 78.3431 84 80 84V86C77.2386 86 75 83.7614 75 81H77ZM80 84C81.6569 84 83 82.6569 83 81H85C85 83.7614 82.7614 86 80 86V84ZM83 81V64H85V81H83ZM102 65H84V63H102V65ZM101 81V64H103V81H101Z" fill="black" mask="url(#path-214-inside-48_0_1)"/>
</g>
</g>
<rect id="Table_48" x="0.5" y="-0.5" width="62" height="28" transform="matrix(1 0 0 -1 62 116)" fill="#6EB9E3" stroke="black"/>
</g>
</g>
<path id="Main_divider_vertical" d="M382 56V964" stroke="#AFAFAF" stroke-width="0.5"/>
<path id="Center_divider_horizontal" d="M671 510L93 510" stroke="#AFAFAF" stroke-width="0.5"/>
<path id="Top_divider_horizontal" d="M671 263L93 263" stroke="#AFAFAF" stroke-width="0.5"/>
<path id="Bottom_divider_horizontal" d="M671 757H93" stroke="#AFAFAF" stroke-width="0.5"/>
</g>
</svg>
